<svg id="8a2604b5-6e64-4e1c-a595-987b18c4a1a4" data-name="Layer 1" xmlns="http://www.w3.org/2000/svg" xmlns:xlink="http://www.w3.org/1999/xlink" width="1023.46" height="837.84" viewBox="0 0 1023.46 837.84"><defs><linearGradient id="d148bd78-dfdb-4860-8913-2883bce62647" x1="352.43" y1="317.15" x2="352.43" y2="135.71" gradientUnits="userSpaceOnUse"><stop offset="0" stop-color="gray" stop-opacity="0.25"/><stop offset="0.54" stop-color="gray" stop-opacity="0.12"/><stop offset="1" stop-color="gray" stop-opacity="0.1"/></linearGradient><linearGradient id="21dd714d-5fef-43b4-8a00-2eb7e18e7124" x1="569.83" y1="551.49" x2="569.83" y2="380.82" xlink:href="#d148bd78-dfdb-4860-8913-2883bce62647"/><linearGradient id="6e1b171d-699c-4541-92bc-7fed1165af7a" x1="171.5" y1="319.2" x2="171.5" y2="319.02" xlink:href="#d148bd78-dfdb-4860-8913-2883bce62647"/><linearGradient id="ebcd6c22-4aac-42a1-8598-5b8b902ca0be" x1="228.01" y1="853.75" x2="228.01" y2="250.26" xlink:href="#d148bd78-dfdb-4860-8913-2883bce62647"/><linearGradient id="50322635-8468-40c0-ae64-fb7d227631e5" x1="944.05" y1="849.94" x2="944.05" y2="268.42" xlink:href="#d148bd78-dfdb-4860-8913-2883bce62647"/></defs><title>test</title><ellipse cx="176" cy="807.85" rx="176" ry="29.99" fill="#2f70ff" opacity="0.1"/><ellipse cx="847.47" cy="800.75" rx="176" ry="29.99" fill="#2f70ff" opacity="0.1"/><path d="M362.68,31.54c-46,2.46-92.48,15.9-128.37,44.79-31.49,25.36-54.2,65.23-48.66,105.29,6.54,47.29,48.73,81.69,64.38,126.8,10.07,29,8.5,61,1.91,91-4.24,19.33-10.76,38.68-23.29,54-22.57,27.56-63.3,40.86-74.39,74.71-12.06,36.81,18.33,72.91,46.88,99.09,22.79,20.89,46.66,41.68,75.38,53.13,21,8.38,43.79,11.39,66.38,12.59a442.71,442.71,0,0,0,183-29.24c27.91-10.83,54.91-24.56,84.12-31.09,62.25-13.92,126.3,6.15,189.39,15.55a566.44,566.44,0,0,0,163.17.48c34.06-4.86,69.25-13.63,94.9-36.55,26-23.27,39-59.29,37.56-94.19S1078.88,449.4,1057.2,422c-28-35.39-66.62-60.57-100.22-90.73a433.34,433.34,0,0,1-86.22-106.58c-13.2-23-24.43-47.41-41.53-67.66-26.67-31.56-65.35-50.33-104-64.83C636.07,58.8,543.59,52,450.63,37.24,421.58,32.61,392.11,30,362.68,31.54Z" transform="translate(-88.27 -31.08)" fill="#2f70ff" opacity="0.1"/><g opacity="0.7"><rect x="258.54" y="367.11" width="190.96" height="106.71" fill="#f6f7f9"/><g opacity="0.2"><circle cx="294.49" cy="414.48" r="19.88" fill="#2f70ff"/></g><g opacity="0.2"><rect x="338.61" y="390.92" width="86.62" height="5.45" fill="#2f70ff"/></g><g opacity="0.2"><rect x="338.61" y="404.81" width="44.13" height="5.45" fill="#2f70ff"/></g><g opacity="0.2"><rect x="338.61" y="418.7" width="71.37" height="5.45" fill="#2f70ff"/></g><g opacity="0.2"><rect x="338.61" y="432.59" width="86.62" height="5.45" fill="#2f70ff"/></g><g opacity="0.2"><rect x="401.27" y="452.64" width="23.97" height="10.53" fill="#2f70ff"/></g><rect x="419.31" y="72.2" width="190.96" height="106.71" fill="#f6f7f9"/><g opacity="0.2"><circle cx="455.27" cy="119.57" r="19.88" fill="#2f70ff"/></g><g opacity="0.2"><rect x="499.39" y="96.01" width="86.62" height="5.45" fill="#2f70ff"/></g><g opacity="0.2"><rect x="499.39" y="109.9" width="44.13" height="5.45" fill="#2f70ff"/></g><g opacity="0.2"><rect x="499.39" y="123.79" width="71.37" height="5.45" fill="#2f70ff"/></g><g opacity="0.2"><rect x="499.39" y="137.69" width="86.62" height="5.45" fill="#2f70ff"/></g><g opacity="0.2"><rect x="562.04" y="157.73" width="23.97" height="10.53" fill="#2f70ff"/></g><rect x="482.87" y="251.36" width="190.96" height="106.71" fill="#f6f7f9"/><g opacity="0.2"><circle cx="518.82" cy="298.74" r="19.88" fill="#2f70ff"/></g><g opacity="0.2"><rect x="562.95" y="275.18" width="86.62" height="5.45" fill="#2f70ff"/></g><g opacity="0.2"><rect x="562.95" y="289.07" width="44.13" height="5.45" fill="#2f70ff"/></g><g opacity="0.2"><rect x="562.95" y="302.96" width="71.37" height="5.45" fill="#2f70ff"/></g><g opacity="0.2"><rect x="562.95" y="316.85" width="86.62" height="5.45" fill="#2f70ff"/></g><g opacity="0.2"><rect x="625.6" y="336.9" width="23.97" height="10.53" fill="#2f70ff"/></g></g><rect x="191.88" y="135.71" width="321.11" height="181.44" fill="url(#d148bd78-dfdb-4860-8913-2883bce62647)"/><rect x="194.15" y="137.96" width="316.6" height="176.93" fill="#f6f7f9"/><g opacity="0.2"><circle cx="253.75" cy="216.51" r="32.96" fill="#2f70ff"/></g><g opacity="0.2"><rect x="326.92" y="177.44" width="143.62" height="9.03" fill="#2f70ff"/></g><g opacity="0.2"><rect x="326.92" y="200.48" width="73.16" height="9.03" fill="#2f70ff"/></g><g opacity="0.2"><rect x="326.92" y="223.51" width="118.33" height="9.03" fill="#2f70ff"/></g><g opacity="0.2"><rect x="326.92" y="246.54" width="143.62" height="9.03" fill="#2f70ff"/></g><rect x="430.79" y="279.78" width="39.74" height="17.46" fill="#2f70ff"/><rect x="417.12" y="380.82" width="305.42" height="170.67" fill="url(#21dd714d-5fef-43b4-8a00-2eb7e18e7124)"/><rect x="419.23" y="381.99" width="301.2" height="168.32" fill="#f6f7f9"/><g opacity="0.2"><circle cx="475.94" cy="456.72" r="31.36" fill="#2f70ff"/></g><g opacity="0.2"><rect x="545.54" y="419.55" width="136.63" height="8.59" fill="#2f70ff"/></g><g opacity="0.2"><rect x="545.54" y="441.47" width="69.6" height="8.59" fill="#2f70ff"/></g><g opacity="0.2"><rect x="545.54" y="463.38" width="112.57" height="8.59" fill="#2f70ff"/></g><g opacity="0.2"><rect x="545.54" y="485.29" width="136.63" height="8.59" fill="#2f70ff"/></g><g opacity="0.5"><rect x="644.36" y="516.91" width="37.81" height="16.61" fill="#2f70ff"/></g><g opacity="0.1"><path d="M171.13,319l.74.16A1,1,0,0,0,171.13,319Z" transform="translate(-88.27 -31.08)" fill="url(#6e1b171d-699c-4541-92bc-7fed1165af7a)"/></g><path d="M325.85,435.17c-2.21-14.84-15.69-49.46-15.69-49.46h0c-.24-1-.5-2.06-.8-3.08-9.57-32.89-22.81-35.8-22.81-35.8l-47.43-10.11a3.54,3.54,0,0,1,1,.94l-.75.12a18.57,18.57,0,0,1-4.16-9c-.09-.49-.17-1-.23-1.52a33.35,33.35,0,0,0-2.72-50.16c-.49-.39-1-.76-1.52-1.13,2.24-2.37,2.31-5.68.64-9-3.74-7.77-11.86-12.68-20.22-15.07-6.38-1.83-13.3-2.42-19.62-.42-3.61,1.14-6.89,3.07-10.27,4.76-6.3,3.15-13.24,5.64-18,10.81-1.11,1.21-2.12,2.75-1.8,4.34.25,1.19,1.18,2.1,1.79,3.16,1.35,2.36,1,5.33.09,7.9s-2.29,5-2.94,7.6-.39,5.74,1.59,7.62a34.37,34.37,0,0,0,3,2.1,15.27,15.27,0,0,1,2.83,3.17l5.62,7.59a77.57,77.57,0,0,1,7,10.69c1.39,2.75,2.48,5.7,4.35,8.16a12.82,12.82,0,0,0,1.87,2c-.18-.07-.37-.13-.55-.21a8.51,8.51,0,0,0,6.28,2.41h.28a1.71,1.71,0,0,0,1.15-.47l0,1c.1,3.65.09,7.53-.17,11.17l-.44-.22a3.81,3.81,0,0,0-4.09.43l-43.69,35s-9.49,13-8.17,35.4l-7.65,33.62s-9.57,28.53-2.21,48.9,11.63,32,11.63,32,2.94,23.14,7.36,25,6.33,2.92,6.33,2.92l.88,5.53h0s.29.53.81,1.45c3.22,5.59,15.13,25.33,22.06,23.23a89.83,89.83,0,0,1,1.13,16.21l6.84,46s4.78,12.51,4.49,19.06,5.59,15.87,5.59,15.87a30.34,30.34,0,0,0-2.94,21.39c2.8,12.23,6.33,68.69,6.33,68.69l5.15,13.68-.15,16a15.34,15.34,0,0,1-3.16,7.1c-3.32,3.6-3.1,7.76-11,12.67s-13,6.76-13,13.31a17.27,17.27,0,0,1-.24,2.7c-.74,4.79-2.17,7.37,12.5,8.77,17.22,1.63,28.7-9.61,28.7-9.61s2.53-4.59,14.46-6.44c0,0,4.07-.22,4.3-3.83.08-1.24.06-3.62-.05-6.24-.19-5-.67-10.82-1.3-11.11-.79-.35-2.19-5.38-2.67-7.2h3.32s3.09-23.14,0-38.14-.29-25.61-.29-25.61l-.59-39.58S229.73,698,233,690.3s0-45.84,0-45.84,1.19-13.68,4.57-16.88.17-20.05,0-20.93l6,20.2s2.65,40.17,8.25,47.45l1.62,18.18s11.48,16.74,9.27,25.77,2.36,41.62,2.36,41.62V793.2s-5.16,13.39,2.06,18.19l3.11-.12c-1.06,1-1.82,2.39-3,3.62-1.38,1.42-2.16,6.82-2.6,11.46-.37,3.93-.49,7.31-.49,7.31s3.09,4.91,8.83,5.24,24.73,14.85,24.73,14.85,18.78,0,23.63-1l.29-.07a6.41,6.41,0,0,0,3.66-3,7.64,7.64,0,0,0,.89-5.5c-.61-2.87-2.88-6-7.93-8.69-12.59-6.65-14.46-12.87-14.46-12.87l-8.25-12.36,1.18,0s-.73-13.1,8.24-27.8l-.58-64.76s3.67-22.27-2.65-34.35c0,0-.52-12.81,3.71-16.74s-5.63-43.66-5.63-43.66-2-21.32-4.44-40.78l0,0c9.93,9.42,20.24-24.51,22-30.54l.26,0s-.05-.16-.12-.44.12-.43.12-.43h0c0-.05-2.2-7.85-.59-6.26s5.6-4.36,5.6-4.36-.59-32.46,6.33-48.82S325.85,435.17,325.85,435.17Zm-29.59,20.65.05-.09c1,19.82-.2,62.11-.2,62.11s-1.36,5.42-2.82,11.8l-1.05-40.18h0l-1-37.84ZM169.53,442.16s5,62.58,0,71.6c-1.43,2.57-2.62,7.14-3.61,12.37-1.65-4.34-5.15-14.53-3.9-19.93,1.62-7-3.24-25.33-3.24-25.76s-.44-10.19,3.09-17.69,1.18-10.7,1.18-10.7S166,439.83,169.53,442.16Z" transform="translate(-88.27 -31.08)" fill="url(#ebcd6c22-4aac-42a1-8598-5b8b902ca0be)"/><path d="M181.71,583.1c-4.35,19.16-21.69-9.82-25.64-16.77l-.8-1.44,1.88-8.81,9.94-4.05a27.45,27.45,0,0,1,4.44,2.9C177,559.17,185.07,568.26,181.71,583.1Z" transform="translate(-88.27 -31.08)" fill="#efb7b9"/><path d="M316.21,551.74l-.11.43c0,.13-.09.28-.14.47-1.7,6-11.81,39.66-21.57,30.31-10.68-10.26-5.49-33.82-5.49-33.82H289l22.47-2.3,4.45,4.58h0Z" transform="translate(-88.27 -31.08)" fill="#efb7b9"/><path d="M303.21,717.45l.57,64.28c-8.8,14.6-8.09,27.6-8.09,27.6l-29,1.15c-7.08-4.76-2-18.05-2-18.05V759.34S260.16,727,262.32,718s-9.1-25.57-9.1-25.57l-1.58-18.05c-5.5-7.22-8.1-47.1-8.1-47.1l-5.91-20c.15.87,3.22,17.68,0,20.77s-4.48,16.76-4.48,16.76,3.18,37.85,0,45.5.86,12,.86,12l.59,39.29s-2.75,10.55.28,25.43,0,37.85,0,37.85h-31.2l.14-16-5.05-13.58s-3.47-56.05-6.21-68.18a30.44,30.44,0,0,1,2.88-21.24s-5.77-9.25-5.48-15.75-4.41-18.92-4.41-18.92l-6.72-45.65a88.55,88.55,0,0,0-3.32-26c-3.91-13-9.68-30.05-9.68-30.05l6.52.58,32.92,2.93s80-5.38,83.61-.91a14.93,14.93,0,0,1,1.52,4.66c3.59,16.15,8.34,66.71,8.34,66.71s9.68,39.44,5.52,43.34-3.64,16.61-3.64,16.61C306.82,695.35,303.21,717.45,303.21,717.45Z" transform="translate(-88.27 -31.08)" fill="#444053"/><path d="M235.56,829.22c-.23,3.58-4.23,3.8-4.23,3.8-11.7,1.84-14.18,6.4-14.18,6.4S205.88,850.57,189,849c-14.39-1.38-13-4-12.26-8.7a17,17,0,0,0,.23-2.68c0-6.5,5-8.35,12.79-13.22s7.58-9,10.83-12.57,3.58-10.5,3.58-10.5c3.68-6.4,13,1,13,1,.43,2.27,14.3,2,14.3,2s1.84,7.37,2.78,7.8c.62.29,1.09,6.07,1.28,11C235.62,825.63,235.63,828,235.56,829.22Z" transform="translate(-88.27 -31.08)" fill="#b07473"/><path d="M235.56,829.22c-.23,3.58-4.23,3.8-4.23,3.8-11.7,1.84-14.18,6.4-14.18,6.4S205.88,850.57,189,849c-14.39-1.38-13-4-12.26-8.7,6.43,1.6,18.73,3.82,25.91-.08,10-5.42,17.13-9.21,17.13-9.21L235.51,823C235.62,825.63,235.63,828,235.56,829.22Z" transform="translate(-88.27 -31.08)" opacity="0.1"/><path d="M323.74,848.51a6.28,6.28,0,0,1-3.6,3,1.43,1.43,0,0,1-.28.07c-4.77,1-23.19,1-23.19,1S278,838.12,272.4,837.79s-8.67-5.2-8.67-5.2.11-3.36.47-7.26c.44-4.61,1.21-10,2.56-11.38,2.5-2.6,3-6.17,8.67-3.9,0,0,8-14.11,17.44-3.21l9.76,14.81s1.84,6.17,14.2,12.78c4.95,2.65,7.18,5.77,7.77,8.62A7.63,7.63,0,0,1,323.74,848.51Z" transform="translate(-88.27 -31.08)" fill="#b07473"/><path d="M323.74,848.51c-1.1.93-2.33,1.93-3.6,3a1.43,1.43,0,0,1-.28.07c-4.77,1-23.19,1-23.19,1S278,838.12,272.4,837.79s-8.67-5.2-8.67-5.2.11-3.36.47-7.26c5.73,1.72,14.43,4.75,16.76,8,3.57,5,14.42,11.91,14.42,11.91s20.23-1.94,29.22-2.21A7.63,7.63,0,0,1,323.74,848.51Z" transform="translate(-88.27 -31.08)" opacity="0.1"/><path d="M245,344.36l-26.66,28.17s-32.29-2.38-26.65-11.92c2.87-4.85,3.32-15,3.07-23.86-.24-8.53-1.12-15.79-1.12-15.79s45.29-22.54,41.82-1.52a34.87,34.87,0,0,0-.13,12C237.3,342.06,245,344.36,245,344.36Z" transform="translate(-88.27 -31.08)" fill="#efb7b9"/><path d="M235.45,319.44a34.87,34.87,0,0,0-.13,12,33.24,33.24,0,0,1-23.7,9.89c-6.16,0-12.75-5-17.7-7.95-.24-8.53-.29-12.42-.29-12.42S238.92,298.42,235.45,319.44Z" transform="translate(-88.27 -31.08)" opacity="0.1"/><path d="M245,306.22a33.38,33.38,0,1,1-12.56-26.08A33.38,33.38,0,0,1,245,306.22Z" transform="translate(-88.27 -31.08)" fill="#efb7b9"/><path d="M290.39,556.69c-8.31,19.78-61.77,20.19-61.77,20.19V555.32l-3.24-.21c1.4,6.17-2,21.23-2,21.23-42.25,6-52.54-18.09-52.54-18.09l1.46-8.24,32.92,2.93s80-5.38,83.61-.91A14.93,14.93,0,0,1,290.39,556.69Z" transform="translate(-88.27 -31.08)" opacity="0.1"/><path d="M228.62,574.28V552.71l-3.24-.2c1.4,6.17-2,21.23-2,21.23-31.79,4.48-45.5-8-50.33-14.5a19.65,19.65,0,0,1-2.21-3.6l12.89-72.59,3-106.83,4.65-18.74,1.08-9v-.1l.11.05,3.28,1.41,19.68,8.5L238,341.47l.33-.25,1.11-.84,1.85,1.49,4.59,3.68,14.74,95.14s25.56,73.26,30.3,102.83c.19,1.18.35,2.28.47,3.31C294.5,573.78,228.62,574.28,228.62,574.28Z" transform="translate(-88.27 -31.08)" fill="#e1e7ef"/><circle cx="129.73" cy="329.32" r="1.9" fill="#67647e"/><circle cx="130.61" cy="346.65" r="1.9" fill="#67647e"/><circle cx="132.5" cy="374.72" r="1.9" fill="#67647e"/><circle cx="135.65" cy="404.94" r="1.9" fill="#67647e"/><circle cx="137.54" cy="433.33" r="1.9" fill="#67647e"/><circle cx="139.44" cy="463.56" r="1.9" fill="#67647e"/><circle cx="138.68" cy="493.47" r="1.9" fill="#67647e"/><path d="M193.8,493.61s-2.12,27.8-6,35.88-5.64,30.77-5.64,30.77l-9-1a19.65,19.65,0,0,1-2.21-3.6l12.89-72.59,3-106.83,4.65-18.74,1.08-9a.26.26,0,0,1,.12-.05,3.65,3.65,0,0,1,3.22.05l.44.22c-.13.37-.26.75-.38,1.14-3.52,11.05-4.84,31.43-4.84,31.43s5.06,37.27,5.63,54.61S193.8,493.61,193.8,493.61Z" transform="translate(-88.27 -31.08)" opacity="0.1"/><path d="M171.53,554.93a6,6,0,0,1-.34.67c-3.51,5.93-12.41,9.7-15.12,10.73l-.8-1.44,1.88-8.81,9.94-4.05A27.45,27.45,0,0,1,171.53,554.93Z" transform="translate(-88.27 -31.08)" opacity="0.1"/><path d="M147.47,413.06,139.24,418l-7.52,33.37s-9.39,28.32-2.16,48.54S141,531.66,141,531.66s2.89,23,7.22,24.85,6.22,2.89,6.22,2.89l.86,5.49s11.76-4,15.92-11-3.06-24.51-3.06-24.51-6.21-14.88-4.62-21.81-3.18-25.14-3.18-25.57-.43-10.12,3-17.56,1.16-10.61,1.16-10.61l-2.17-21.24Z" transform="translate(-88.27 -31.08)" fill="#67647e"/><path d="M291.07,550.44s-21.81,8.24-28.75,1-6.21-41-6.21-41-6.64-62.41-10.84-72.66-2-84.23-2-84.23S240.43,344,238,341.47a2.47,2.47,0,0,0-.52-.43l.85.18,3,.65,4.59,3.68,14.74,95.14s25.56,73.26,30.3,102.83Z" transform="translate(-88.27 -31.08)" opacity="0.1"/><path d="M316.21,552.61l-.25,0c-2.74.35-27,3.28-27.09-1.76a15.56,15.56,0,0,1,.1-1.75l22.47-2.3,4.45,4.58h0c.08.3.15.56.21.76Z" transform="translate(-88.27 -31.08)" opacity="0.1"/><path d="M293,379.63l15.95,8.31s13.23,34.36,15.4,49.1c0,0,9.82,39.47,3,55.7s-6.21,48.46-6.21,48.46-3.9,5.92-5.49,4.33.58,6.21.58,6.21S289,555.36,288.87,550s6.25-30.92,6.25-30.92,1.73-60.82-.73-70.35S293,379.63,293,379.63Z" transform="translate(-88.27 -31.08)" fill="#67647e"/><path d="M245.42,444.41s-9,21.95-11.85,23.4.58,7.22.58,7.22S250.48,452.21,245.42,444.41Z" transform="translate(-88.27 -31.08)" opacity="0.1"/><path d="M240.08,367.4c.1-.42-10.7,10.59-13.58,12.23S237,379.54,240.08,367.4Z" transform="translate(-88.27 -31.08)" opacity="0.1"/><path d="M210,442.67s-16.47,10.66-14.31,14.86S210,442.67,210,442.67Z" transform="translate(-88.27 -31.08)" opacity="0.1"/><path d="M239.93,598.12s14,9,35.83,11.27Z" transform="translate(-88.27 -31.08)" opacity="0.1"/><path d="M206.27,619.79s13,16.32,18.93,16.76S206.27,619.79,206.27,619.79Z" transform="translate(-88.27 -31.08)" opacity="0.1"/><path d="M224.47,683.79c-.58.29-7.37,14.73-14.3,15.17S224.47,683.79,224.47,683.79Z" transform="translate(-88.27 -31.08)" opacity="0.1"/><path d="M284.72,715.42s12.88-2.88,15.74,6.36C300.46,721.78,299.6,718.89,284.72,715.42Z" transform="translate(-88.27 -31.08)" opacity="0.1"/><path d="M276.05,768.3s15.6-3.18,18.92,1.16S276.05,768.3,276.05,768.3Z" transform="translate(-88.27 -31.08)" opacity="0.1"/><path d="M231.89,775.67c0,.14-15.89,3.18-15.26,5.2s16.94,1.73,17.52-1.45A3,3,0,0,0,231.89,775.67Z" transform="translate(-88.27 -31.08)" opacity="0.1"/><path d="M270.85,789.39s26.1-3.18,24.46,2.31S270.85,789.39,270.85,789.39Z" transform="translate(-88.27 -31.08)" opacity="0.1"/><path d="M134.18,467.81c.15.43,17.19,2.74,19.5,8.23,0,0-16.75-7.8-19.35-7.8" transform="translate(-88.27 -31.08)" opacity="0.1"/><path d="M158.16,512.45S144,516.93,145,523.72,143.57,520.55,158.16,512.45Z" transform="translate(-88.27 -31.08)" opacity="0.1"/><path d="M151.56,546.83s5.16-7.08,10.07-5.78S151.56,546.83,151.56,546.83Z" transform="translate(-88.27 -31.08)" opacity="0.1"/><path d="M232.43,280.14a8.26,8.26,0,0,1-1.66,1.24c-4.11,2.38-5.21,6-7.18,10.27-1.8,3.87-3.79,8-7.44,10.16-4.7,2.83-10.9,1.79-15.79,4.27a12.31,12.31,0,0,0-6.54,12.08,35.56,35.56,0,0,0,1.4,5.53,39.91,39.91,0,0,1,1.49,12,1.55,1.55,0,0,1,0,.37,33.38,33.38,0,1,1,35.76-55.93Z" transform="translate(-88.27 -31.08)" opacity="0.1"/><path d="M231.56,270.1c-3.67-7.71-11.64-12.58-19.84-15-6.26-1.81-13.05-2.4-19.26-.41-3.54,1.13-6.77,3-10.08,4.72-6.19,3.13-13,5.6-17.65,10.74-1.08,1.19-2.08,2.73-1.76,4.31.24,1.18,1.16,2.08,1.75,3.13,1.33,2.34,1,5.29.09,7.84s-2.24,4.93-2.88,7.55-.39,5.69,1.55,7.56a35.12,35.12,0,0,0,2.92,2.08,15.73,15.73,0,0,1,2.77,3.15l5.51,7.53a76,76,0,0,1,6.9,10.62c1.38,2.73,2.44,5.65,4.27,8.09s4.7,4.4,7.74,4.13a1.47,1.47,0,0,0,1.22-.58,1.53,1.53,0,0,0,.16-.77,39.36,39.36,0,0,0-1.49-12,35.56,35.56,0,0,1-1.4-5.53,12.32,12.32,0,0,1,6.54-12.08c4.9-2.47,11.1-1.43,15.8-4.26,3.65-2.21,5.64-6.3,7.44-10.17,2-4.23,3.07-7.89,7.18-10.27S233.59,274.15,231.56,270.1Z" transform="translate(-88.27 -31.08)" fill="#585268"/><path d="M216.61,815.58s5.08,6.5,3.78,10.18S216.61,815.58,216.61,815.58Z" transform="translate(-88.27 -31.08)" opacity="0.1"/><path d="M285.68,831.83s1.13-8.72,5.68-8.8,4.77-.47,8.24.86,6.72,3.41,5.69,3.73-6-5-11-2.29A36.44,36.44,0,0,0,285.68,831.83Z" transform="translate(-88.27 -31.08)" opacity="0.1"/><path d="M201.38,369.23l14.24-10s-20.91-12.36-23.4-10.62-4.2,17.34-4.2,17.34Z" transform="translate(-88.27 -31.08)" opacity="0.1"/><path d="M201.32,368.58l14.3-10.24s-20.91-12.35-23.4-10.62-4.2,18.21-4.2,18.21Z" transform="translate(-88.27 -31.08)" fill="#e1e7ef"/><path d="M201.32,368.58l14.3-10.24s-20.91-12.35-23.4-10.62-4.2,18.21-4.2,18.21Z" transform="translate(-88.27 -31.08)" opacity="0.03"/><path d="M194.58,347.84l-.43-.22a3.69,3.69,0,0,0-4,.42l-42.88,34.79s-9.32,12.89-8,35.14l25.28,35.83s2.89-12.14,6.36-9.83c0,0,4.91,62.12,0,71.08s-7.08,42.47-7.08,42.47l16.61,1.88s1.73-22.68,5.63-30.77,6-35.89,6-35.89S195.58,452.35,195,435s-5.63-54.6-5.63-54.6S190.78,358.56,194.58,347.84Z" transform="translate(-88.27 -31.08)" fill="#67647e"/><path d="M237.29,362.89l-17.81-6.6s22.69-24.84,25.51-11.06Z" transform="translate(-88.27 -31.08)" opacity="0.1"/><path d="M237.29,362l-17.81-6.59s22.69-24.85,25.51-11.07Z" transform="translate(-88.27 -31.08)" fill="#e1e7ef"/><path d="M237.29,362l-17.81-6.59s22.69-24.85,25.51-11.07Z" transform="translate(-88.27 -31.08)" opacity="0.03"/><path d="M236.72,340.89a1,1,0,0,1,.73.15Z" transform="translate(-88.27 -31.08)" opacity="0.1"/><path d="M238.45,339.15l47.28,10.2s13,2.89,22.39,35.53-12.86,72.65-12.86,72.65l-4.91-4.17,2.46,95.35s-21.82,8.23-28.75,1-6.22-41-6.22-41S251.2,446.28,247,436s-2-84.23-2-84.23S241.09,338.58,238.45,339.15Z" transform="translate(-88.27 -31.08)" fill="#67647e"/><path d="M281.68,399.91c-.67.62-1.44,29.47,1.45,51.43a280.14,280.14,0,0,0,8.19,39.58l-4.29-88S283.7,398,281.68,399.91Z" transform="translate(-88.27 -31.08)" opacity="0.1"/><path d="M275.9,375.06c1.16.72,6.22,12.71,3.9,17.63S275.9,375.06,275.9,375.06Z" transform="translate(-88.27 -31.08)" opacity="0.1"/><path d="M231.28,270.1a26,26,0,0,0-10.39-10.88,24.67,24.67,0,0,1,7.79,9.15c2,4.05,1.44,8.11-2.53,10.41s-5.21,6-7.17,10.27c-1.8,3.87-3.8,8-7.45,10.16-4.7,2.84-10.89,1.8-15.79,4.26a12.33,12.33,0,0,0-6.54,12.09,34.47,34.47,0,0,0,1.4,5.53,39.27,39.27,0,0,1,1.48,12,1.54,1.54,0,0,1-.15.77,1.47,1.47,0,0,1-1.22.58,7,7,0,0,1-3.56-.66,8.29,8.29,0,0,0,6.16,2.39,1.47,1.47,0,0,0,1.22-.58,1.64,1.64,0,0,0,.16-.77,39.67,39.67,0,0,0-1.49-12,34.47,34.47,0,0,1-1.4-5.53,12.32,12.32,0,0,1,6.54-12.08c4.9-2.47,11.09-1.43,15.79-4.26,3.65-2.21,5.65-6.3,7.45-10.17,2-4.23,3.06-7.89,7.17-10.27S233.3,274.15,231.28,270.1Z" transform="translate(-88.27 -31.08)" opacity="0.1"/><ellipse cx="968.23" cy="761.73" rx="41" ry="5.63" fill="#2f70ff" opacity="0.1"/><ellipse cx="646.82" cy="814.56" rx="29.14" ry="4" fill="#2f70ff" opacity="0.1"/><ellipse cx="386.08" cy="784.91" rx="29.14" ry="4" fill="#2f70ff" opacity="0.1"/><path d="M490.4,806.89a11.64,11.64,0,0,0,3.83-5.79c.5-2.29-.48-5.05-2.68-5.89-2.46-.94-5.09.77-7.08,2.49s-4.28,3.69-6.88,3.32a10.5,10.5,0,0,0,3.24-9.81,4.21,4.21,0,0,0-.9-2c-1.37-1.46-3.85-.83-5.48.32-5.2,3.65-6.65,10.72-6.68,17.07-.52-2.29-.08-4.68-.1-7s-.65-5-2.64-6.22a8,8,0,0,0-4-1c-2.33-.09-4.94.15-6.53,1.86-2,2.12-1.47,5.68.25,8s4.35,3.81,6.77,5.42a15,15,0,0,1,4.83,4.61,4.16,4.16,0,0,1,.36.83h14.66A41.24,41.24,0,0,0,490.4,806.89Z" transform="translate(-88.27 -31.08)" fill="#2f70ff"/><path d="M1073.13,785.79A11.71,11.71,0,0,0,1077,780c.5-2.29-.48-5-2.68-5.89-2.46-.94-5.09.77-7.08,2.49s-4.28,3.69-6.89,3.32a10.45,10.45,0,0,0,3.24-9.81,4,4,0,0,0-.9-2c-1.36-1.46-3.84-.83-5.47.32-5.2,3.65-6.65,10.72-6.68,17.07-.53-2.29-.08-4.68-.1-7s-.66-5-2.64-6.22a8,8,0,0,0-4-1c-2.34-.09-4.94.15-6.54,1.86-2,2.12-1.47,5.68.26,8s4.35,3.81,6.77,5.42a15,15,0,0,1,4.83,4.61,4.83,4.83,0,0,1,.36.83h14.65A41.06,41.06,0,0,0,1073.13,785.79Z" transform="translate(-88.27 -31.08)" fill="#2f70ff"/><path d="M743,832.54a11.73,11.73,0,0,0,3.84-5.79c.49-2.3-.49-5-2.68-5.89-2.46-.94-5.09.76-7.08,2.49s-4.28,3.68-6.89,3.32a10.47,10.47,0,0,0,3.24-9.81,4.11,4.11,0,0,0-.9-2c-1.37-1.46-3.84-.83-5.48.32-5.2,3.66-6.65,10.72-6.68,17.08-.52-2.29-.08-4.68-.09-7s-.66-5-2.64-6.22a8.07,8.07,0,0,0-4-1c-2.34-.08-4.94.15-6.54,1.86-2,2.13-1.47,5.69.26,8s4.35,3.8,6.76,5.42A15,15,0,0,1,719,838a5.08,5.08,0,0,1,.36.82H734A40.73,40.73,0,0,0,743,832.54Z" transform="translate(-88.27 -31.08)" fill="#2f70ff"/><path d="M1036.86,376.24c-13.12-.26-24.7-9.56-31.26-20.84a21,21,0,0,1-3.16-8.92,10.52,10.52,0,0,1,.36-2.14,21,21,0,0,0,1-3.26,5.46,5.46,0,0,0,0-1.34s0,0,0-.06c.32-2.42-1.1-4.75-2.88-6.42s-3.95-2.88-5.78-4.49c-5.64-4.95-7.35-12.89-7.46-20.45,0-.13,0-.26,0-.4.06-3.23.32-6.48.29-9.72a40.57,40.57,0,0,0-.24-5.51c-.54-4.58-2.28-9.24-5.88-12.16-9.39-7.61-25.18.31-34.89-6.89-2.37-1.75-4.28-4.36-7.14-5-2.17-.52-4.42.18-6.53.88-7.16,2.36-15.14,5.47-17.94,12.43-1.6,4-1.15,8.49-2.62,12.51-1,2.69-2.77,5-4.09,7.56a11.83,11.83,0,0,0-1.53,6.31,7.26,7.26,0,0,0,.47,3.36A8.46,8.46,0,0,0,909.9,315a11,11,0,0,1-1.4,2.22c-1.83,2.24-4.64,3.84-6.54,6-3.52,4.08-3.39,9.63-1.65,14.43s4.86,9.17,7,13.84c.93,2,1.68,4.3.71,6.32-.67,1.4-2.07,2.46-3.16,3.67A11.56,11.56,0,0,0,902,367.9C880.57,372.79,880.56,390,880.56,390h0L869,419.14s-1.85,4.9-4,11.37l-13.7-2.45L860.76,444c-1.81,6.49-3.08,12.51-2.66,15.53,0,0-4.25,20,3.31,23.49l16.7,7.51a9.21,9.21,0,0,0,2.31,1l.68.3a1.77,1.77,0,0,0,1.56,0h.09l.18,0a2.12,2.12,0,0,0,1-.14,1.8,1.8,0,0,0,.83-.91.36.36,0,0,0,0-.09l5-1.45,4.24,5c1.91,1.34,3.78,2.51,5.61,3.56L893.09,563s-1.06,86.66-4.25,106.39c-1.19,7.31-1.2,12.29-.75,15.68l-.12.22c.79,5.57,2.84,6.67,2.84,6.67l0-.08.12.08a56.55,56.55,0,0,1,3.43-7.35c0,.46,0,.93,0,1.42-.06,7.36-.29,17.65-1,24.34-1.3,11.38,3.31,49.08,3.31,49.08l1.59,34.3a31.72,31.72,0,0,1-3.9,16.7c-3.77,6.85-8.68,16.48-9,20.75a5.57,5.57,0,0,0,0,.7h0L877,841.63s-3.2,4.93,4,6.92c3.87,1.08,10.56,0,15.92-1.27a10.64,10.64,0,0,0,8.26-10.35A36.61,36.61,0,0,1,912,824l1.35,7.89,9,2.23,1.15-21.63a9.47,9.47,0,0,0,.62-3.82v0c1.77-15.38-4.17-14-4.17-14a1,1,0,0,1,.29.54c-.1-.17-.2-.35-.29-.53h0c-3.65-7.2-1.86-19-1.86-19s4.73-34.28,6.39-43.33c1.17-6.39.69-27.33.3-39.06,0-.49,0-1-.05-1.41,13.93-.18,31-.66,43-1.82l0,1.42-2.22,81a44.53,44.53,0,0,1-3.09,15.06c0,.09-.08.18-.11.27A65.71,65.71,0,0,0,957.83,809l-1,25.74,0,.71h0c-1.79.69-4.61,2.68-4.69,8.45-.12,8.45,14.77,5.63,14.77,5.63,14.89,0,15-15.5,15-15.5s.48-14.21,1.18-23.72-2.24-7.41-2.24-7.41l-.22,27c0,.07,0,.14,0,.21V806.4l.23-3.44v-.1h0l.05-.73,1.85-27.9s13.71-46.5,15.84-55.42c1.51-6.33.88-25.43.38-36,0-.49,0-.95-.06-1.4,4.24-.38,8-.42,9.51-.42h.69s-.71-74.68-2.48-102.86-4.61-53.9-11.71-61.65c-4.28-4.68-10.25-19.14-14.31-29.85a150.17,150.17,0,0,0,26.25,8.6c22.46,4.7,19.39-14.8,19.39-14.8l-2.28-36.87h.15a187.27,187.27,0,0,0-2.48-28.83c-1.18-7.31-3-14.87-5.78-21,2.44-.93,4.84-2,7.2-3,6.1-2.69,13-6.51,13.86-13.09h-.3A9.16,9.16,0,0,0,1036.86,376.24ZM897.64,429.58h0c.06,3.81-.09,10.41-.31,17.72l-7.13-9.52,7.15-11.6Zm95.56,19.31Zm3,14.4-11.88-3.82a53.63,53.63,0,0,1,7.34-9.08l1-1-.37.08.58-.52.34-.08-.55.52.65-.13a20.31,20.31,0,0,0,4.05,8.14C1001.6,462.12,996.16,463.29,996.16,463.29Z" transform="translate(-88.27 -31.08)" fill="url(#50322635-8468-40c0-ae64-fb7d227631e5)"/><polygon points="835.72 774.95 834.32 801.29 825.46 799.08 823.59 788.12 835.72 774.95" fill="#a27772"/><polygon points="835.72 774.95 834.32 801.29 825.46 799.08 823.59 788.12 835.72 774.95" opacity="0.1"/><path d="M956.51,835.87l13.52,2.8,10-8.86V804.86l.22-3.41v-.1h0l.05-.72,1.82-27.7s13.52-46.17,15.62-55c1.49-6.29.87-25.26.38-35.74-.2-4.3-.38-7.17-.38-7.17l-29.84-7.23-.63,23-2.18,80.4a44.36,44.36,0,0,1-3.06,14.95l-.1.27a65.28,65.28,0,0,0-4.33,21.07l-1,25.55,0,.71Z" transform="translate(-88.27 -31.08)" fill="#cc818c"/><path d="M980.29,800.64v.71h0l.05-.72Z" transform="translate(-88.27 -31.08)" opacity="0.1"/><path d="M956.51,835.87l13.52,2.8,10-8.86v-2.12a2.84,2.84,0,0,1-1.44,2.29l-.14.08a26.89,26.89,0,0,1-15.18,3l-5.28-.45a5.53,5.53,0,0,0-1.39.34l0,.71Z" transform="translate(-88.27 -31.08)" opacity="0.1"/><path d="M978.48,830.76l.14-.08a2.83,2.83,0,0,0,1.45-2.48l.22-26.86s2.92-2.07,2.22,7.37-1.17,23.55-1.17,23.55-.11,15.39-14.8,15.39c0,0-14.69,2.79-14.58-5.6s6.07-8.74,6.07-8.74l5.27.46A27,27,0,0,0,978.48,830.76Z" transform="translate(-88.27 -31.08)" fill="#b07473"/><path d="M886.1,830.16c.35,6.06,18.18,2.56,18.18,2.56l12-23.31s10-7.7,5-14.46a10.28,10.28,0,0,1-.74-1.15l0-.06h0c-.11-.18-.2-.36-.3-.55h0c-3.6-7.14-1.83-18.85-1.83-18.85s4.66-34,6.3-43c1.15-6.35.68-27.14.29-38.78-.15-4.83-.29-8.09-.29-8.09l-29.62-7.92s0,3.69,0,8.83c-.06,7.3-.28,17.52-1,24.16-1.28,11.31,3.27,48.73,3.27,48.73l1.57,34.06A31.6,31.6,0,0,1,895,808.86c-3.72,6.8-8.56,16.37-8.9,20.61A4,4,0,0,0,886.1,830.16Z" transform="translate(-88.27 -31.08)" fill="#cc818c"/><path d="M886.1,830.16c.35,6.06,18.18,2.56,18.18,2.56l12-23.31s10-7.7,5-14.46a10.28,10.28,0,0,1-.74-1.15c-.16,3.53-4,12.34-4,12.34s-9.91,19.83-13,24.37-16.85-.84-17.36-1A4,4,0,0,0,886.1,830.16Z" transform="translate(-88.27 -31.08)" opacity="0.1"/><path d="M920.22,793.17s5.86-1.36,4.12,13.91v0a9.85,9.85,0,0,1-4.65,8.73c-4.19,2.64-10.67,8.31-13.94,19.34h0a10.56,10.56,0,0,1-8.14,10.29c-5.29,1.23-11.89,2.32-15.71,1.25-7.11-2-4-6.87-4-6.87l8.16-9.68s14.22,5.6,17.37,1.05,13-24.37,13-24.37S922,794.45,920.22,793.17Z" transform="translate(-88.27 -31.08)" fill="#b07473"/><path d="M967.94,670.56l-.63,23c8-.77,13.64-1.85,14.62-3.36,2.09-3.25,9.73-4.63,16.23-5.19-.2-4.3-.38-7.17-.38-7.17Z" transform="translate(-88.27 -31.08)" opacity="0.1"/><path d="M895.06,688.14a11.07,11.07,0,0,1,3.27-3.94c3.15-1.75,2.81,11.19,2.81,11.19s10.45.1,23.84-.07c-.15-4.84-.29-8.09-.29-8.09l-29.62-7.92S895.11,683,895.06,688.14Z" transform="translate(-88.27 -31.08)" opacity="0.1"/><path d="M891.69,691.22s3.5-9.47,6.64-11.21,2.81,11.19,2.81,11.19,76.94.7,80.79-5.25,26.23-5.59,26.23-5.59-.7-74.15-2.45-102.13-4.55-53.51-11.54-61.2c-4.53-5-11-21.09-14.94-31.83-2.17-5.87-3.6-10.14-3.6-10.14l-73.44,4.2-.6,5.94-7.8,78s-1,86-4.2,105.62S891.69,691.22,891.69,691.22Z" transform="translate(-88.27 -31.08)" fill="#444053"/><g opacity="0.1"><path d="M976,686c3.84-5.94,26.23-5.59,26.23-5.59s-.7-74.15-2.45-102.13-4.55-53.51-11.54-61.2c-4.53-5-11-21.09-14.94-31.83-1.82-4.93-3.12-8.73-3.49-9.82l5.7-.32s1.43,4.27,3.6,10.14c4,10.74,10.41,26.85,14.94,31.83,7,7.69,9.79,33.22,11.54,61.2S1008,680.36,1008,680.36,985.62,680,981.78,686c-3.29,5.08-59.91,5.31-76.35,5.27C926.51,691.17,973,690.54,976,686Z" transform="translate(-88.27 -31.08)"/><path d="M892.37,680c1.42-.79,2.13,1.4,2.48,4a56.63,56.63,0,0,0-3.31,7.16s-2-1.09-2.8-6.62C889.85,682.57,891.14,680.69,892.37,680Z" transform="translate(-88.27 -31.08)"/></g><path d="M914.38,295.66c-5.08,6.94.06,16.79-5.39,23.53-1.8,2.23-4.57,3.82-6.45,6-3.48,4.06-3.34,9.56-1.63,14.33s4.8,9.1,6.92,13.74c.92,2,1.66,4.27.71,6.27-.66,1.39-2,2.44-3.12,3.65-3.5,3.91-3.6,9.35-1.72,13.95s5.49,8.59,9,12.47c1.4,1.54,3.17,3.23,5.5,3.19a7.75,7.75,0,0,0,3.46-1.14A36.44,36.44,0,0,0,939.23,371a36.83,36.83,0,0,0-1.5-25.35c-3-7.07-7.88-13.85-7.92-21.33,0-5.93,3.05-11.59,3.59-17.5.66-7.17-3.59-18.57-12.25-21.7C921.72,289.75,917,292.14,914.38,295.66Z" transform="translate(-88.27 -31.08)" fill="#585268"/><path d="M914.38,295.66c-5.08,6.94.06,16.79-5.39,23.53-1.8,2.23-4.57,3.82-6.45,6-3.48,4.06-3.34,9.56-1.63,14.33s4.8,9.1,6.92,13.74c.92,2,1.66,4.27.71,6.27-.66,1.39-2,2.44-3.12,3.65-3.5,3.91-3.6,9.35-1.72,13.95s5.49,8.59,9,12.47c1.4,1.54,3.17,3.23,5.5,3.19a7.75,7.75,0,0,0,3.46-1.14A36.44,36.44,0,0,0,939.23,371a36.83,36.83,0,0,0-1.5-25.35c-3-7.07-7.88-13.85-7.92-21.33,0-5.93,3.05-11.59,3.59-17.5.66-7.17-3.59-18.57-12.25-21.7C921.72,289.75,917,292.14,914.38,295.66Z" transform="translate(-88.27 -31.08)" opacity="0.1"/><path d="M970.77,547.78c-10.18.54-19.76,4.91-28.67,9.86s-17.53,10.6-27.12,14.08" transform="translate(-88.27 -31.08)" opacity="0.1"/><path d="M964.44,571.76A42.09,42.09,0,0,0,938,584.61c-2.47,2.62-4.6,5.56-7.18,8.07a32,32,0,0,1-14.17,8" transform="translate(-88.27 -31.08)" opacity="0.1"/><path d="M966.53,590a46.21,46.21,0,0,0-21.25,12.81c-1.56,1.68-3,3.49-4.54,5.16-8.43,9-20.33,13.85-31.82,18.39" transform="translate(-88.27 -31.08)" opacity="0.1"/><path d="M965.66,336.91a209.63,209.63,0,0,0,2.1,24.3c.94,5.74,2.28,10.85,4.2,13.12,5.59,6.65-27.28,15.57-27.28,15.57l-19.41-15s15.39-14.17,8.22-28S965.66,336.91,965.66,336.91Z" transform="translate(-88.27 -31.08)" fill="#cc818c"/><path d="M901.59,485.2h77.64c-2.17-5.87-3.6-10.14-3.6-10.14l-73.44,4.2Z" transform="translate(-88.27 -31.08)" opacity="0.1"/><path d="M896.59,483.8h83c-2.33-8.34,0-16.07,3.33-22a48.59,48.59,0,0,1,8.69-11.28l.57-.51,29-6.43,1.56-.34s.23-52.69-18.42-59.92-29.85-17-29.85-17l-25.64,7.92-18.89-9.55c-6.06,6.53-22.15,4-22.15,4-26.35,3-26.35,22.85-26.35,22.85s15.39,35.91,16.56,35.91S896.59,483.8,896.59,483.8Z" transform="translate(-88.27 -31.08)" fill="#67647e"/><path d="M925.25,450.3s-16.93-3.75-22.69-10.31" transform="translate(-88.27 -31.08)" opacity="0.1"/><path d="M1010.6,430.64,991,446.73a32.59,32.59,0,0,0,.65,3.78l.57-.51,29-6.43Z" transform="translate(-88.27 -31.08)" opacity="0.1"/><path d="M957.44,478.21s4.3,2.42,10.88,5.59H979.6c-2.33-8.34,0-16.07,3.33-22L963,455.35C969.8,461.65,957.44,478.21,957.44,478.21Z" transform="translate(-88.27 -31.08)" opacity="0.1"/><path d="M893.09,385.18l-11.66,6.29L870,420.38s-11.89,31.71-10.73,40.11c0,0-4.19,19.81,3.27,23.31L882,492.6a1.8,1.8,0,0,0,2.33-2.49c-2.77-5.25-5.81-13.45-1-18l-5.6-11.65L898,427.38,904.75,416Z" transform="translate(-88.27 -31.08)" fill="#67647e"/><path d="M919,443.68c1,4.12,4.42,10.45,15.7,12.84l12.42,10.14,13.17,6,5.36,2.43,2.28-16.44-5.17-2.83-6-3.29s-13.59-24.64-35.12-14.23A4.77,4.77,0,0,0,919,443.68Z" transform="translate(-88.27 -31.08)" opacity="0.1"/><path d="M919.71,442.28c1,4.12,4.42,10.45,15.7,12.84l12.42,10.15,13.17,6,5.36,2.43,2.28-16.44-5.17-2.82-6-3.3s-13.59-24.63-35.12-14.23A4.77,4.77,0,0,0,919.71,442.28Z" transform="translate(-88.27 -31.08)" fill="#cc818c"/><circle cx="855.7" cy="297.09" r="30.08" opacity="0.1"/><circle cx="855.7" cy="296.39" r="30.08" fill="#cc818c"/><path d="M962.6,391.73l-9-17.58s13.24-5.34,14.2-11.54,12.68,7.26,10.14,11.72S962.6,391.73,962.6,391.73Z" transform="translate(-88.27 -31.08)" opacity="0.1"/><path d="M962.6,390.33l-9-17.58s13.24-5.34,14.2-11.54,12.68,7.27,10.14,11.72S962.6,390.33,962.6,390.33Z" transform="translate(-88.27 -31.08)" fill="#67647e"/><path d="M888.59,435.73l50,67.19s-18.42,10-43.84-7.93l-11-13.05-31.25-52.7Z" transform="translate(-88.27 -31.08)" fill="#f6f8fb"/><path d="M878.75,472.26l4.55-.12s27.8-27,34.62-13.34-17.31,26.4-17.31,26.4l-7.34,4-9.62,2.8-6.12-8.22Z" transform="translate(-88.27 -31.08)" fill="#cc818c"/><path d="M885.46,486.84c.42,1.55.82,3.26.12,4.7a1.78,1.78,0,0,1-.83.9,2,2,0,0,1-1,.14,9.55,9.55,0,0,1-6.27-3.11,28.28,28.28,0,0,1-4.07-5.88c-1.24-2.15-2.53-4.55-2.08-7,.49-2.68,2.88-4.54,5.16-6,4.61-3.05,4.72.5,5.77,4.42Z" transform="translate(-88.27 -31.08)" opacity="0.1"/><path d="M884.76,486.84c.42,1.55.82,3.26.12,4.7a1.78,1.78,0,0,1-.83.9,2,2,0,0,1-1,.14,9.55,9.55,0,0,1-6.27-3.11,28.28,28.28,0,0,1-4.07-5.88c-1.24-2.15-2.53-4.55-2.08-7,.49-2.68,2.88-4.54,5.16-6,4.61-3.05,4.72.5,5.77,4.42Z" transform="translate(-88.27 -31.08)" fill="#67647e"/><polygon points="809.72 396.3 812.05 392.37 810.01 399.67 809.72 396.3" opacity="0.1"/><path d="M961,471.23l5.36,2.43,2.28-16.44-5.17-2.82C967,458.46,963.91,466,961,471.23Z" transform="translate(-88.27 -31.08)" opacity="0.1"/><path d="M982.51,452.15s-17.31,1.05-24.65-3.67" transform="translate(-88.27 -31.08)" opacity="0.1"/><g opacity="0.1"><path d="M980.36,463.19a48.83,48.83,0,0,1,8.7-11.28,24,24,0,0,1,2.56-1.4l27-5.54,1.56-.34s.24-52.69-18.42-59.92a112.66,112.66,0,0,1-29.09-16.39l2.05-.63s11.19,9.79,29.84,17S1023,444.63,1023,444.63h-2.8l-27.64,5.29L991,451.41a53.33,53.33,0,0,0-8.83,11.67,29.29,29.29,0,0,0-2.31,22.12H977C974.7,476.86,977.07,469.13,980.36,463.19Z" transform="translate(-88.27 -31.08)"/><path d="M906.67,370.2c.45-.06.88-.13,1.34-.18a49.24,49.24,0,0,0,5.71.47A51.47,51.47,0,0,1,906.67,370.2Z" transform="translate(-88.27 -31.08)"/><path d="M946.25,375.61,929.17,367a9.55,9.55,0,0,0,1-.91l17.82,9Z" transform="translate(-88.27 -31.08)"/></g><path d="M1011.3,429.24l11.43,14,2.33,38s3,19.35-19.12,14.69-47.8-19.12-47.8-19.12,12.36-16.56,5.6-22.85l31.71,10.26s5.36-1.17,1.16-5.83-4.94-13.06-4.94-13.06Z" transform="translate(-88.27 -31.08)" fill="#67647e"/><path d="M1016.43,469.35l6.3,7.22A9.07,9.07,0,0,1,1016.43,469.35Z" transform="translate(-88.27 -31.08)" opacity="0.1"/><polygon points="917.44 437.1 927.23 449.69 922.34 450.86 917.44 437.1" opacity="0.1"/><path d="M908.06,313.66c-1.08-2.63-.26-5.67,1-8.2s3.07-4.83,4-7.51c1.45-4,1-8.48,2.58-12.42,2.77-6.9,10.64-10,17.7-12.33,2.08-.69,4.3-1.39,6.44-.88,2.82.68,4.71,3.27,7,5,9.58,7.14,25.15-.72,34.41,6.84,3.55,2.89,5.27,7.53,5.8,12.07s0,9.15-.05,13.73c-.15,8,1.34,16.78,7.35,22.09,1.81,1.6,3.94,2.81,5.7,4.46s3.15,4,2.84,6.37a21.7,21.7,0,0,1-1,3.23c-1.2,4.18.58,8.61,2.75,12.38,6.48,11.2,17.89,20.43,30.84,20.69-.87,6.53-7.65,10.32-13.67,13-7.67,3.41-15.73,6.76-24.11,6.33s-17.12-5.79-18.61-14c-.51-2.83-.44-6.3-2.9-7.79-1.48-.9-3.4-.67-5-1.35-2.31-1-3.46-3.54-4.22-5.94a53.59,53.59,0,0,1-2.49-15.24c-.1-6.13.72-12.82-2.76-17.87-3.22-4.67-8.94-7-12.65-11.34-3.42-4-7.15-8.78-12.76-9.54C928.71,314.35,912.65,324.9,908.06,313.66Z" transform="translate(-88.27 -31.08)" opacity="0.1"/><path d="M908.06,312.26c-1.08-2.63-.26-5.67,1-8.2s3.07-4.83,4-7.51c1.45-4,1-8.48,2.58-12.42,2.77-6.9,10.64-10,17.7-12.33,2.08-.69,4.3-1.39,6.44-.88,2.82.68,4.71,3.27,7,5,9.58,7.15,25.15-.72,34.41,6.84,3.55,2.9,5.27,7.53,5.8,12.07s0,9.15-.05,13.73c-.15,8,1.34,16.78,7.35,22.09,1.81,1.6,3.94,2.81,5.7,4.46s3.15,4,2.84,6.37a22.18,22.18,0,0,1-1,3.24c-1.2,4.17.58,8.61,2.75,12.37,6.48,11.2,17.89,20.43,30.84,20.69-.87,6.53-7.65,10.32-13.67,13-7.67,3.42-15.73,6.76-24.11,6.33s-17.12-5.79-18.61-14.05c-.51-2.83-.44-6.3-2.9-7.79-1.48-.9-3.4-.67-5-1.35-2.31-1-3.46-3.54-4.22-5.94a53.59,53.59,0,0,1-2.49-15.24c-.1-6.13.72-12.82-2.76-17.87-3.22-4.67-8.94-7-12.65-11.34-3.42-4-7.15-8.78-12.76-9.54C928.71,313,912.65,323.5,908.06,312.26Z" transform="translate(-88.27 -31.08)" fill="#585268"/><path d="M929.38,389.55l17.24-14s-11.8-6.4-13.21-11.86-10.85,2.59-9.89,7.49S929.38,389.55,929.38,389.55Z" transform="translate(-88.27 -31.08)" opacity="0.1"/><path d="M930.08,387.45l17.24-14s-11.8-6.4-13.21-11.86-10.85,2.59-9.89,7.49S930.08,387.45,930.08,387.45Z" transform="translate(-88.27 -31.08)" fill="#67647e"/><circle cx="859.72" cy="354.09" r="1.37" opacity="0.1"/><circle cx="859.72" cy="361.71" r="1.37" opacity="0.1"/><circle cx="859.72" cy="369.32" r="1.37" opacity="0.1"/><g opacity="0.1"><path d="M915,292.83c1.36-3.75,1.07-7.95,2.34-11.72a13.56,13.56,0,0,0-1.45,2.68c-1.58,3.94-1.14,8.44-2.58,12.43,0,.07-.07.15-.1.23A22.14,22.14,0,0,0,915,292.83Z" transform="translate(-88.27 -31.08)"/><path d="M1023.79,387.06c-7.67,3.42-15.73,6.76-24.12,6.33s-17.11-5.79-18.6-14.05c-.51-2.83-.44-6.3-2.9-7.79-1.48-.9-3.4-.67-5-1.35-2.32-1-3.46-3.54-4.22-5.94A53.59,53.59,0,0,1,966.46,349c-.1-6.13.71-12.82-2.76-17.87-3.22-4.67-8.94-7-12.65-11.34-3.43-4-7.15-8.78-12.77-9.54-7.7-1-23.77,9.5-28.35-1.74a8.83,8.83,0,0,1,.29-6.5c-.33.56-.65,1.12-.94,1.69-1.3,2.53-2.12,5.57-1,8.2,4.59,11.24,20.65.69,28.36,1.74,5.61.76,9.34,5.57,12.77,9.54,3.71,4.3,9.42,6.67,12.64,11.35,3.48,5,2.67,11.74,2.77,17.86a53.35,53.35,0,0,0,2.48,15.25c.76,2.39,1.91,5,4.22,5.94,1.6.67,3.52.45,5,1.35,2.45,1.48,2.39,5,2.89,7.78,1.49,8.26,10.23,13.63,18.61,14.06s16.45-2.92,24.11-6.34c5.52-2.45,11.67-5.86,13.32-11.44C1032.77,382.66,1028.09,385.15,1023.79,387.06Z" transform="translate(-88.27 -31.08)"/></g></svg>