<?xml version="1.0" standalone="no"?>
<!DOCTYPE svg PUBLIC "-//W3C//DTD SVG 1.1//EN" "http://www.w3.org/Graphics/SVG/1.1/DTD/svg11.dtd">
<svg xmlns="http://www.w3.org/2000/svg">
<metadata>Generated by Fontastic.me</metadata>
<defs>
<font id="booklab" horiz-adv-x="512">
<font-face font-family="booklab" units-per-em="512" ascent="480" descent="-32"/>
<missing-glyph horiz-adv-x="512" />

<glyph glyph-name="activity-feed" unicode="&#97;" d="M80 432l0-352 352 0 0 352z m32-32l288 0 0-288-288 0z m48-48l0-32 192 0 0 32z m0-80l0-32 192 0 0 32z m0-80l0-32 192 0 0 32z"/>
<glyph glyph-name="activity-history" unicode="&#98;" d="M80 458l0-314c0-1 0-2 0-3 0-2 0-3 0-5 0-19 5-36 15-49 9-13 24-23 41-23 0 0 0 0 1 0 0 0 1 0 1 0l271 0c1 0 2 0 3 0 0 0 0 0 0 0 15 2 28 11 37 23 9 13 15 30 15 49 0 19-6 36-15 49-5 6-11 11-17 15l0 258-79-40-49 33-48-32-48 32-49-33z m128-45l48-32 48 32 47-31 49 24 0-198-265 0 0 0c-8 0-16-3-23-7l0 205 49-24z m-64-61l0-32 80 0 0 32z m112 0l0-32 112 0 0 32z m48-64l-80 0 0-32 80 0z m-160 0l0-32 48 0 0 32z m192 0l0-32 32 0 0 32z m-200-112c5 0 10-3 15-10 5-7 9-18 9-30 0-12-4-23-9-30-5-7-10-10-15-10-5 0-10 3-15 10-5 7-9 18-9 30 0 12 4 23 9 30 5 7 10 10 15 10z m47 0l223 0c6 0 12-3 17-10 5-7 9-18 9-30 0-12-4-23-9-30-5-7-11-10-17-10l-223 0c6 12 9 25 9 40 0 15-3 28-9 40z"/>
<glyph glyph-name="add" unicode="&#99;" d="M256 464c-115 0-208-93-208-208 0-115 93-208 208-208 115 0 208 93 208 208 0 115-93 208-208 208z m0-32c97 0 176-79 176-176 0-97-79-176-176-176-97 0-176 79-176 176 0 97 79 176 176 176z m-16-96l0-64-64 0 0-32 64 0 0-64 32 0 0 64 64 0 0 32-64 0 0 64z"/>
<glyph glyph-name="add-camera" unicode="&#100;" d="M184 432l-5-7-19-25-112 0 0-288 177 0c0 5-1 11-1 16 0 5 1 11 1 16l-145 0 0 224 96 0 5 6 19 26 112 0 19-26 5-6 96 0 0-88c11-3 22-8 32-14l0 134-112 0-19 25-5 7z m-56-80c-9 0-16-7-16-16 0-9 7-16 16-16 9 0 16 7 16 16 0 9-7 16-16 16z m128 0c-53 0-96-43-96-96 0-43 29-80 69-92 2 11 5 21 10 30-27 8-47 33-47 62 0 35 29 64 64 64 29 0 54-20 62-47 9 5 19 8 30 10-12 40-49 69-92 69z m128-96c-70 0-128-58-128-128 0-71 58-128 128-128 71 0 128 57 128 128 0 70-57 128-128 128z m0-32c53 0 96-43 96-96 0-53-43-96-96-96-53 0-96 43-96 96 0 53 43 96 96 96z m-16-32l0-48-48 0 0-32 48 0 0-48 32 0 0 48 48 0 0 32-48 0 0 48z"/>
<glyph glyph-name="add-file" unicode="&#101;" d="M48 480l0-416 189 0c23-29 59-48 99-48 71 0 128 57 128 128 0 59-41 109-96 123l0 107-4 5-96 96-5 5z m32-32l160 0 0-96 96 0 0-80c-70 0-128-58-128-128 0-17 3-33 10-48l-138 0z m192-23l41-41-41 0z m64-185c53 0 96-43 96-96 0-53-43-96-96-96-53 0-96 43-96 96 0 53 43 96 96 96z m-16-32l0-48-48 0 0-32 48 0 0-48 32 0 0 48 48 0 0 32-48 0 0 48z"/>
<glyph glyph-name="add-link" unicode="&#102;" d="M316 480c-27 0-52-11-71-30l-23-23c-19-19-30-44-30-71 0-13 2-25 7-37l26 26c-3 21 3 44 19 59l24 24c12 13 30 20 48 20 18 0 35-7 48-20 27-27 27-70 0-97l-11-11c13 0 26-2 39-5 16 18 24 41 24 65 0 27-11 52-29 70-19 19-44 30-71 30z m-39-117l-128-128 23-23 128 128z m-121-43c-27 0-52-11-71-30l-23-23c-19-19-30-44-30-71 0-27 11-52 30-71 18-18 43-29 70-29 24 0 47 8 65 24-3 13-5 26-5 39l-11-11c-13-13-31-20-49-20-18 0-35 7-48 20-27 27-27 70 0 96l24 24c12 13 30 20 48 20 4 0 7 0 11-1l26 26c-12 5-24 7-37 7z m196-32c-70 0-128-58-128-128 0-71 58-128 128-128 71 0 128 57 128 128 0 70-57 128-128 128z m0-32c53 0 96-43 96-96 0-53-43-96-96-96-53 0-96 43-96 96 0 53 43 96 96 96z m-16-32l0-48-48 0 0-32 48 0 0-48 32 0 0 48 48 0 0 32-48 0 0 48z"/>
<glyph glyph-name="add-new" unicode="&#103;" d="M80 432l0-352 352 0 0 352z m32-32l288 0 0-288-288 0z m128-64l0-64-64 0 0-32 64 0 0-64 32 0 0 64 64 0 0 32-64 0 0 64z"/>
<glyph glyph-name="add-tag" unicode="&#105;" d="M256 432l-5-5-182-184-11-11 11-12 152-152 11-11 31 31c16-51 64-88 121-88 71 0 128 57 128 128 0 56-36 104-86 121l2 2 4 5 0 176z m14-32l130 0 0-131-13-13c-1 0-2 0-3 0-70 0-128-58-128-128 0-1 0-1 0-2l-24-24-129 130z m82-32c-9 0-16-7-16-16 0-9 7-16 16-16 9 0 16 7 16 16 0 9-7 16-16 16z m32-144c53 0 96-43 96-96 0-53-43-96-96-96-53 0-96 43-96 96 0 53 43 96 96 96z m-16-32l0-48-48 0 0-32 48 0 0-48 32 0 0 48 48 0 0 32-48 0 0 48z"/>
<glyph glyph-name="add-user" unicode="&#106;" d="M192 480c-62 0-112-50-112-112 0-39 20-73 50-93-58-25-98-81-98-147l32 0c0 71 57 128 128 128 22 0 43-6 61-16-18-22-29-50-29-80 0-71 58-128 128-128 71 0 128 57 128 128 0 70-57 128-128 128-28 0-54-9-75-25-7 5-15 9-22 12 29 20 49 54 49 93 0 62-50 112-112 112z m0-32c44 0 80-36 80-80 0-44-36-80-80-80-44 0-80 36-80 80 0 44 36 80 80 80z m160-192c53 0 96-43 96-96 0-53-43-96-96-96-53 0-96 43-96 96 0 53 43 96 96 96z m-16-32l0-48-48 0 0-32 48 0 0-48 32 0 0 48 48 0 0 32-48 0 0 48z"/>
<glyph glyph-name="align-left" unicode="&#107;" d="M48 400l0-32 416 0 0 32z m0-64l0-32 288 0 0 32z m0-64l0-32 416 0 0 32z m0-64l0-32 288 0 0 32z m0-64l0-32 416 0 0 32z"/>
<glyph glyph-name="align-right" unicode="&#108;" d="M48 400l0-32 416 0 0 32z m128-64l0-32 288 0 0 32z m-128-64l0-32 416 0 0 32z m128-64l0-32 288 0 0 32z m-128-64l0-32 416 0 0 32z"/>
<glyph glyph-name="api" unicode="&#109;" d="M32 416l0-320 448 0 0 320z m32-32l384 0 0-256-384 0z m100-64l-4-11-31-96-1-3 0-18 32 0 0 14 1 2 31 0 0-2 0-14 32 0 0 18-1 3-31 96-3 11z m76 0l0-128 32 0 0 32c26 0 48 22 48 48 0 26-22 48-48 48z m96 0l0-128 32 0 0 128z m-64-32c9 0 16-7 16-16 0-9-7-16-16-16z m-96-33l5-15-10 0z"/>
<glyph glyph-name="approval" unicode="&#110;" d="M256 468l-55-44-58 3-13 1-3-13-14-55-48-32-11-7 5-12 20-53-20-54-5-12 11-7 48-31 14-56 3-12 13 1 58 2 55-44 55 44 58-2 13-1 3 12 15 56 48 31 10 7-4 12-21 54 21 53 4 12-10 7-48 32-15 55-3 13-13-1-58-3z m0-41l40-32 5-4 6 1 51 2 12-48 2-6 5-3 42-28-18-48-2-5 2-6 18-47-42-28-5-4-2-6-12-48-51 3-6 0-5-4-40-32-39 32-5 4-6 0-51-3-13 48-1 6-5 4-43 28 18 47 2 6-2 5-18 48 43 28 5 3 1 6 13 48 51-2 6-1 5 4z m85-112l-101-100-52 52-23-23 64-64 11-11 12 11 112 112z"/>
<glyph glyph-name="archive" unicode="&#111;" d="M96 464l0-416 192 0 0-48 224 0 0 224-96 0 0 240z m32-32l112 0 0-16 32 0 0 16 112 0 0-208-22 0-5-5-64-64-5-5 0-70-160 0z m112-32l0-32 32 0 0 32z m0-48l0-32 32 0 0 32z m0-48l0-35c-18-7-32-24-32-45 0-26 22-48 48-48 26 0 48 22 48 48 0 21-13 38-32 45l0 35z m16-64c9 0 16-7 16-16 0-9-7-16-16-16-9 0-16 7-16 16 0 9 7 16 16 16z m119-48l105 0 0-160-160 0 0 105z m9-16l0-32 64 0 0 32z m16-64c-18 0-32-14-32-32 0-18 14-32 32-32 18 0 32 14 32 32 0 18-14 32-32 32z"/>
<glyph glyph-name="attachment" unicode="&#112;" d="M336 448c-22 0-44-9-61-26l-150-150c-48-47-48-124 0-172 48-48 125-48 173 0l100 100-23 22-100-100c-35-35-92-35-127 0-36 36-36 93 0 128l150 150c21 21 56 21 77 0 22-22 22-56 0-78l-150-150c-8-7-20-7-27 0-8 8-8 20 0 28l137 137-22 23-138-138c-20-19-20-52 0-72 20-20 53-20 73 0l150 150c33 34 33 89 0 122-17 17-40 26-62 26z"/>
<glyph glyph-name="audio-file" unicode="&#113;" d="M96 464l0-416 320 0 0 416z m32-32l256 0 0-352-256 0z m128-76l0-103c-5 2-10 3-16 3-26 0-48-22-48-48 0-26 22-48 48-48 26 0 48 22 48 48l0 107 44-11 8 31z m-16-132c9 0 16-7 16-16 0-9-7-16-16-16-9 0-16 7-16 16 0 9 7 16 16 16z"/>
<glyph glyph-name="bell" unicode="&#114;" d="M197 112c0 0 0 0 0 0 0-29 23-51 51-51 28 0 51 22 51 51 0 0 0 0 0 0z m214 52l-46 68c0 20 0 71 0 84 0 57-40 104-94 115l0 26c0 13-11 23-23 23-13 0-23-10-23-23l0-26c-54-11-94-58-94-115 0-22 0-71 0-84l-47-68c-4-7-5-16-1-24 4-8 12-12 21-12l288 0c8 0 16 4 20 12 4 8 4 17-1 24z"/>
<glyph glyph-name="binary-file" unicode="&#115;" d="M96 464l0-112 32 0 0 80 256 0 0-80 32 0 0 112z m60-144l-3-13c0 0-1-6-6-13-4-7-9-11-19-11l0-32c13 0 24 5 32 12l0-71 32 0 0 128z m100 0c-27 0-48-24-48-52l0-24c0-28 21-52 48-52 27 0 48 24 48 52l0 24c0 28-21 52-48 52z m92 0l-3-13c0 0-1-6-6-13-4-7-9-11-19-11l0-32c13 0 24 5 32 12l0-71 32 0 0 128z m-92-32c9 0 16-7 16-20l0-24c0-13-7-20-16-20-9 0-16 7-16 20l0 24c0 13 7 20 16 20z m-160-128l0-112 320 0 0 112-32 0 0-80-256 0 0 80z"/>
<glyph glyph-name="box" unicode="&#117;" d="M136 432l-5-7-51-68 0-277 352 0 0 277-51 68-5 7z m16-32l88 0 0-32-112 0z m120 0l88 0 24-32-112 0z m-160-64l288 0 0-224-288 0z m93-32c-9-1-15-9-14-18 0-8 8-15 17-14l96 0c6 0 11 3 14 8 3 5 3 11 0 16-3 5-8 8-14 8l-96 0c0 0-1 0-1 0-1 0-1 0-2 0z"/>
<glyph glyph-name="camera" unicode="&#118;" d="M184 416l-5-7-19-25-112 0 0-288 416 0 0 288-112 0-19 25-5 7z m16-32l112 0 19-26 5-6 96 0 0-224-352 0 0 224 96 0 5 6z m-72-48c-9 0-16-7-16-16 0-9 7-16 16-16 9 0 16 7 16 16 0 9-7 16-16 16z m128 0c-53 0-96-43-96-96 0-53 43-96 96-96 53 0 96 43 96 96 0 53-43 96-96 96z m0-32c36 0 64-28 64-64 0-36-28-64-64-64-36 0-64 28-64 64 0 36 28 64 64 64z"/>
<glyph glyph-name="cancel" unicode="&#119;" d="M256 464c-115 0-208-93-208-208 0-115 93-208 208-208 115 0 208 93 208 208 0 115-93 208-208 208z m0-32c97 0 176-79 176-176 0-97-79-176-176-176-97 0-176 79-176 176 0 97 79 176 176 176z m-60-93l-23-23 60-60-60-61 23-23 60 61 61-61 23 23-61 61 61 60-23 23-61-60z"/>
<glyph glyph-name="categorize" unicode="&#120;" d="M64 448l0-176 176 0 0 176z m208 0l0-176 176 0 0 176z m32-32l112 0 0-112-112 0z m-240-176l0-176 176 0 0 176z m208 0l0-176 176 0 0 176z m-176-32l112 0 0-112-112 0z m208 0l9 0-9-9z m55 0l34 0-89-89 0 34z m-231-16c-9 0-16-7-16-16 0-9 7-16 16-16 9 0 16 7 16 16 0 9-7 16-16 16z m48 0c-9 0-16-7-16-16 0-9 7-16 16-16 9 0 16 7 16 16 0 9-7 16-16 16z m240-7l0-34-55-55-34 0z m-288-41c-9 0-16-7-16-16 0-9 7-16 16-16 9 0 16 7 16 16 0 9-7 16-16 16z m48 0c-9 0-16-7-16-16 0-9 7-16 16-16 9 0 16 7 16 16 0 9-7 16-16 16z m240-39l0-9-9 0z"/>
<glyph glyph-name="change-user" unicode="&#121;" d="M256 464c-115 0-208-93-208-208 0-115 93-208 208-208 115 0 208 93 208 208 0 57-23 109-61 147l29 29-96 16 16-96 29 28c31-31 51-75 51-124 0-97-79-176-176-176-97 0-176 79-176 176 0 97 79 176 176 176z m0-80c-44 0-80-36-80-80 0-24 11-46 29-61-36-18-61-56-61-99l32 0c0 44 36 80 80 80 44 0 80-36 80-80l32 0c0 43-24 81-60 99 17 15 28 37 28 61 0 44-36 80-80 80z m0-32c27 0 48-21 48-48 0-27-21-48-48-48-27 0-48 21-48 48 0 27 21 48 48 48z"/>
<glyph glyph-name="chat" unicode="&#122;" d="M32 432l0-256 64 0 0-82 26 21 76 61 154 0 0 256z m32-32l256 0 0-192-133 0-5-4-54-43 0 47-64 0z m320-32l0-32 64 0 0-192-64 0 0-47-58 47-120 0-40-32 149 0 101-82 0 82 64 0 0 256z"/>
<glyph glyph-name="chat-bubble" unicode="&#65;" d="M48 432l0-288 80 0 0-81 102 81 234 0 0 288z m32-32l352 0 0-224-214 0-58-47 0 47-80 0z m80-80c-18 0-32-14-32-32 0-18 14-32 32-32 18 0 32 14 32 32 0 18-14 32-32 32z m96 0c-18 0-32-14-32-32 0-18 14-32 32-32 18 0 32 14 32 32 0 18-14 32-32 32z m96 0c-18 0-32-14-32-32 0-18 14-32 32-32 18 0 32 14 32 32 0 18-14 32-32 32z"/>
<glyph glyph-name="checkbox" unicode="&#67;" d="M198 352l-71-88-24 23-22-22 48-49 94 116z m-166-16l0-160 160 0 0 71-32-39-96 0 0 96 54 0 26 32z m208-64l0-32 240 0 0 32z"/>
<glyph glyph-name="checked" unicode="&#68;" d="M80 432l0-352 352 0 0 352z m32-32l288 0 0-288-288 0z m229-69l-117-116-52 52-23-23 64-64 11-11 12 11 128 128z"/>
<glyph glyph-name="circle" unicode="&#69;" d="M256 448c-106 0-192-86-192-192 0-106 86-192 192-192 106 0 192 86 192 192 0 106-86 192-192 192z m0-32c89 0 160-71 160-160 0-89-71-160-160-160-89 0-160 71-160 160 0 89 71 160 160 160z"/>
<glyph glyph-name="clock" unicode="&#70;" d="M256 448c-106 0-192-86-192-192 0-106 86-192 192-192 106 0 192 86 192 192 0 106-86 192-192 192z m0-32c89 0 160-71 160-160 0-89-71-160-160-160-89 0-160 71-160 160 0 89 71 160 160 160z m-16-32l0-144 112 0 0 32-80 0 0 112z"/>
<glyph glyph-name="close-window" unicode="&#71;" d="M80 432l0-352 352 0 0 352z m32-32l288 0 0-288-288 0z m75-53l-22-23 68-68-69-70 22-22 70 69 69-69 22 23-69 69 68 68-22 22-68-68z"/>
<glyph glyph-name="cloud" unicode="&#72;" d="M256 400c-42 0-79-20-105-49-3 0-5 1-7 1-35 0-64-29-64-64-28-17-48-45-48-80 0-53 43-96 96-96l256 0c53 0 96 43 96 96 0 50-40 91-89 94-20 57-72 98-135 98z m0-32c52 0 96-36 109-85l3-12 13 0c3 1 4 1 3 1 36 0 64-29 64-64 0-36-28-64-64-64l-256 0c-35 0-64 28-64 64 0 27 16 49 39 59l11 4-1 12c-1 3-1 5-1 5 0 18 14 32 32 32 2 0 5 0 8-1l10-3 6 8c20 27 52 44 88 44z"/>
<glyph glyph-name="cloud-storage" unicode="&#73;" d="M100 416l-52-206 0-114 416 0 0 114-51 206z m25-32l263 0 40-160-343 0z m115-32c-21 0-38-14-45-33-1 1-2 1-3 1-18 0-32-14-32-32 0-18 14-32 32-32l136 0c13 0 24 11 24 24 0 13-11 24-24 24-4 0-8-1-11-3-5 11-16 19-29 19-1 0-2 0-3-1-6 19-24 33-45 33z m-160-160l352 0 0-64-352 0z m304-16c-9 0-16-7-16-16 0-9 7-16 16-16 9 0 16 7 16 16 0 9-7 16-16 16z"/>
<glyph glyph-name="code-file" unicode="&#74;" d="M96 464l0-416 320 0 0 310-4 5-96 96-5 5z m32-32l160 0 0-96 96 0 0-256-256 0z m192-23l41-41-41 0z m-64-105l-32-192 32 0 32 192z m-60-38l-40-48-9-10 9-10 40-48 25 20-32 38 32 38z m121 0l-25-20 31-38-31-38 25-20 40 48 8 10-8 10z"/>
<glyph glyph-name="comments" unicode="&#75;" d="M48 416l0-320 153 0 55-55 55 55 153 0 0 320z m32-32l352 0 0-256-135 0-41-41-41 41-135 0z m64-48l0-32 224 0 0 32z m0-64l0-32 224 0 0 32z m0-64l0-32 160 0 0 32z"/>
<glyph glyph-name="copy" unicode="&#76;" d="M64 448l0-320 112 0 0 32-80 0 0 256 192 0 0-16 32 0 0 48z m128-64l0-320 256 0 0 320z m32-32l192 0 0-256-192 0z"/>
<glyph glyph-name="copy-link" unicode="&#77;" d="M64 448l0-320 64 0 0-64 320 0 0 320-64 0 0 64z m32-32l256 0 0-32-224 0 0-224-32 0z m64-64l256 0 0-256-256 0z m176-32c-12 0-25-5-34-14l-16-16c-15-15-17-37-9-55l0 0c-7 3-14 5-21 5-12 0-25-5-34-14l-16-16c-19-19-19-49 0-68 19-19 49-19 68 0l16 16c15 15 17 37 9 54l1 1c17-8 39-6 54 9l17 16c18 19 17 50-1 68-9 9-22 14-34 14z m0-32c4 0 8-1 12-5 6-6 6-16 0-23l-16-16c-2-1-5-2-7-3l-20 19c1 3 2 6 4 7l16 16c3 4 7 5 11 5z m-86-81c1 0 1 0 2 0l19-20c-1-2-2-5-3-7l-16-16c-7-6-17-6-23 0-6 6-6 16-1 22l1 1 16 16c1 2 3 3 5 4z"/>
<glyph glyph-name="copyright" unicode="&#78;" d="M256 464c-115 0-208-93-208-208 0-115 93-208 208-208 115 0 208 93 208 208 0 115-93 208-208 208z m0-32c97 0 176-79 176-176 0-97-79-176-176-176-97 0-176 79-176 176 0 97 79 176 176 176z m-1-80c-54 0-96-43-96-96 0-53 42-96 96-96 38 0 71 23 86 55l-29 14c-10-22-32-37-57-37-37 0-64 28-64 64 0 36 27 64 64 64 25 0 47-15 57-37l29 13c-15 33-48 56-86 56z"/>
<glyph glyph-name="create" unicode="&#79;" d="M400 447c-12 0-24-4-33-14l-159-158-3-3-1-5-11-56-5-24 23 5 56 11 5 1 4 4 158 158c18 19 18 49 0 67-10 10-22 14-34 14z m0-31c4 0 7-1 11-5 7-7 7-15 0-22l-155-155-27-6 5 28 155 155c4 4 7 5 11 5z m-336-32l0-320 320 0 0 211-32-32 0-147-256 0 0 256 147 0 32 32z"/>
<glyph glyph-name="dashboard" unicode="&#80;" d="M256 448c-106 0-192-86-192-192 0-106 86-192 192-192 106 0 192 86 192 192 0 106-86 192-192 192z m0-32c89 0 160-71 160-160 0-89-71-160-160-160-89 0-160 71-160 160 0 89 71 160 160 160z m0-16c-9 0-16-7-16-16 0-9 7-16 16-16 9 0 16 7 16 16 0 9-7 16-16 16z m-90-38c-9 0-16-7-16-16 0-8 7-16 16-16 8 0 16 8 16 16 0 9-8 16-16 16z m169-5l-71-70c-3 1-5 1-8 1-18 0-32-14-32-32 0-18 14-32 32-32 18 0 32 14 32 32 0 3 0 5-1 8l71 71z m-207-85c-9 0-16-7-16-16 0-9 7-16 16-16 9 0 16 7 16 16 0 9-7 16-16 16z m256 0c-9 0-16-7-16-16 0-9 7-16 16-16 9 0 16 7 16 16 0 9-7 16-16 16z m-218-91c-9 0-16-7-16-16 0-8 7-16 16-16 8 0 16 8 16 16 0 9-8 16-16 16z m181 0c-9 0-16-7-16-16 0-8 7-16 16-16 8 0 16 8 16 16 0 9-8 16-16 16z"/>
<glyph glyph-name="delete" unicode="&#81;" d="M116 419l-23-23 140-140-140-141 23-23 140 141 141-141 23 23-141 141 141 140-23 23-141-140z"/>
<glyph glyph-name="delete-file" unicode="&#82;" d="M96 464l0-416 189 0c23-29 59-48 99-48 71 0 128 57 128 128 0 59-41 109-96 123l0 107-4 5-96 96-5 5z m32-32l160 0 0-96 96 0 0-80c-70 0-128-58-128-128 0-17 3-33 10-48l-138 0z m192-23l41-41-41 0z m64-185c53 0 96-43 96-96 0-53-43-96-96-96-53 0-96 43-96 96 0 53 43 96 96 96z m-36-37l-23-23 36-36-36-37 23-23 36 37 37-37 23 23-37 37 37 36-23 23-37-36z"/>
<glyph glyph-name="delete-link" unicode="&#83;" d="M348 448c-27 0-52-11-71-30l-23-23c-19-19-30-44-30-71 0-13 2-25 7-37l26 26c-3 21 3 44 19 59l24 24c12 13 30 20 48 20 18 0 35-7 48-20 27-27 27-70 0-97l-11-11c13 0 26-2 39-5 16 18 24 41 24 65 0 27-11 52-29 70-19 19-44 30-71 30z m-39-117l-128-128 23-23 128 128z m-121-43c-27 0-52-11-71-30l-23-23c-19-19-30-44-30-71 0-27 11-52 30-71 18-18 43-29 70-29 24 0 47 8 65 24-3 13-5 26-5 39l-11-11c-13-13-31-20-49-20-18 0-35 7-48 20-27 27-27 70 0 96l24 24c12 13 30 20 48 20 4 0 7 0 11-1l26 26c-12 5-24 7-37 7z m196-32c-70 0-128-58-128-128 0-71 58-128 128-128 71 0 128 57 128 128 0 70-57 128-128 128z m0-32c53 0 96-43 96-96 0-53-43-96-96-96-53 0-96 43-96 96 0 53 43 96 96 96z m-36-37l-23-23 36-36-36-37 23-23 36 37 37-37 23 23-37 37 37 36-23 23-37-36z"/>
<glyph glyph-name="delete-row" unicode="&#84;" d="M32 352l0-192 229 0c-3-10-5-21-5-32 0-71 58-128 128-128 71 0 128 57 128 128 0 33-12 62-32 85l0 0 0 139z m32-32l384 0 0-82c-19 11-41 18-64 18-47 0-88-26-110-64l-210 0z m320-96c53 0 96-43 96-96 0-53-43-96-96-96-53 0-96 43-96 96 0 53 43 96 96 96z m-36-37l-23-23 36-36-36-37 23-23 36 37 37-37 23 23-37 37 37 36-23 23-37-36z"/>
<glyph glyph-name="doc" unicode="&#85;" d="M96 464l0-416 320 0 0 310-4 5-96 96-5 5z m32-32l160 0 0-96 96 0 0-256-256 0z m192-23l41-41-41 0z m-144-105l0-32 160 0 0 32z m0-64l0-32 160 0 0 32z m0-64l0-32 160 0 0 32z"/>
<glyph glyph-name="docs" unicode="&#86;" d="M224 480l0-80 32-32 0 80 112 0 0-80 80 0 0-208-128 0 0-32 160 0 0 263-4 4-76 81-4 4z m179-47l33-34-33 0z m-371-49l0-352 256 0 0 263-4 4-76 85z m32-32l112 0 0-80 80 0 0-208-192 0z m147-15l33-34-33 0z m109-17l0-32 96 0 0 32z m0-64l0-32 96 0 0 32z m-224-32l0-32 128 0 0 32z m0-64l0-32 128 0 0 32z"/>
<glyph glyph-name="downloads" unicode="&#87;" d="M64 448l0-384 384 0 0 384-160 0c0-18-14-32-32-32-18 0-32 14-32 32z m32-32l105 0c11-19 32-32 55-32 23 0 44 13 55 32l105 0 0-320-320 0z m144-80l0-132-36 36-23-22 75-76 76 76-23 22-37-36 0 132z"/>
<glyph glyph-name="edit-file" unicode="&#88;" d="M96 464l0-416 166 0-5-29-5-24 23 5 56 11 5 1 4 4 158 158c18 19 18 49 0 67-10 10-22 14-34 14-12 0-24-4-33-14l-15-14 0 131-4 5-96 96-5 5z m32-32l160 0 0-96 96 0 0-141-112-112-3-3-141 0z m192-23l41-41-41 0z m144-185c4 0 7-1 11-5 7-7 7-15 0-22l-155-155-27-6 5 28 154 154 1 1c4 4 7 5 11 5z"/>
<glyph glyph-name="edit-graph-report" unicode="&#89;" d="M96 464l0-416 137 0 7 32-112 0 0 352 160 0 0-96 96 0 0-96 24 24c2 3 5 5 8 7l0 88-105 105z m224-55l41-41-41 0z m5-112l-69-80-55 64-53-63 24-20 29 33 55-64 69 80 15-17 24 20z m139-41c-12 0-24-5-34-14l-156-157-18-85 85 18 157 156c19 20 19 48 0 68-10 9-22 14-34 14z m0-32c4 0 8-2 11-5 7-6 7-16 0-22l-150-151-27-4 4 27 151 150c3 3 7 5 11 5z"/>
<glyph glyph-name="edit-image" unicode="&#90;" d="M48 432l0-352 168 0 32 32-168 0 0 288 352 0 0-104 32 32 0 104z m64-64l0-224 168 0 32 32-168 0 0 160 224 0 0-104 32 32 0 104z m352-97c-12 0-24-4-33-14l-159-158-3-3-1-5-11-56-5-24 23 5 56 11 5 1 4 4 158 158c18 19 18 49 0 67-10 10-22 14-34 14z m0-31c4 0 7-1 11-5 7-7 7-15 0-22l-155-155-27-6 5 28 154 154 1 1c4 4 7 5 11 5z"/>
<glyph glyph-name="edit-property" unicode="&#48;" d="M64 432l0-352 209 0-11-56-5-23 24 5 56 11 5 1 156 156c19 19 19 49 0 68-9 9-22 14-34 14-5 0-11-1-16-3l0 179z m32-32l320 0 0-32-320 0z m0-64l320 0 0-108-116-116-204 0z m48-48l0-32 32 0 0 32z m64 0l0-32 160 0 0 32z m-64-64l0-32 32 0 0 32z m64 0l0-32 96 0 0 32z m256 0c4 0 8-1 12-5 6-6 6-16 0-22l-150-150-28-6 6 29 149 149c3 4 7 5 11 5z"/>
<glyph glyph-name="edit-row" unicode="&#49;" d="M32 352l0-192 157 0 146-146c18-18 48-18 67 0 18 19 18 49 0 67l-79 79 157 0 0 192z m32-32l384 0 0-128-156 0-52 51-5 1-56 11-23 5 5-23 9-45-106 0z m133-101l27-5 155-155c7-7 7-15 0-22-7-7-15-7-22 0l-155 155z"/>
<glyph glyph-name="ellipsis-h" unicode="&#50;" d="M96 320c-35 0-64-29-64-64 0-35 29-64 64-64 35 0 64 29 64 64 0 35-29 64-64 64z m160 0c-35 0-64-29-64-64 0-35 29-64 64-64 35 0 64 29 64 64 0 35-29 64-64 64z m160 0c-35 0-64-29-64-64 0-35 29-64 64-64 35 0 64 29 64 64 0 35-29 64-64 64z m-320-32c18 0 32-14 32-32 0-18-14-32-32-32-18 0-32 14-32 32 0 18 14 32 32 32z m160 0c18 0 32-14 32-32 0-18-14-32-32-32-18 0-32 14-32 32 0 18 14 32 32 32z m160 0c18 0 32-14 32-32 0-18-14-32-32-32-18 0-32 14-32 32 0 18 14 32 32 32z"/>
<glyph glyph-name="error" unicode="&#51;" d="M256 460l-14-24-192-332-13-24 439 0-14 24-192 332z m0-64l164-284-328 0z m-16-108l0-96 32 0 0 96z m0-112l0-32 32 0 0 32z"/>
<glyph glyph-name="export" unicode="&#52;" d="M96 448l0-384 320 0 0 128-32-32 0-64-256 0 0 320 256 0 0-64 32-32 0 128z m263-112l-23-23 41-41-154 0 0-32 154 0-41-42 23-22 69 68 11 12-11 11z"/>
<glyph glyph-name="external-link" unicode="&#53;" d="M288 432l0-32 89 0-196-197 23-23 196 197 0-89 32 0 0 144z m-208-64l0-288 288 0 0 208-32-32 0-144-224 0 0 224 144 0 32 32z"/>
<glyph glyph-name="eye" unicode="&#54;" d="M256 384c-133 0-236-118-236-118l-9-10 9-11c0 0 94-106 218-116 6-1 12-1 18-1 6 0 12 0 18 1 124 10 218 116 218 116l10 11-10 10c0 0-103 118-236 118z m0-32c35 0 68-10 96-23 10-16 16-36 16-57 0-58-43-105-99-112-1 0-1 1-1 0-4 0-8 0-12 0-4 0-8 0-12 0-57 7-100 54-100 112 0 21 6 40 16 57l-1 0c29 13 61 23 97 23z m0-32c-26 0-48-22-48-48 0-27 22-48 48-48 27 0 48 21 48 48 0 26-21 48-48 48z m-140-15c-2-11-4-22-4-33 0-28 8-54 22-77-40 24-68 52-77 61 7 8 29 29 59 49z m280 0c30-20 52-41 60-49-10-9-38-37-78-61 14 23 22 49 22 77 0 11-1 22-4 33z"/>
<glyph glyph-name="facebook" unicode="&#55;" d="M112 432c-17 0-32-15-32-32l0-288c0-18 15-32 32-32l288 0c18 0 32 14 32 32l0 288c0 17-14 32-32 32z m0-32l288 0 0-288-83 0 0 108 42 0 6 48-48 0 0 31c0 14 3 23 24 23l26 0 0 44c-5 1-20 1-38 1-37 0-62-22-62-63l0-36-42 0 0-48 42 0 0-108-155 0z"/>
<glyph glyph-name="file" unicode="&#56;" d="M96 464l0-416 320 0 0 310-4 5-96 96-5 5z m32-32l160 0 0-96 96 0 0-256-256 0z m192-23l41-41-41 0z"/>
<glyph glyph-name="filter" unicode="&#57;" d="M80 448l0-38 4-4 124-156 0-186 26 19 64 48 6 5 0 114 125 156 3 4 0 38z m37-32l279 0-115-144-49 0z m123-176l32 0 0-88-32-24z"/>
<glyph glyph-name="find-user" unicode="&#33;" d="M208 464c-62 0-112-50-112-112 0-39 20-73 50-93-58-25-98-81-98-147l32 0c0 71 57 128 128 128 34 0 65-14 88-36-5-11-8-23-8-36 0-18 6-35 16-50l-59-59 23-23 59 59c14-9 31-15 49-15 48 0 88 40 88 88 0 48-40 88-88 88-24 0-45-10-61-25-13 12-28 21-44 28 30 20 49 55 49 93 0 62-50 112-112 112z m0-32c44 0 80-36 80-80 0-44-36-80-80-80-44 0-80 36-80 80 0 44 36 80 80 80z m168-208c31 0 56-25 56-56 0-31-25-56-56-56-31 0-56 25-56 56 0 31 25 56 56 56z"/>
<glyph glyph-name="fullscreen" unicode="&#34;" d="M64 448l0-144 32 0 0 89 85-85 23 23-85 85 89 0 0 32z m240 0l0-32 89 0-84-85 23-23 84 85 0-89 32 0 0 144z m-240-240l0-144 144 0 0 32-89 0 85 84-23 23-85-84 0 89z m352 0l0-89-84 84-23-23 84-84-89 0 0-32 144 0 0 144z"/>
<glyph glyph-name="gear" unicode="&#35;" d="M211 464l-2-13-10-48c-15-6-29-14-41-24l-47 16-12 4-7-12-32-55-6-11 9-9 36-31c-1-8-3-16-3-25 0-9 2-17 3-25l-36-32-9-8 6-12 32-55 7-11 12 4 47 16c12-10 26-19 41-25l10-47 2-13 90 0 3 13 9 47c15 6 29 15 42 25l46-16 13-4 6 11 32 55 7 12-10 8-36 32c1 8 3 16 3 25 0 9-2 17-3 25l36 31 10 9-7 11-32 55-6 12-13-4-46-16c-13 10-27 18-42 24l-9 48-3 13z m26-32l38 0 8-42 2-9 9-3c18-6 35-15 49-28l7-7 9 3 40 14 19-32-32-29-7-6 2-9c2-9 3-18 3-28 0-10-1-19-3-28l-2-10 7-6 32-28-19-33-40 14-9 3-7-6c-14-13-31-22-49-28l-9-3-2-10-8-41-38 0-8 41-2 10-9 3c-18 6-35 15-48 28l-7 6-9-3-41-14-19 33 32 28 8 6-3 10c-2 9-3 18-3 28 0 10 1 19 3 28l3 9-8 6-32 29 19 32 41-14 9-3 7 7c13 13 30 22 48 28l9 3 2 9z m19-96c-44 0-80-36-80-80 0-44 36-80 80-80 44 0 80 36 80 80 0 44-36 80-80 80z m0-32c27 0 48-21 48-48 0-27-21-48-48-48-27 0-48 21-48 48 0 27 21 48 48 48z"/>
<glyph glyph-name="gears" unicode="&#36;" d="M344 472l0-23c-13-2-26-7-36-15l-17 16-22-24 16-15c-7-10-12-22-14-35l-23 0 0-32 23 0c2-13 7-25 15-36l-17-17 23-23 16 17c11-7 23-12 36-15l0-22 32 0 0 22c13 3 25 8 36 15l15-16 23 22-15 16c7 11 12 24 15 37l22 0 0 32-22 0c-3 13-8 25-15 36l15 15-23 22-15-15c-11 8-23 13-36 15l0 23z m16-53c33 0 59-26 59-59 0-33-26-59-59-59-33 0-59 26-59 59 0 33 26 59 59 59z m-207-95l-30-12 12-29c-16-9-29-21-38-37l-28 12-12-30 28-11c-2-8-3-17-3-27 0-9 1-18 3-26l-28-12 12-29 28 11c9-15 22-28 38-37l-12-29 30-12 11 29c9-2 17-4 27-4 9 0 18 2 26 4l12-29 29 12-11 29c15 9 27 22 37 37l29-11 12 29-29 12c2 8 3 17 3 26 0 10-1 19-3 27l29 11-12 30-29-12c-10 16-22 28-37 37l11 29-29 12-12-29c-8 3-17 4-26 4-10 0-18-1-27-4z m38-57c42 0 76-34 76-77 0-42-34-77-76-77-43 0-77 35-77 77 0 43 34 77 77 77z"/>
<glyph glyph-name="heart" unicode="&#37;" d="M256 61l-8 5c-8 5-200 117-200 238 0 62 50 112 112 112 41 0 76-22 96-54 20 32 55 54 96 54 62 0 112-50 112-112 0-121-192-233-200-238z m-96 323c-44 0-80-36-80-80 0-90 141-183 176-205 35 22 176 115 176 205 0 44-36 80-80 80-44 0-80-36-80-80l-32 0c0 44-36 80-80 80z"/>
<glyph glyph-name="hearts" unicode="&#38;" d="M408 288c-10 0-19-2-27-5 2 7 3 14 3 21 0 53-43 96-96 96-33 0-63-17-80-43-17 26-47 43-80 43-53 0-96-43-96-96 0-87 151-178 168-188l7-4 8 3c0 0 15 7 34 21 4 3 9 6 13 9 32-32 75-56 82-60l8-5 8 5c12 6 120 67 120 131 0 40-32 72-72 72z m-199-140c-47 29-145 101-145 156 0 35 29 64 64 64 35 0 64-29 64-64l32 0c0 35 29 64 64 64 35 0 64-29 64-64 0-8-2-16-6-26-1-2-3-4-4-7-12 11-28 17-46 17-40 0-72-32-72-72 0-16 7-32 17-46-3-3-7-6-10-8-9-6-17-11-22-14z m143-31c-40 23-96 67-96 99 0 22 18 40 40 40 22 0 40-18 40-40l32 0c0 22 18 40 40 40 22 0 40-18 40-40 0-32-56-76-96-99z"/>
<glyph glyph-name="help" unicode="&#39;" d="M256 448c-106 0-192-86-192-192 0-106 86-192 192-192 106 0 192 86 192 192 0 106-86 192-192 192z m0-32c89 0 160-71 160-160 0-89-71-160-160-160-89 0-160 71-160 160 0 89 71 160 160 160z m0-64c-35 0-64-29-64-64l32 0c0 18 14 32 32 32 18 0 32-14 32-32 0-12-8-23-19-27l-7-2c-13-4-22-17-22-31l0-20 32 0 0 20 7 2c24 9 41 32 41 58 0 35-29 64-64 64z m-16-160l0-32 32 0 0 32z"/>
<glyph glyph-name="high-priority" unicode="&#40;" d="M256 486l-230-230 230-231 231 231z m0-45l186-185-186-186-185 186z m-16-89l0-128 32 0 0 128z m0-160l0-32 32 0 0 32z"/>
<glyph glyph-name="idea" unicode="&#41;" d="M109 473l-22-22 33-34 23 23z m294 0l-33-33 22-23 34 34z m-147-10c-5 0-11 0-16-1 0 0 0 0 0 0-65-7-117-59-126-124-7-52 14-99 50-130 15-13 25-30 28-48l0-96 37 0c5-10 15-16 27-16 12 0 22 6 28 16l36 0 0 64 2 0 0 19c0 23 12 47 32 65 26 27 46 65 46 108 0 79-65 144-144 143z m0-32c62 1 112-49 112-111 0-34-15-63-37-85l1 0c-22-20-36-46-39-75l-70 0c-4 27-16 54-38 73-28 24-45 60-39 101 7 50 47 91 98 96 4 1 8 1 12 1z m-224-111l0-32 48 0 0 32z m400 0l0-32 48 0 0 32z m-312-130l-33-33 22-23 34 34z m272 0l-22-22 33-34 23 23z m-168-62l64 0 0-32-64 0z"/>
<glyph glyph-name="image-file" unicode="&#42;" d="M96 464l0-416 320 0 0 310-4 5-96 96-5 5z m32-32l160 0 0-96 96 0 0-256-256 0z m192-23l41-41-41 0z m18-121c-9 0-16-7-16-16 0-9 7-16 16-16 8 0 16 7 16 16 0 9-8 16-16 16z m-114-26l-11-11-64-64 23-23 52 53 37-37 11-11 12 11 20 21 37-37 23 23-48 48-12 11-11-11-21-20-36 36z"/>
<glyph glyph-name="indent" unicode="&#43;" d="M48 400l0-32 416 0 0 32z m0-64l0-32 304 0 0 32z m416 0l-80-80 80-80z m-416-64l0-32 304 0 0 32z m0-64l0-32 304 0 0 32z m0-64l0-32 416 0 0 32z"/>
<glyph glyph-name="info" unicode="&#44;" d="M256 464c-115 0-208-93-208-208 0-115 93-208 208-208 115 0 208 93 208 208 0 115-93 208-208 208z m0-32c97 0 176-79 176-176 0-97-79-176-176-176-97 0-176 79-176 176 0 97 79 176 176 176z m-16-80l0-32 32 0 0 32z m0-64l0-128 32 0 0 128z"/>
<glyph glyph-name="invisible" unicode="&#45;" d="M60 475l-23-23 99-99 178-177 30-31 109-109 23 23-100 100c68 34 113 83 116 86l10 11-10 10c-4 5-107 118-236 118-31 0-61-7-88-17z m196-123c34 0 67-10 96-23 10-17 16-37 16-57 0-29-11-56-29-76l-46 46c7 8 11 19 11 30 0 26-21 48-48 48-11 0-22-4-30-11l-32 32c19 7 40 11 62 11z m-149-15c-51-31-85-68-87-71l-9-10 9-11c4-4 99-108 221-116 5-1 10-1 15-1 5 0 10 0 15 1 13 1 26 3 39 5l-29 29c-8-2-16-3-25-3-62 0-112 50-112 112 0 8 1 17 3 25z m9-32c-3-11-4-22-4-33 0-28 8-53 22-76-37 21-65 46-79 60 11 12 33 31 61 49z m280 0c28-18 50-37 62-49-15-14-43-39-80-60 14 22 22 48 22 76 0 11-1 22-4 33z"/>
<glyph glyph-name="left" unicode="&#46;" d="M213 403l-136-136-11-11 11-12 136-136 23 23-109 109 321 0 0 32-321 0 109 108z"/>
<glyph glyph-name="light-on" unicode="&#47;" d="M256 448c-79 0-144-65-144-144 0-46 23-78 44-101 11-12 21-21 28-29 6-8 8-13 8-14 0-1 0-1 0-2l0-46c0-18 15-32 32-32l16-16 32 0 16 16c18 0 32 14 32 32l0 43c0 1 0 2 0 2 0 3 2 8 9 16 7 8 17 18 27 30 21 23 44 56 44 101 0 79-65 144-144 144z m-160-32c-9 0-16-7-16-16 0-9 7-16 16-16 9 0 16 7 16 16 0 9-7 16-16 16z m160 0c62 0 112-50 112-112 0-35-17-59-36-80-10-11-20-20-28-30-4-5-8-11-11-18l-72 0c-4 7-8 13-13 19-9 10-18 19-28 29-19 21-36 45-36 80 0 62 50 112 112 112z m160 0c-9 0-16-7-16-16 0-9 7-16 16-16 9 0 16 7 16 16 0 9-7 16-16 16z m-352-96c-9 0-16-7-16-16 0-9 7-16 16-16 9 0 16 7 16 16 0 9-7 16-16 16z m384 0c-9 0-16-7-16-16 0-9 7-16 16-16 9 0 16 7 16 16 0 9-7 16-16 16z m-352-96c-9 0-16-7-16-16 0-9 7-16 16-16 9 0 16 7 16 16 0 9-7 16-16 16z m320 0c-9 0-16-7-16-16 0-9 7-16 16-16 9 0 16 7 16 16 0 9-7 16-16 16z m-192-80l64 0 0-32-64 0z"/>
<glyph glyph-name="link" unicode="&#58;" d="M348 448c-27 0-52-11-71-30l-23-23c-19-19-30-44-30-71 0-13 2-25 7-37l26 26c-3 21 3 44 19 59l24 24c12 13 30 20 48 20 18 0 35-7 48-20 27-27 27-70 0-97l-23-23c-13-13-31-20-49-20-4 0-7 0-10 1l-26-26c11-5 23-7 36-7 27 0 52 11 71 29l24 24c18 19 29 44 29 71 0 27-11 52-29 70-19 19-44 30-71 30z m-39-117l-128-128 23-23 128 128z m-121-43c-27 0-52-11-71-30l-23-23c-19-19-30-44-30-71 0-27 11-52 30-71 18-18 43-29 70-29 27 0 52 11 71 29l24 24c18 19 29 44 29 71 0 13-2 25-7 36l-26-26c3-20-3-43-19-59l-23-23c-13-13-31-20-49-20-18 0-35 7-48 20-27 27-27 70 0 96l24 24c12 13 30 20 48 20 4 0 7 0 11-1l26 26c-12 5-24 7-37 7z"/>
<glyph glyph-name="linking" unicode="&#59;" d="M80 432l0-352 352 0 0 352z m32-32l288 0 0-288-288 0z m96-48l0-32 89 0-148-149 23-23 148 149 0-89 32 0 0 144z"/>
<glyph glyph-name="location" unicode="&#60;" d="M256 464c-79 0-144-65-144-144 0-23 9-48 22-77 12-28 28-58 44-86 32-55 65-102 65-102l13-19 13 19c0 0 33 47 65 102 16 28 32 58 45 86 12 29 21 54 21 77 0 79-65 144-144 144z m0-32c62 0 112-50 112-112 0-13-7-37-18-64-12-26-28-55-44-83-25-43-41-66-50-80-9 14-25 37-50 80-16 28-32 57-43 83-12 27-19 51-19 64 0 62 50 112 112 112z m0-80c-18 0-32-14-32-32 0-18 14-32 32-32 18 0 32 14 32 32 0 18-14 32-32 32z"/>
<glyph glyph-name="lock" unicode="&#61;" d="M256 464c-61 0-112-51-112-112l0-48-48 0 0-256 320 0 0 256-48 0 0 48c0 61-50 112-112 112z m0-32c44 0 80-36 80-80l0-48-160 0 0 48c0 44 36 80 80 80z m-128-160l256 0 0-192-256 0z"/>
<glyph glyph-name="mail" unicode="&#62;" d="M48 400l0-288 416 0 0 288z m69-32l278 0-139-93z m-37-14l108-72-108-76z m352 0l0-148-108 76z m-216-91l31-21 9-5 9 5 31 21 136-95 0-24-352 0 0 24z"/>
<glyph glyph-name="merge-files" unicode="&#63;" d="M64 448l0-256 128 0 0-128 256 0 0 256-128 0 0 128z m32-32l192 0 0-106-11-11 23-23 11 12 105 0 0-192-192 0 0 105 12 11-23 23-11-11-106 0z m60-37l-23-23 40-40-29-28 80 0 0 80-28-29z m105-96l-32-32 23-23 32 32z m27-59l0-80 29 28 40-40 23 23-40 40 28 29z"/>
<glyph glyph-name="minus" unicode="&#64;" d="M256 464c-115 0-208-93-208-208 0-115 93-208 208-208 115 0 208 93 208 208 0 115-93 208-208 208z m0-32c97 0 176-79 176-176 0-97-79-176-176-176-97 0-176 79-176 176 0 97 79 176 176 176z m-96-160l0-32 192 0 0 32z"/>
<glyph glyph-name="module" unicode="&#91;" d="M256 463l-8-5-64-35-8-5 0-85 8-4 64-36 8-4 8 4 64 36 8 4 0 85-8 5-64 35z m0-37l31-17-31-17-30 17z m-48-44l32-17 0-30-32 17z m96 0l0-30-32-17 0 30z m-144-4l-80-42 0-90-32-18 0-85 8-5 64-35 8-5 8 5 64 35 8 5 0 85-8 4-64 36-8 4-16-9 0 54 48 25z m192 0l0-36 48-25 0-54-16 9-8-4-64-36-8-4 0-85 8-5 64-35 8-5 8 5 64 35 8 5 0 85-32 18 0 90z m-224-143l31-17-31-16-30 16z m256 0l31-17-31-16-30 16z m-304-43l32-18 0-30-32 18z m96 0l0-30-32-18 0 30z m160 0l32-18 0-30-32 18z m96 0l0-30-32-18 0 30z m-236-74l-32-18 92-52 93 52-33 18-60-33z"/>
<glyph glyph-name="more" unicode="&#93;" d="M96 288c-18 0-32-14-32-32 0-18 14-32 32-32 18 0 32 14 32 32 0 18-14 32-32 32z m160 0c-18 0-32-14-32-32 0-18 14-32 32-32 18 0 32 14 32 32 0 18-14 32-32 32z m160 0c-18 0-32-14-32-32 0-18 14-32 32-32 18 0 32 14 32 32 0 18-14 32-32 32z"/>
<glyph glyph-name="name" unicode="&#94;" d="M64 448l0-384 384 0 0 384z m32-32l320 0 0-320-33 0c-5 43-33 80-70 98 23 18 39 46 39 78 0 53-43 96-96 96-53 0-96-43-96-96 0-32 16-60 40-78-38-18-65-55-71-98l-33 0z m160-80c36 0 64-28 64-64 0-36-28-64-64-64-36 0-64 28-64 64 0 36 28 64 64 64z m0-160c48 0 87-34 95-80l-189 0c7 46 46 80 94 80z"/>
<glyph glyph-name="new" unicode="&#95;" d="M256 470l-11-11-42-40-57 8-16 2-2-15-10-58-52-27-13-7 6-14 26-52-26-53-6-13 13-8 52-27 10-57 2-16 16 3 57 8 42-41 11-11 11 11 42 41 58-8 15-3 3 16 10 57 51 27 14 8-7 13-25 53 25 52 7 14-14 7-51 28-10 57-3 15-15-2-58-8-42 40z m0-44l37-36 5-5 8 1 50 7 9-50 1-7 7-4 45-24-22-45-4-7 4-7 22-45-45-24-7-4-1-8-9-50-50 8-8 1-5-6-37-35-36 35-6 6-7-1-50-8-9 50-2 8-6 4-45 23 22 46 4 7-4 7-22 45 45 24 6 4 2 7 9 50 50-7 7-1 6 5z m-96-138l0-64 16 0 0 26 16-13 0-13 16 0 0 64-16 0 0-27-16 14 0 13z m64 0l0-64 48 0 0 16-32 0 0 8 29 0 0 16-29 0 0 8 32 0 0 16z m64 0l0-8 19-51 2-5 12 0 7 21 6-16 3-5 11 0 20 53 0 11-16 0 0-7-10-27-6 16-3 6-11 0-8-22-10 27 0 7z"/>
<glyph glyph-name="new-doc" unicode="&#96;" d="M80 432l0-352 352 0 0 352z m32-32l288 0 0-288-288 0z m48-48l0-32 192 0 0 32z m0-80l0-32 192 0 0 32z m0-80l0-32 96 0 0 32z"/>
<glyph glyph-name="news" unicode="&#123;" d="M48 432l0-288c0-35 29-64 64-64l288 0c35 0 64 29 64 64l0 176-96 0 0 112z m32-32l256 0 0-256c0-12 4-23 9-32l-233 0c-19 0-32 13-32 32z m32-32l0-80 192 0 0 80z m32-32l128 0 0-16-128 0z m224-48l64 0 0-144c0-19-13-32-32-32-19 0-32 13-32 32z m-256-16l0-32 80 0 0 32z m112 0l0-32 80 0 0 32z m-112-48l0-32 80 0 0 32z m112 0l0-32 80 0 0 32z m-112-48l0-32 80 0 0 32z m112 0l0-32 80 0 0 32z"/>
<glyph glyph-name="news-feed" unicode="&#124;" d="M80 432l0-96 352 0 0 96z m32-32l288 0 0-32-288 0z m-32-96l0-96 352 0 0 96z m32-32l288 0 0-32-288 0z m-32-96l0-96 352 0 0 96z m32-32l288 0 0-32-288 0z"/>
<glyph glyph-name="note" unicode="&#125;" d="M80 432l0-352 247 0 5 4 96 96 4 5 0 247z m32-32l288 0 0-192-96 0 0-96-192 0z m224-224l41 0-41-41z"/>
<glyph glyph-name="ok" unicode="&#126;" d="M256 464c-115 0-208-93-208-208 0-115 93-208 208-208 115 0 208 93 208 208 0 115-93 208-208 208z m0-32c97 0 176-79 176-176 0-97-79-176-176-176-97 0-176 79-176 176 0 97 79 176 176 176z m101-101l-117-116-68 68-23-23 80-80 11-11 12 11 128 128z"/>
<glyph glyph-name="password" unicode="&#92;" d="M256 464c-62 0-112-50-112-112l0-48-48 0 0-256 320 0 0 256-48 0 0 48c0 62-50 112-112 112z m0-32c44 0 80-36 80-80l0-48-160 0 0 48c0 44 36 80 80 80z m-128-160l256 0 0-192-256 0z m64-80c-9 0-16-7-16-16 0-9 7-16 16-16 9 0 16 7 16 16 0 9-7 16-16 16z m64 0c-9 0-16-7-16-16 0-9 7-16 16-16 9 0 16 7 16 16 0 9-7 16-16 16z m64 0c-9 0-16-7-16-16 0-9 7-16 16-16 9 0 16 7 16 16 0 9-7 16-16 16z"/>
<glyph glyph-name="pdf" unicode="&#57344;" d="M96 464l0-416 320 0 0 416z m32-32l256 0 0-352-256 0z m119-86c-5 1-11-1-15-5-4-3-6-7-7-12-2-8-2-17 1-27 2-12 9-26 15-39-3-12-4-23-8-36-4-10-9-16-13-26-11-4-23-6-30-11-9-5-17-11-21-20-4-8-4-20 2-28 3-4 7-8 12-10 5-2 11-2 16-1 9 4 16 11 22 19 6 8 10 22 16 32 8 3 13 7 22 8 9 2 15 2 24 2 3-4 6-10 10-14 8-6 16-11 26-12 10-1 20 6 26 15l0 0 0 0c2 5 4 9 4 14 0 6-3 11-6 14-7 7-15 9-24 10-7 1-17-1-25-2-7 10-14 17-21 29-4 7-4 13-7 19 2 11 6 23 7 33 1 11 0 21-3 30-2 5-4 10-8 13-4 3-10 5-15 5 0 0 0 0 0 0z m10-118c3-5 6-8 10-13-5-1-8 0-13-1-1 0-1-1-2-1 1 2 2 4 3 6 1 3 1 6 2 9z m59-33c5 0 7-1 8-2 0 0 0 0 0 0-2-3-2-3-3-3-2 0-6 2-9 5 1 0 3 1 4 0z m-112-25c-1-1-2-4-2-5-5-7-10-10-11-10 0 0 0 0 0 0l0 0c-2 3-2 2 0 4 1 2 4 6 11 10 1 1 2 1 2 1z"/>
<glyph glyph-name="pencil" unicode="&#57345;" d="M383 448c-17 0-34-6-47-19l-253-253-1-5-17-88-5-24 23 5 88 18 5 1 253 253c26 26 26 67 0 93-13 13-30 19-46 19z m0-30c8 0 16-4 24-12 15-15 15-32 0-48l-12-11-47 48 11 11c7 8 15 12 24 12z m-58-46l48-47-194-194c-10 21-27 37-47 48z m-214-219c19-8 34-23 42-42l-52-11z"/>
<glyph glyph-name="pin" unicode="&#57346;" d="M256 448c-106 0-192-86-192-192 0-106 86-192 192-192 106 0 192 86 192 192 0 106-86 192-192 192z m0-32c89 0 160-71 160-160 0-89-71-160-160-160-89 0-160 71-160 160 0 89 71 160 160 160z m35-44l-11-15-36-50c-21 2-43-3-58-19l-11-11 11-11 29-29-55-55 0-22 23 0 54 54 29-29 12-11 11 11c16 16 20 38 19 58l49 36 15 11-13 13-55 55z m3-49l29-29-40-30-9-6 3-11c2-8 1-16-2-25l-52 52c8 4 16 5 25 2l10-2 7 8z"/>
<glyph glyph-name="play" unicode="&#57347;" d="M144 429l0-347 25 16 245 158-245 157z m32-58l179-115-179-115z"/>
<glyph glyph-name="ppt" unicode="&#57349;" d="M96 464l0-112 32 0 0 80 256 0 0-80 32 0 0 112z m32-144l0-128 32 0 0 32c26 0 48 22 48 48 0 26-22 48-48 48z m96 0l0-128 32 0 0 32c26 0 48 22 48 48 0 26-22 48-48 48z m96 0l0-32 16 0 0-96 32 0 0 96 16 0 0 32z m-160-32c9 0 16-7 16-16 0-9-7-16-16-16z m96 0c9 0 16-7 16-16 0-9-7-16-16-16z m-160-128l0-112 320 0 0 112-32 0 0-80-256 0 0 80z"/>
<glyph glyph-name="privacy" unicode="&#57350;" d="M256 464c-61 0-112-51-112-112l0-48-48 0 0-256 320 0 0 256-48 0 0 48c0 61-50 112-112 112z m0-32c44 0 80-36 80-80l0-48-160 0 0 48c0 44 36 80 80 80z m-128-160l256 0 0-192-256 0z m128-16c-44 0-80-36-80-80 0-44 36-80 80-80 44 0 80 36 80 80 0 44-36 80-80 80z m0-32c27 0 48-21 48-48 0-27-21-48-48-48-27 0-48 21-48 48 0 27 21 48 48 48z m0-16c-18 0-32-14-32-32 0-18 14-32 32-32 18 0 32 14 32 32 0 3 0 6-1 9-4-6-9-9-15-9-10 0-16 6-16 16 0 6 3 11 10 14-4 2-7 2-10 2z"/>
<glyph glyph-name="profile" unicode="&#57351;" d="M256 464c-115 0-208-93-208-208 0-115 93-208 208-208 115 0 208 93 208 208 0 115-93 208-208 208z m0-32c97 0 176-79 176-176 0-97-79-176-176-176-97 0-176 79-176 176 0 97 79 176 176 176z m0-48c-44 0-80-36-80-80 0-24 11-46 29-61-36-18-61-56-61-99l32 0c0 44 36 80 80 80 44 0 80-36 80-80l32 0c0 43-24 81-60 99 17 15 28 37 28 61 0 44-36 80-80 80z m0-32c27 0 48-21 48-48 0-27-21-48-48-48-27 0-48 21-48 48 0 27 21 48 48 48z"/>
<glyph glyph-name="psd" unicode="&#57352;" d="M96 464l0-112 32 0 0 80 256 0 0-80 32 0 0 112z m32-144l0-128 32 0 0 32c26 0 48 22 48 48 0 26-22 48-48 48z m136 0c-22 0-40-18-40-40 0-22 18-40 40-40 3 0 8-5 8-8 0-5-2-8-8-8-6 0-7 1-7 1 0 1-1 2-1 5l-32 0c0-9 3-19 10-27 7-7 18-11 30-11 23 0 40 19 40 40 0 22-18 40-40 40-3 0-8 5-8 8 0 3 5 8 8 8 4 0 6-1 7-2 0-1 1-3 1-5l32 0c0 10-3 20-10 27-8 7-18 12-30 12z m56 0l0-128 32 0c26 0 48 22 48 48l0 32c0 26-22 48-48 48z m-160-32c9 0 16-7 16-16 0-9-7-16-16-16z m192 0c9 0 16-7 16-16l0-32c0-9-7-16-16-16z m-256-128l0-112 320 0 0 112-32 0 0-80-256 0 0 80z"/>
<glyph glyph-name="publish" unicode="&#57353;" d="M415 448c-12 0-27-1-43-2-33-3-71-9-94-32-20-20-61-72-98-121-8-10-8-10-14-19l-28 2c-20 1-40-8-53-24l-33-41-17-21 26-5 53-10 61-62 11-52 5-26 21 16 41 34c15 13 24 33 23 53l-1 27c9 7 9 7 19 14 49 38 101 79 121 98 23 23 28 62 31 94 3 33 2 61 2 61l-1 15-14 0c0 0-7 1-18 1z m-15-32c6 0 11 0 16-1 0-9 0-19-2-41-3-30-12-64-22-74-15-14-69-57-118-95-43-33-74-57-82-63l-49 49c6 9 29 39 62 82 37 49 80 104 95 118 11 11 44 21 75 23 10 1 19 2 25 2z m-73-57c-18 0-32-14-32-32 0-18 14-33 32-33 18 0 33 15 33 33 0 18-15 32-33 32z m-191-115l6-1c-10-12-25-33-27-36l-22 5 17 20c6 8 16 13 26 12z m-36-83c-14-14-22-33-27-49-6-15-8-29-8-29l-5-23 23 4c0 0 13 3 29 8 15 5 34 13 49 27l-23 23c-7-7-21-13-34-18 5 13 12 28 18 34z m144-19l0-6c1-10-3-20-11-27l-21-16-4 21c2 3 23 18 36 28z"/>
<glyph glyph-name="qr-code" unicode="&#57354;" d="M80 432l0-128 32 0 0-32 32 0 0 32 64 0 0 128z m128-128l0-32 32 0 0-32-64 0 0-32-96 0 0-128 128 0 0 128 96 0 0 32-32 0 0 32 64 0 0 32 32 0 0-32 32 0 0 32 32 0 0 128-128 0 0-128z m192-32l0-32 32 0 0 32z m0-32l-32 0 0-32 32 0z m0-32l0-32 32 0 0 32z m0-32l-32 0 0 32-32 0 0-32-80 0 0-96 32 0 0 64 64 0 0-32 32 0 0 32 16 0z m-48-64l-32 0 0-32 32 0z m16 128l0 32-32 0 0-32z m-192 0l0 32-32 0 0-32z m-64 32l-32 0 0-32 32 0z m128 160l0-64-16 0 0-32 16 0 0-16 32 0 0 48 16 0 0 32-16 0 0 32z m-128-32l64 0 0-64-64 0z m224 0l64 0 0-64-64 0z m-208-16l0-32 32 0 0 32z m224 0l0-32 32 0 0 32z m-240-208l64 0 0-64-64 0z m16-16l0-32 32 0 0 32z m272-48l0-32 32 0 0 32z"/>
<glyph glyph-name="redo" unicode="&#57355;" d="M308 427l-23-23 100-100-209 0c-61 0-112-51-112-112l0-112 32 0 0 112c0 44 36 80 80 80l209 0-100-101 23-23 128 128 11 12-11 11z"/>
<glyph glyph-name="remove-tag" unicode="&#57356;" d="M256 432l-5-5-182-184-11-11 11-12 152-152 11-11 31 31c16-51 64-88 121-88 71 0 128 57 128 128 0 56-36 104-86 121l2 2 4 5 0 176z m14-32l130 0 0-131-13-13c-1 0-2 0-3 0-70 0-128-58-128-128 0-1 0-1 0-2l-24-24-129 130z m82-32c-9 0-16-7-16-16 0-9 7-16 16-16 9 0 16 7 16 16 0 9-7 16-16 16z m32-144c53 0 96-43 96-96 0-53-43-96-96-96-53 0-96 43-96 96 0 53 43 96 96 96z m-36-37l-23-23 36-36-36-37 23-23 36 37 37-37 23 23-37 37 37 36-23 23-37-36z"/>
<glyph glyph-name="report-card" unicode="&#57357;" d="M64 416l0-320 384 0 0 320z m32-32l320 0 0-256-320 0z m277-37l-37-36-20 20-23-23 32-32 11-11 12 11 48 48z m-245-27l0-32 128 0 0 32z m245-69l-37-36-20 20-23-23 32-32 11-11 12 11 48 48z m-245-27l0-32 128 0 0 32z"/>
<glyph glyph-name="right" unicode="&#57361;" d="M300 403l-23-23 108-108-321 0 0-32 321 0-108-109 23-23 136 136 11 12-11 11z"/>
<glyph glyph-name="ruby" unicode="&#57362;" d="M287 448c0 0 0 0 0 0-1 0-1 0-1 0-1 0-1 0-1 0 0 0-1 0-1-1-1 0-1 0-2 0 0 0-1 0-1-1-1 0-1 0-2 0l-1-1c0 0 0 0 0 0l-82-30-3-1-2-2-73-64-2-2-1-2-46-76c-2-2-3-4-4-6l-1-2 0-1c0-1 0-1 0-2l0-1c0-1 0-1 0-2l0-103c1-38 17-63 37-75 19-11 38-12 49-12 1 0 2 0 3 0 0 0 1 0 2 0 0 0 1 0 2 0 1 0 2 0 3 0l8 0c5-3 10-3 15 0l248 0c1 0 2 0 3 0l14 0 0 13c0 1 0 2 0 3l0 0c0 2 0 3 0 4l0 219c0 1 0 2 0 3l0 56c0 0 0 1 0 1 0 1 0 1 0 1 0 9-1 18-3 26-7 27-29 52-66 58l-85 0c-3 1-5 1-7 0z m45-32l41 0c28-5 37-17 41-34 1-5 2-11 2-17 0 0 0-1 0-2 0-5-1-11-2-16z m-47-3l20-16-25-79-80-79-85-14-17 30 42 70 70 61z m46-39l66-54-83 0z m-20-86l84 0c-14-28-33-54-54-79z m-29-13l27-72-72 27z m134-14l0-142-60 60c23 25 43 52 60 82z m-228-57l-18-80-38 71z m32-2l83-31c-32-28-66-52-105-65z m-124-9l53-97c-10 1-22 2-31 8-11 7-21 18-22 48z m238-38l59-59-138 0c29 16 55 37 79 59z"/>
<glyph glyph-name="search" unicode="&#57363;" d="M304 464c-88 0-160-72-160-160 0-38 13-73 36-101l-127-128 23-23 127 128c28-23 63-36 101-36 88 0 160 72 160 160 0 88-72 160-160 160z m0-32c71 0 128-57 128-128 0-71-57-128-128-128-71 0-128 57-128 128 0 71 57 128 128 128z"/>
<glyph glyph-name="secure-cloud" unicode="&#57364;" d="M256 400c-42 0-79-20-105-49-3 0-5 1-7 1-35 0-64-29-64-64-28-17-48-45-48-80 0-53 43-96 96-96l256 0c53 0 96 43 96 96 0 50-40 91-89 94-20 57-72 98-135 98z m0-32c52 0 96-36 109-85l3-12 13 0c3 1 4 1 3 1 36 0 64-29 64-64 0-36-28-64-64-64l-256 0c-35 0-64 28-64 64 0 27 16 49 39 59l11 4-1 12c-1 3-1 5-1 5 0 18 14 32 32 32 2 0 5 0 8-1l10-3 6 8c20 27 52 44 88 44z m0-48c-26 0-48-22-48-48 0-21 14-38 32-45l0-51 32 0 0 51c19 7 32 24 32 45 0 26-22 48-48 48z m0-32c9 0 16-7 16-16 0-9-7-16-16-16-9 0-16 7-16 16 0 9 7 16 16 16z"/>
<glyph glyph-name="send-file" unicode="&#57365;" d="M96 464l0-416 320 0 0 310-4 5-96 96-5 5z m32-32l160 0 0-96 96 0 0-256-256 0z m192-23l41-41-41 0z m-59-110l-23-23 36-36-98 0 0-32 98 0-36-37 23-23 64 64 11 12-11 11z"/>
<glyph glyph-name="server" unicode="&#57366;" d="M128 448l0-384 256 0 0 384z m32-32l192 0 0-320-192 0z m32-32l0-32 128 0 0 32z m0-64l0-32 128 0 0 32z m64-128c-9 0-16-7-16-16 0-9 7-16 16-16 9 0 16 7 16 16 0 9-7 16-16 16z"/>
<glyph glyph-name="sheet" unicode="&#57367;" d="M128 464c-17 0-32-15-32-32l0-352c0-18 15-32 32-32l256 0c18 0 32 14 32 32l0 278-4 5-96 96-5 5z m0-32l144 0 0-80c0-18 15-32 32-32l80 0 0-240-256 0z m176-7l73-73-73 0z m-128-153l0-128 160 0 0 128z m32-32l32 0 0-16-32 0z m64 0l32 0 0-16-32 0z m-64-48l32 0 0-16-32 0z m64 0l32 0 0-16-32 0z"/>
<glyph glyph-name="signature" unicode="&#57368;" d="M395 431c-19-1-36-13-43-33l-78-223-1-4 1-5 15-58 6-23 19 14 48 36 4 3 2 5 77 223c9 26-5 54-30 63-7 2-14 3-20 2z m2-31c2 0 4 0 7-1 11-4 15-12 11-23l-76-218-25-19-8 30 76 219c2 5 5 9 9 11 1 1 3 1 6 1z m-237-80c-24 0-44-16-57-38-14-22-23-50-23-82 0-19 2-39 10-56 7-17 23-32 45-32 22 0 37 13 45 22 0 0 0 0 0-1 1-6 2-12 5-20 1-3 3-7 7-11 4-3 10-6 16-6 11 0 18 5 22 9 1-1 1-2 3-5 3-5 8-11 15-16 7-5 18-6 28-4l-8 31c-3 0-3 0-3 0-1 1-3 3-5 6-2 3-4 7-6 11-2 3-3 5-5 8-3 3-8 6-15 6-12 0-17-5-21-9 0 2-1 3-1 5-1 6-2 13-5 20-1 4-3 8-7 11-4 4-10 7-16 7-9 0-17-6-21-11-5-4-7-8-9-12-5-6-6-9-19-9-8 0-11 3-16 13-4 11-7 27-7 43 0 26 7 49 18 65 10 16 22 23 30 23 5 0 7-1 10-5 3-4 6-12 6-27l32 0c0 19-4 34-12 46-9 12-23 18-36 18z"/>
<glyph glyph-name="smile" unicode="&#57369;" d="M256 448c-106 0-192-86-192-192 0-106 86-192 192-192 106 0 192 86 192 192 0 106-86 192-192 192z m0-32c89 0 160-71 160-160 0-89-71-160-160-160-89 0-160 71-160 160 0 89 71 160 160 160z m-72-96c-13 0-24-11-24-24 0-13 11-24 24-24 13 0 24 11 24 24 0 13-11 24-24 24z m144 0c-13 0-24-11-24-24 0-13 11-24 24-24 13 0 24 11 24 24 0 13-11 24-24 24z m-155-112l-27-16c22-38 63-64 110-64 47 0 88 26 111 64l-28 16c-17-29-47-48-83-48-36 0-66 19-83 48z"/>
<glyph glyph-name="smile-love" unicode="&#57370;" d="M256 448c-106 0-192-86-192-192 0-106 86-192 192-192 106 0 192 86 192 192 0 106-86 192-192 192z m0-32c89 0 160-71 160-160 0-89-71-160-160-160-89 0-160 71-160 160 0 89 71 160 160 160z m-88-80c-13 0-24-11-24-24 0-2 0-3 1-5 0-3 2-7 4-10 12-20 43-41 43-41 0 0 48 30 48 56 0 13-11 24-24 24-13 0-24-11-24-24 0 13-11 24-24 24z m128 0c-13 0-24-11-24-24 0-2 0-3 1-5 0-3 2-7 4-10 12-20 43-41 43-41 0 0 32 21 44 42 2 5 4 9 4 14 0 13-11 24-24 24-13 0-24-11-24-24 0 13-11 24-24 24z m-123-128l-27-16c22-38 63-64 110-64 47 0 88 26 111 64l-28 16c-17-29-47-48-83-48-36 0-66 19-83 48z"/>
<glyph glyph-name="sort" unicode="&#57371;" d="M256 454l-11-11-128-128-27-27 333 0-27 27-128 128z m0-45l89-89-178 0z m-166-185l27-28 128-128 11-11 12 11 128 128 27 28z m77-32l178 0-89-89z"/>
<glyph glyph-name="sort-down" unicode="&#57372;" d="M58 320l27-28 160-160 11-11 12 11 160 160 27 28z m77-32l242 0-121-121z"/>
<glyph glyph-name="sort-up" unicode="&#57373;" d="M256 374l-11-11-160-160-27-27 397 0-27 27-160 160z m0-45l121-121-242 0z"/>
<glyph glyph-name="source-code" unicode="&#57374;" d="M288 432l-96-352 32 0 96 352z m-161-23l-108-144-7-9 7-10 108-144 26 19-101 135 101 134z m258 0l-26-19 101-134-101-135 26-19 108 144 7 10-7 9z"/>
<glyph glyph-name="sync" unicode="&#57376;" d="M256 448c-106 0-192-86-192-192 0-106 86-192 192-192 106 0 192 86 192 192 0 106-86 192-192 192z m0-32c89 0 160-71 160-160 0-89-71-160-160-160-89 0-160 71-160 160 0 89 71 160 160 160z m0-64c-47 0-87-35-94-80l33 0c7 28 31 48 61 48 18 0 34-7 45-19l-29-29 80 0 0 80-28-29c-18 18-42 29-68 29z m-96-112l0-80 29 28c17-17 41-28 67-28 48 0 87 35 95 80l-33 0c-8-28-32-48-62-48-18 0-33 7-45 19l29 29z"/>
<glyph glyph-name="tag" unicode="&#57377;" d="M256 432l-5-5-182-184-11-11 11-12 152-152 11-11 11 11 185 183 4 5 0 176z m14-32l130 0 0-131-168-167-129 130z m82-32c-9 0-16-7-16-16 0-9 7-16 16-16 9 0 16 7 16 16 0 9-7 16-16 16z"/>
<glyph glyph-name="tags" unicode="&#57378;" d="M234 448l-5-5-176-176-11-11 11-12 144-144 11-11 12 11 176 176 4 5 0 167z m13-32l121 0 0-121-160-160-121 121z m169-16l0-32 16 0 0-131-152-151-20 20-22-22 31-32 11-11 11 11 169 167 4 5 0 176z m-96-16c-9 0-16-7-16-16 0-9 7-16 16-16 9 0 16 7 16 16 0 9-7 16-16 16z"/>
<glyph glyph-name="template" unicode="&#57379;" d="M80 432l0-352 352 0 0 352z m32-32l288 0 0-288-288 0z m32-32l0-80 224 0 0 80z m32-32l160 0 0-16-160 0z m-32-80l0-112 96 0 0 112z m128 0l0-112 96 0 0 112z m-96-32l32 0 0-48-32 0z m128 0l32 0 0-48-32 0z"/>
<glyph glyph-name="times" unicode="&#57380;" d="M140 395l-23-23 116-116-116-117 23-23 116 117 117-117 23 23-117 117 117 116-23 23-117-116z"/>
<glyph glyph-name="todo" unicode="&#57381;" d="M165 419l-37-36-20 20-23-23 32-32 11-11 12 11 48 48z m59-19l0-32 208 0 0 32z m-59-93l-37-36-20 20-23-23 32-32 11-11 12 11 48 48z m59-35l0-32 208 0 0 32z m-59-93l-37-36-20 20-23-23 32-32 11-11 12 11 48 48z m59-35l0-32 208 0 0 32z"/>
<glyph glyph-name="trash" unicode="&#57382;" d="M240 448c-8 0-17-3-23-9-6-6-9-15-9-23l0-16-96 0 0-32 16 0 0-256c0-26 22-48 48-48l192 0c26 0 48 22 48 48l0 256 16 0 0 32-96 0 0 16c0 8-3 17-9 23-6 6-15 9-23 9z m0-32l64 0 0-16-64 0z m-80-48l224 0 0-256c0-9-7-16-16-16l-192 0c-9 0-16 7-16 16z m32-48l0-176 32 0 0 176z m64 0l0-176 32 0 0 176z m64 0l0-176 32 0 0 176z"/>
<glyph glyph-name="twitter" unicode="&#57383;" d="M448 375c-14-6-29-10-45-12 16 9 29 25 34 43-15-9-32-15-50-19-14 15-34 25-57 25-44 0-79-35-79-79 0-6 1-12 2-18-65 4-123 35-162 83-7-12-11-26-11-40 0-27 14-51 35-66-13 1-25 4-36 10 0 0 0 0 0-1 0-38 28-70 64-77-7-2-14-3-21-3-5 0-10 1-15 2 10-32 39-54 74-55-27-21-61-34-98-34-7 0-13 1-19 1 35-22 76-35 121-35 145 0 224 120 224 224 0 3 0 7 0 10 15 11 28 25 39 41z"/>
<glyph glyph-name="txt" unicode="&#57384;" d="M96 464l0-112 32 0 0 80 256 0 0-80 32 0 0 112z m32-144l0-32 16 0 0-96 32 0 0 96 16 0 0 32z m80 0l32-64-32-64 32 0 16 32 16-32 32 0-32 64 32 64-32 0-16-32-16 32z m112 0l0-32 16 0 0-96 32 0 0 96 16 0 0 32z m-224-160l0-112 320 0 0 112-32 0 0-80-256 0 0 80z"/>
<glyph glyph-name="unchecked" unicode="&#57385;" d="M80 432l0-352 352 0 0 352z m32-32l288 0 0-288-288 0z"/>
<glyph glyph-name="undo" unicode="&#57386;" d="M205 427l-128-128-11-11 11-12 128-128 23 23-101 101 209 0c44 0 80-36 80-80l0-112 32 0 0 112c0 61-50 112-112 112l-209 0 101 100z"/>
<glyph glyph-name="upload-to-cloud" unicode="&#57387;" d="M256 400c-42 0-79-20-105-49-3 0-5 1-7 1-35 0-64-29-64-64-28-17-48-45-48-80 0-53 43-96 96-96l80 0 0 32-80 0c-35 0-64 28-64 64 0 27 16 49 39 59l11 4-1 12c-1 3-1 5-1 5 0 18 14 32 32 32 2 0 5 0 8-1l10-3 6 8c20 27 52 44 88 44 52 0 96-36 109-85l3-12 13 0c3 1 4 1 3 1 36 0 64-29 64-64 0-36-28-64-64-64l-80 0 0-32 80 0c53 0 96 43 96 96 0 50-40 91-89 94-20 57-72 98-135 98z m0-128l-64-64 48 0 0-128 32 0 0 128 48 0z"/>
<glyph glyph-name="user" unicode="&#57388;" d="M256 432c-62 0-112-50-112-112 0-39 20-73 50-93-58-25-98-81-98-147l32 0c0 46 24 86 61 109 11-26 37-45 67-45 30 0 56 19 67 45 37-23 61-63 61-109l32 0c0 66-40 122-97 147 29 20 49 54 49 93 0 62-50 112-112 112z m0-32c44 0 80-36 80-80 0-44-36-80-80-80-44 0-80 36-80 80 0 44 36 80 80 80z m0-192c13 0 26-2 38-6-6-15-21-26-38-26-17 0-32 11-37 26 11 4 24 6 37 6z"/>
<glyph glyph-name="users" unicode="&#57389;" d="M184 416c-31 0-56-25-56-56 0-31 25-56 56-56 31 0 56 25 56 56 0 31-25 56-56 56z m144 0c-31 0-56-25-56-56 0-31 25-56 56-56 31 0 56 25 56 56 0 31-25 56-56 56z m-144-32c13 0 24-11 24-24 0-13-11-24-24-24-13 0-24 11-24 24 0 13 11 24 24 24z m144 0c13 0 24-11 24-24 0-13-11-24-24-24-13 0-24 11-24 24 0 13 11 24 24 24z m-216-64c-35 0-64-29-64-64 0-18 8-34 20-46-22-14-36-39-36-66l32 0c0 27 21 48 48 48 27 0 48-21 48-48l32 0c0 27-14 52-35 66 11 12 19 28 19 46 0 35-29 64-64 64z m80-176c-10-13-16-30-16-48l32 0c0 27 21 48 48 48 27 0 48-21 48-48l32 0c0 18-6 35-16 48-5 7-12 13-19 18 11 12 19 28 19 46 0 35-29 64-64 64-35 0-64-29-64-64 0-18 8-34 20-46-8-5-15-11-20-18z m128 0l32 0c0 27 21 48 48 48 27 0 48-21 48-48l32 0c0 27-14 52-35 66 11 12 19 28 19 46 0 35-29 64-64 64-35 0-64-29-64-64 0-18 8-34 20-46-22-14-36-39-36-66z m-208 144c18 0 32-14 32-32 0-18-14-32-32-32-18 0-32 14-32 32 0 18 14 32 32 32z m288 0c18 0 32-14 32-32 0-18-14-32-32-32-18 0-32 14-32 32 0 18 14 32 32 32z m-144-48c18 0 32-14 32-32 0-18-14-32-32-32-18 0-32 14-32 32 0 18 14 32 32 32z"/>
<glyph glyph-name="verified" unicode="&#57390;" d="M256 448c-27 0-50-13-65-34-5 1-10 2-15 2-20 0-41-8-57-23-19-20-26-47-22-72-20-15-33-38-33-65 0-27 13-50 34-65-5-25 2-52 21-72 16-15 37-23 57-23 5 0 10 0 15 1 15-20 38-33 65-33 27 0 50 13 65 33 5-1 10-1 15-1 21 0 41 8 57 23 19 20 26 47 22 72 20 15 33 38 33 65 0 27-13 50-33 65 4 25-3 52-22 72-16 15-36 23-57 23-5 0-10-1-15-2-15 21-38 34-65 34z m0-32c16 0 30-7 39-20l12-17 20 4c3 1 6 1 9 1 13 0 25-5 34-14 11-11 16-27 13-43l-4-20 17-12c13-9 20-24 20-39 0-16-7-30-20-39l-17-12 4-20c3-16-2-32-13-43-9-9-21-14-34-14-3 0-6 0-9 1l-20 4-12-17c-9-13-23-20-39-20-15 0-30 7-39 20l-12 17-20-4c-3-1-6-1-9-1-13 0-25 5-34 14-11 11-16 27-13 43l4 20-17 12c-13 9-20 23-20 39 0 15 7 30 20 39l17 12-4 20c-3 16 2 32 13 43 9 9 21 14 34 14 3 0 6 0 9-1l20-4 12 17c9 13 24 20 39 20z m57-112l-73-73-41 41-23-23 53-53 11-11 12 11 84 85z"/>
<glyph glyph-name="versions" unicode="&#57391;" d="M64 432l0-352 176 0c-3 10-6 21-7 32l-137 0 0 224 320 0 0-60c11-2 22-6 32-11l0 167z m32-32l320 0 0-32-320 0z m48-112l0-32 32 0 0 32z m64 0l0-32 95 0c15 10 31 17 49 20l0 12z m176-32l0-32c53 0 96-43 96-96 0-53-43-96-96-96-53 0-96 43-96 96 0 25 10 47 25 64l-24 22c-21-23-33-53-33-86 0-71 58-128 128-128 71 0 128 57 128 128 0 70-57 128-128 128z m-240-32l0-32 32 0 0 32z m64 0l0-32 39 0c5 11 12 22 20 32z m144-32l0 0c0 0 0 0 0 0z m-4-5l-23-23 35-35c0 0 0-1 0-1 0-13 11-24 24-24 13 0 24 11 24 24 0 13-11 24-24 24 0 0-1 0-1 0z"/>
<glyph glyph-name="video-file" unicode="&#57392;" d="M96 464l0-416 320 0 0 310-4 5-96 96-5 5z m32-32l160 0 0-96 96 0 0-256-256 0z m192-23l41-41-41 0z m-112-109l0-153 24 15 80 48 23 14-23 13-80 48z m32-56l34-20-34-20z"/>
<glyph glyph-name="web" unicode="&#57393;" d="M256 448c-106 0-192-86-192-192 0-106 86-192 192-192 106 0 192 86 192 192 0 106-86 192-192 192z m0-32c32 0 61-9 86-25l-13-2 3-32-17 8-14-12 2-33 35 11 43-14-11-20-26 16-28-4-28-21-15-48 31-25c0 0 31 5 33 5 2 0 14-29 14-29l-26-80c-21-9-44-15-69-15-5 0-10 1-15 1l-17 30 17 64-65 49-59 0-16 31 43 34 64 31-9 42 27 6 13-18 48 9-8 37-36 3c4 0 9 1 13 1z m-18-1l-25-11-12 2c12 5 24 8 37 9z m-141-172l16-18 0-33 30-33 18 0 46-56c-61 20-105 75-110 140z"/>
<glyph glyph-name="word" unicode="&#57394;" d="M96 464l0-416 320 0 0 416z m32-32l256 0 0-352-256 0z m160-112l0-104c0-3-5-8-8-8-1 0 0-1-1 1-1 2-3 6-4 11-3 10-3 20-3 20l0 32-32 0 0-72c0-3-5-8-8-8-3 0-8 5-8 8l0 104-64 0 0-32 32 0 0-72c0-22 18-40 40-40 16 0 27 10 34 23 4-3 8-7 14-7 22 0 40 18 40 40l0 72 32 0 0 32z"/>
<glyph glyph-name="xls" unicode="&#57395;" d="M96 464l0-112 32 0 0 80 256 0 0-80 32 0 0 112z m32-144l32-64-32-64 32 0 16 32 16-32 32 0-32 64 32 64-32 0-16-32-16 32z m112 0l0-128 64 0 0 32-32 0 0 96z m120 0c-22 0-40-18-40-40 0-22 18-40 40-40 3 0 8-5 8-8 0-5-2-8-8-8-6 0-7 1-7 1 0 1-1 2-1 5l-32 0c0-9 3-19 10-27 7-7 18-11 30-11 23 0 40 19 40 40 0 22-18 40-40 40-3 0-8 5-8 8 0 3 5 8 8 8 4 0 6-1 7-2 0-1 1-3 1-5l32 0c0 10-3 20-10 27-8 7-18 12-30 12z m-264-160l0-112 320 0 0 112-32 0 0-80-256 0 0 80z"/>
<glyph glyph-name="plus" unicode="&#57348;" d="M224 432l0-144-144 0 0-64 144 0 0-144 64 0 0 144 144 0 0 64-144 0 0 144z"/>
<glyph glyph-name="toc" unicode="&#57396;" d="M80 432l0-352 352 0 0 352z m32-32l288 0 0-288-288 0z m48-208l0-32 192 0 0 32z m0 160l0-32 112 0 0 32z m144 0l0-32 48 0 0 32z m0-80l0-32 48 0 0 32z m-144 0l0-32 96 0 0 32z"/>
<glyph glyph-name="edit-toc" unicode="&#57397;" d="M48 432l0-352 168 0 32 32-168 0 0 288 352 0 0-104 32 32 0 104z m416-161c-12 0-24-4-33-14l-159-158-3-3-1-5-11-56-5-24 23 5 56 11 5 1 4 4 158 158c18 19 18 49 0 67-10 10-22 14-34 14z m0-31c4 0 7-1 11-5 7-7 7-15 0-22l-155-155-27-6 5 28 154 154 1 1c4 4 7 5 11 5z m-336-48l0-32 176 0 0 32z m0 160l0-32 96 0 0 32z m192 0l0-32 48 0 0 32z m0-80l0-32 48 0 0 32z m-192 0l0-32 160 0 0 32z"/>
<glyph glyph-name="add-smile" unicode="&#57398;" d="M321 427c-96 0-174-77-174-171 0-94 78-171 174-171 96 0 174 77 174 171 0 94-78 171-174 171z m0-29c80 0 145-63 145-142 0-79-65-142-145-142-80 0-145 63-145 142 0 79 65 142 145 142z m-65-85c-12 0-22-10-22-21 0-12 10-22 22-22 12 0 22 10 22 22 0 11-10 21-22 21z m130 0c-12 0-21-10-21-21 0-12 9-22 21-22 12 0 22 10 22 22 0 11-10 21-22 21z m-140-100c15-25 43-42 75-42 32 0 60 17 75 42l25-14c-20-34-57-57-100-57-43 0-80 23-100 57z m-185 100l28 0 0-43 44 0 0-28-44 0 0-43-28 0 0 43-44 0 0 28 44 0z"/>
<glyph glyph-name="mail-reply" unicode="&#104;" d="M256 432l-192-144 192-144 0 96c56 0 165-31 192-140 0 145-98 225-192 236z"/>
<glyph glyph-name="reply" unicode="&#57399;" d="M256 416l-192-144 192-144 0 96c56 0 165-31 192-140 0 145-98 225-192 236z"/>
<glyph glyph-name="star" unicode="&#57400;" d="M447 297c-3 10-12 17-22 18l-101 15-43 90c-5 10-14 16-25 16-10 0-20-6-25-16l-43-90-101-15c-9-1-18-8-21-18-3-10-1-20 6-27l73-73-16-102c-3-10 2-20 11-26 4-4 10-5 16-5 4 0 9 1 13 3l87 47 87-47c5-2 9-3 14-3 6 0 11 1 15 5 9 6 14 16 12 26l-17 102 74 73c6 7 9 17 6 27z m-100-82c-6-6-8-14-8-23l18-101-87 47c-5 2-9 3-14 3-4 0-9-1-13-3l-87-47 17 101c1 9-2 17-8 23l-73 74 100 15c9 1 17 7 21 15l43 90 44-90c3-8 12-14 21-16l99-14z"/>
<glyph glyph-name="outdent" unicode="&#57375;" d="M48 400l0-32 208 0 0 32z m0-64l0-32 320 0 0 32z m352 0l0-160 80 80z m-352-64l0-32 320 0 0 32z m0-64l0-32 320 0 0 32z m0-64l0-32 208 0 0 32z"/>
<glyph glyph-name="check" unicode="&#66;" d="M414 412l-238-221-80 80-54-56 134-129 289 270z"/>
<glyph glyph-name="code-fork" unicode="&#57401;" d="M176 448c-26 0-48-22-48-48 0-21 14-38 32-45l0-198c-18-7-32-24-32-45 0-26 22-48 48-48 26 0 48 22 48 48 0 20-13 37-31 44 2 20 10 30 22 38 14 10 36 15 61 21 24 6 49 11 71 26 19 14 33 36 37 66 18 7 32 24 32 45 0 26-22 48-48 48-26 0-48-22-48-48 0-20 13-38 32-45-3-21-11-31-23-40-14-10-37-16-60-21-24-6-50-10-72-25-2-1-3-3-5-4l0 138c19 7 32 24 32 45 0 26-22 48-48 48z m0-32c9 0 16-7 16-16 0-9-7-16-16-16-9 0-16 7-16 16 0 9 7 16 16 16z m192-48c9 0 16-7 16-16 0-9-7-16-16-16-9 0-16 7-16 16 0 9 7 16 16 16z m-192-240c9 0 16-7 16-16 0-9-7-16-16-16-9 0-16 7-16 16 0 9 7 16 16 16z"/>
<glyph glyph-name="ellipsis-v" unicode="&#57402;" d="M192 96c0-35 29-64 64-64 35 0 64 29 64 64 0 35-29 64-64 64-35 0-64-29-64-64z m0 160c0-35 29-64 64-64 35 0 64 29 64 64 0 35-29 64-64 64-35 0-64-29-64-64z m0 160c0-35 29-64 64-64 35 0 64 29 64 64 0 35-29 64-64 64-35 0-64-29-64-64z m32-320c0 18 14 32 32 32 18 0 32-14 32-32 0-18-14-32-32-32-18 0-32 14-32 32z m0 160c0 18 14 32 32 32 18 0 32-14 32-32 0-18-14-32-32-32-18 0-32 14-32 32z m0 160c0 18 14 32 32 32 18 0 32-14 32-32 0-18-14-32-32-32-18 0-32 14-32 32z"/>
<glyph glyph-name="exit-wide-mode" unicode="&#57450;" d="M48 416l416 0 0-320-416 0z m32-32l0-256 352 0 0 256z m32-144l0-32 48 0 0-48 32 0 0 80z m208 112l0-80 80 0 0 32-48 0 0 48z"/>
<glyph glyph-name="wide-mode" unicode="&#57451;" d="M48 416l0-320 416 0 0 320z m32-32l352 0 0-256-352 0z m240-32l0-32 48 0 0-48 32 0 0 80z m-208-112l0-80 80 0 0 32-48 0 0 48z"/>
<glyph glyph-name="google" unicode="&#57455;" d="M256 287l0-67 96 0c-13-41-47-70-96-70-59 0-106 47-106 106 0 59 47 106 106 106 26 0 51-10 69-25l50 49c-32 29-73 46-119 46-97 0-176-79-176-176 0-97 79-176 176-176 148 0 180 138 166 207z"/>
<glyph glyph-name="share" unicode="&#57452;" d="M341 443l-22-22 68-69-35 0c-115 0-208-93-208-208l32 0c0 97 79 176 176 176l35 0-68-69 22-22 108 107z m-261-107l0-256 352 0 0 96-32 0 0-64-288 0 0 224z"/>
<glyph glyph-name="text-align-center" unicode="&#57403;" d="M149 192l0-43 214 0 0 43z m-85-128l384 0 0 43-384 0z m0 171l384 0 0 42-384 0z m85 128l0-43 214 0 0 43z m-85 85l0-43 384 0 0 43z"/>
<glyph glyph-name="text-align-justify" unicode="&#57404;" d="M64 64l384 0 0 43-384 0z m0 85l384 0 0 43-384 0z m0 86l384 0 0 42-384 0z m0 85l384 0 0 43-384 0z m0 128l0-43 384 0 0 43z"/>
<glyph glyph-name="text-align-left" unicode="&#57405;" d="M448 64l-384 0 0 43 384 0z m-128 85l-256 0 0 43 256 0z m128 86l-384 0 0 42 384 0z m-128 85l-256 0 0 43 256 0z m128 128l0-43-384 0 0 43z"/>
<glyph glyph-name="text-align-right" unicode="&#57406;" d="M64 64l384 0 0 43-384 0z m128 85l256 0 0 43-256 0z m-128 86l384 0 0 42-384 0z m128 85l256 0 0 43-256 0z m-128 128l0-43 384 0 0 43z"/>
<glyph glyph-name="text-attachment" unicode="&#57407;" d="M336 448c-22 0-44-9-61-26l-150-150c-48-47-48-124 0-172 48-48 125-48 173 0l100 100-23 22-100-100c-35-35-92-35-127 0-36 36-36 93 0 128l150 150c21 21 56 21 77 0 22-22 22-56 0-78l-150-150c-8-7-20-7-27 0-8 8-8 20 0 28l137 137-22 23-138-138c-20-19-20-52 0-72 20-20 53-20 73 0l150 150c33 34 33 89 0 122-17 17-40 26-62 26z"/>
<glyph glyph-name="text-bold" unicode="&#57408;" d="M160 400l91 0c64 0 96-24 96-73 0-34-17-57-50-68l-5-2 5-1c44-6 66-30 66-73 0-54-31-82-95-82l-108 0z m39-37l0-90 48-1c41 0 62 16 62 46 0 30-22 45-67 45z m0-124l0-100 57-1c43 0 65 17 65 50 0 33-25 50-75 50z"/>
<glyph glyph-name="text-bulleted-list" unicode="&#57409;" d="M104 285c-16 0-30-14-30-31 0-16 14-30 30-30 17 0 31 14 31 30 0 17-14 31-31 31z m0 121c-16 0-30-14-30-30 0-17 14-31 30-31 17 0 31 14 31 31 0 16-14 30-31 30z m0-243c-16 0-30-13-30-30 0-17 14-30 30-30 17 0 31 13 31 30 0 17-14 30-31 30z m61-50l283 0 0 40-283 0z m0 121l283 0 0 41-283 0z m0 162l0-41 283 0 0 41z"/>
<glyph glyph-name="text-code" unicode="&#57410;" d="M288 432l-96-352 32 0 96 352z m-161-23l-108-144-7-9 7-10 108-144 26 19-101 135 101 134z m258 0l-26-19 101-134-101-135 26-19 108 144 7 10-7 9z"/>
<glyph glyph-name="text-color" unicode="&#57411;" d="M64 144l384 0 0-64-384 0z m176 272l-88-224 36 0 18 48 100 0 18-48 36 0-88 224z m-22-144l38 101 38-101z"/>
<glyph glyph-name="text-emoji" unicode="&#57412;" d="M256 448c-106 0-192-86-192-192 0-106 86-192 192-192 106 0 192 86 192 192 0 106-86 192-192 192z m0-32c89 0 160-71 160-160 0-89-71-160-160-160-89 0-160 71-160 160 0 89 71 160 160 160z m-72-96c-13 0-24-11-24-24 0-13 11-24 24-24 13 0 24 11 24 24 0 13-11 24-24 24z m144 0c-13 0-24-11-24-24 0-13 11-24 24-24 13 0 24 11 24 24 0 13-11 24-24 24z m-155-112l-27-16c22-38 63-64 110-64 47 0 88 26 111 64l-28 16c-17-29-47-48-83-48-36 0-66 19-83 48z"/>
<glyph glyph-name="text-fill-color" unicode="&#57413;" d="M329 305l-143 143-23-23 38-38-82-82c-4-5-7-11-7-17 0-6 3-12 7-17l88-88c5-5 11-7 17-7 6 0 12 2 17 7l88 88c9 9 9 25 0 34z m-182-17l77 77 77-77z m221-24c0 0-32-35-32-56 0-18 14-32 32-32 18 0 32 14 32 32 0 21-32 56-32 56z m-304-136l384 0 0-64-384 0z"/>
<glyph glyph-name="text-font" unicode="&#57414;" d="M112 416l0-51 123 0 0-269 47 0 0 269 110 0 0 51z"/>
<glyph glyph-name="text-font-size" unicode="&#57415;" d="M90 400l0-58 96 0 0-230 57 0 0 230 96 0 0 58z m332-128l-140 0 0-26 57 0 0-134 26 0 0 134 57 0z"/>
<glyph glyph-name="text-heading" unicode="&#57416;" d="M327 410l113-297-43 0-29 78-132 0-29-78-43 0 113 297z m28-185l-53 156-54-156z m-187 130l71-189-27 0-18 50-84 0-19-50-27 0 72 189z m18-117l-34 99-35-99z"/>
<glyph glyph-name="text-hr" unicode="&#57417;" d="M448 320l-384 0 0-48 384 0z m-384-144l384 0 0 48-384 0z"/>
<glyph glyph-name="text-image" unicode="&#57418;" d="M64 416l0-320 384 0 0 320z m30-32l324 0 0-217-114 124-11 11-11-11-33-36-56 60-11 11-10-11-78-84z m258-16c-20 0-37-18-37-40 0-22 17-40 37-40 20 0 37 18 37 40 0 22-17 40-37 40z m0-32c4 0 7-3 7-8 0-5-3-8-7-8-4 0-7 3-7 8 0 5 3 8 7 8z m-170-55l45-49-96-104-37 0 0 57z m111-24l119-129-238 0z"/>
<glyph glyph-name="text-indent" unicode="&#57419;" d="M64 64l384 0 0 43-384 0z m0 277l0-170 85 85z m171-192l213 0 0 43-213 0z m-171 299l0-43 384 0 0 43z m171-128l213 0 0 43-213 0z m0-85l213 0 0 42-213 0z"/>
<glyph glyph-name="text-italic" unicode="&#57420;" d="M297 108l-4-14c-13-5-24-9-32-11-8-2-15-3-20-3-12 0-21 3-27 9-6 6-8 14-8 22 0 4 0 7 0 11 1 4 2 8 3 14l23 93c2 5 3 10 4 16 1 6 2 11 2 15 0 8-2 14-5 16-2 3-8 4-16 4-3 0-8 0-13-1-5-1-9-2-12-3l3 14c12 5 22 9 31 12 9 2 16 3 21 3 12 0 21-3 26-8 6-6 8-14 8-23 0-3 0-6 0-11-1-4-2-9-3-13l-23-93c-2-6-3-12-4-17-1-6-2-10-2-14 0-8 2-14 6-17 3-3 9-4 18-4 2 0 6 0 12 1 5 1 9 1 12 2z m15 280c0-8-3-16-8-22-5-6-12-9-20-9-8 0-14 3-19 9-6 6-8 12-8 20 0 8 2 15 8 21 5 6 11 9 19 9 8 0 15-3 20-8 5-6 8-13 8-20z"/>
<glyph glyph-name="text-link" unicode="&#57421;" d="M456 327c-19 19-44 30-71 30l-33 0c-27 0-52-11-71-30-9-9-16-19-21-31l37 0c12 17 33 29 55 29l33 0c18 0 36-8 49-20 13-13 20-30 20-49 0-37-31-68-69-68l-33 0c-18 0-36 8-48 20-3 3-5 6-7 9l-37 0c5-12 12-22 21-31 19-19 44-30 71-30l33 0c27 0 52 11 71 30 19 19 29 44 29 70 0 27-10 52-29 71z m-110-54l-181 0 0-33 181 0z m-116 54c-19 19-44 30-71 30l-33 0c-27 0-52-11-71-30-19-19-29-44-29-71 0-26 10-51 29-70 19-19 44-30 71-30l33 0c27 0 52 11 71 30 9 9 16 19 21 31l-37 0c-12-17-32-29-55-29l-33 0c-18 0-36 8-49 20-13 13-19 30-19 48 0 38 30 69 68 69l33 0c18 0 36-8 48-20 3-3 5-6 7-9l37 0c-5 12-12 22-21 31z"/>
<glyph glyph-name="text-mention" unicode="&#57422;" d="M259 448c-118 2-212-104-192-225 13-81 80-146 163-157 55-8 107 8 146 40l-20 25c-33-26-76-40-122-34-69 10-124 64-135 131-17 102 61 189 160 188 84-1 154-71 157-155 0-2 0-4 0-6 0-35-29-63-64-63-18 0-32 14-32 32l0 128-32 0 0-13c-11 8-25 13-40 13-40 0-72-32-72-72l0-48c0-40 32-72 72-72 22 0 41 10 54 25 12-15 30-25 50-25 53 0 96 43 96 95 0 3 0 5 0 7-3 101-88 184-189 186z m-11-128c22 0 40-18 40-40l0-48c0-22-18-40-40-40-22 0-40 18-40 40l0 48c0 22 18 40 40 40z"/>
<glyph glyph-name="text-numbered-list" unicode="&#57423;" d="M64 153l40 0 0-10-20 0 0-20 20 0 0-10-40 0 0-20 61 0 0 80-61 0z m20 182l20 0 0 81-40 0 0-20 20 0z m-20-60l36 0-36-43 0-18 61 0 0 20-37 0 37 43 0 18-61 0z m101 121l0-41 283 0 0 41z m0-283l283 0 0 40-283 0z m0 121l283 0 0 41-283 0z"/>
<glyph glyph-name="text-outdent" unicode="&#57424;" d="M235 149l213 0 0 43-213 0z m-171 107l85-85 0 170z m0-192l384 0 0 43-384 0z m0 384l0-43 384 0 0 43z m171-128l213 0 0 43-213 0z m0-85l213 0 0 42-213 0z"/>
<glyph glyph-name="text-quote" unicode="&#57425;" d="M160 384c-53 0-96-43-96-96l0-160 160 0 0 160-128 0c0 35 29 64 64 64z m224 0c-53 0-96-43-96-96l0-160 160 0 0 160-128 0c0 35 29 64 64 64z m-288-128l96 0 0-96-96 0z m224 0l96 0 0-96-96 0z"/>
<glyph glyph-name="text-strikethrough" unicode="&#57426;" d="M353 340l-39 0c-5 27-23 41-54 41-15 0-28-4-38-12-9-7-14-17-14-30 0-17 15-32 46-45l39-16c24-11 41-21 51-33 9-11 14-26 14-44 0-26-9-46-27-61-19-15-44-22-76-22-59 0-92 25-100 75l42 0 1-3c5-26 25-40 59-40 18 0 32 5 43 13 11 8 17 19 17 32 0 18-15 34-46 47l-35 14c-26 11-44 22-54 34-10 12-15 27-15 46 0 50 30 76 92 76 56 0 87-24 94-70z m-255-91l0 24 320 0 0-24z"/>
<glyph glyph-name="text-underline" unicode="&#57427;" d="M357 132l0-24-208 0 0 24z m-6 279l0-146c0-65-33-97-101-97-34 0-59 7-74 23-16 16-24 40-24 73l0 147 30 0 0-142c0-48 24-71 70-71 24 0 42 6 53 18 10 12 15 32 15 60l0 135z"/>
<glyph glyph-name="repositories" unicode="&#57358;" d="M112 448c-26 0-48-22-48-48l0-224c0-26 22-48 48-48l64 0 0-16c0-26 22-48 48-48l195 0c19 0 29 10 29 29l0 254c0 19-11 31-33 37l-79 0 0 31c0 22-11 33-32 33-36 0-100 0-192 0z m3-32l189 0 0-32-73 0c-16 0-31-6-42-16l-55 0 0-32 41 0 0-112-60 0c-7 0-13-1-19-3l0 179c0 9 8 16 19 16z m112-64c72 0 126 0 162 0 18 0 27-10 27-29l0-163-189 0c-7 0-13-1-19-3l0 179c0 9 8 16 19 16z m13-48l0-32 112 0 0 32z m-112-16l0-32 48 0 0 32z m192-48l0-32 64 0 0 32z m-80 0l0-32 48 0 0 32z m-128-48l64 0 0-32-64 0c-9 0-16 7-16 16 0 9 7 16 16 16z m116-64c77 0 135 0 174 0 25 0 25-32 0-32-34 0-92 0-174 0-11 0-20 7-20 16 0 9 9 16 20 16z"/>
<glyph glyph-name="repository" unicode="&#57359;" d="M144 448c-26 0-48-22-48-48l0-288c0-26 22-48 48-48l0 32c-9 0-16 7-16 16 0 9 7 16 16 16l256 0 0-32-128 0 0-32c86 0 128 0 128 0 21 6 32 21 32 47l0 289c0 32-10 48-31 48-61 0-146 0-257 0z m2-32c102 0 181 0 237 0 11 0 17-5 17-15l0-241-254 0c-6 0-12-1-18-3l0 243c0 9 8 16 18 16z m30-32l0-32 128 0 0 32z m0-80l0-32 160 0 0 32z m0-80l0-32 80 0 0 32z m128 0l0-32 48 0 0 32z m-128-112l0-64 32 16 32-16 0 64z"/>
<glyph glyph-name="repository-stack" unicode="&#57360;" d="M128 448c-26 0-48-22-48-48l0-288c0-26 22-48 48-48 122 0 213 0 274 0 20 0 30 10 30 30l0 320c-4 23-14 34-32 34-61 0-151 0-272 0z m2-32l270 0 0-192-270 0c-6 0-12-1-18-3l0 179c0 9 8 16 18 16z m30-48l0-32 192 0 0 32z m0-64l0-32 96 0 0 32z m144 0l0-32 48 0 0 32z m-174-112l270 0 0-32-270 0c-10 0-18 7-18 16 0 9 8 16 18 16z m0-64l270 0 0-32-270 0c-10 0-18 7-18 16 0 9 8 16 18 16z"/>
<glyph glyph-name="booklab" unicode="&#57428;" d="M461 167l0 288c0 11-9 20-22 20l-300 0c-49 0-88-37-88-82l0-274c0-45 39-82 88-82l300 0c13 0 22 9 22 20l0 14c0 6-3 12-8 16-4 13-4 51 0 64 5 4 8 10 8 16z m-56-75l-269 0c-17 0-31 12-31 27 0 15 14 27 31 27l269 0c-1-14-1-40 0-54z m-45 163c11-18-2-42-23-42l-145 0c-21 0-34 24-23 42l45 72 0 64-7 0c-3 0-5 2-5 4l0 10c0 2 2 4 5 4l116 0c2 0 4-2 4-4l0-10c0-2-2-4-4-4l-8 0 0-64z m-167-24l142 0c7 0 11 8 8 14l-45 72c-2 3-3 6-3 9l0 64-62 0 0-64c0-3-1-6-3-9l-45-72c-3-6 1-14 8-14z m53 34c-9 0-16 6-16 15 0 8 16 31 16 31 0 0 15-23 15-31 0-9-7-15-15-15z m26 53c-6 0-11 4-11 10 0 6 11 21 11 21 0 0 10-15 10-21 0-6-4-10-10-10z m18-74c-10 0-19 8-19 19 0 10 19 37 19 37 0 0 19-27 19-37 0-11-9-19-19-19z"/>
</font>
</defs>
</svg>
