<?xml version="1.0" standalone="no"?>
<!DOCTYPE svg PUBLIC "-//W3C//DTD SVG 1.1//EN" "http://www.w3.org/Graphics/SVG/1.1/DTD/svg11.dtd" >
<!--
2013-9-30: Created.
-->
<svg>
<metadata>
Created by iconfont
</metadata>
<defs>

<font id="iconfont" horiz-adv-x="1024" >
  <font-face
    font-family="iconfont"
    font-weight="500"
    font-stretch="normal"
    units-per-em="1024"
    ascent="896"
    descent="-128"
  />
    <missing-glyph />
    
    <glyph glyph-name="rep_fill" unicode="&#58932;" d="M170.666667 896h682.666666a136.533333 136.533333 0 0 0 136.533334-136.533333v-750.933334a136.533333 136.533333 0 0 0-136.533334-136.533333H170.666667a136.533333 136.533333 0 0 0-136.533334 136.533333V759.466667a136.533333 136.533333 0 0 0 136.533334 136.533333z m106.7008-566.340267h271.9744l-110.045867-154.965333 83.421867-59.255467 225.006933 316.6208H473.565867l112.64 161.5872-83.968 58.5728-224.8704-322.56z"  horiz-adv-x="1024" />

    
    <glyph glyph-name="rep" unicode="&#58933;" d="M170.666667 793.6a34.133333 34.133333 0 0 1-34.133334-34.133333v-750.933334a34.133333 34.133333 0 0 1 34.133334-34.133333h682.666666a34.133333 34.133333 0 0 1 34.133334 34.133333V759.466667a34.133333 34.133333 0 0 1-34.133334 34.133333H170.666667zM170.666667 896h682.666666a136.533333 136.533333 0 0 0 136.533334-136.533333v-750.933334a136.533333 136.533333 0 0 0-136.533334-136.533333H170.666667a136.533333 136.533333 0 0 0-136.533334 136.533333V759.466667a136.533333 136.533333 0 0 0 136.533334 136.533333zM549.341867 329.65973299999996H277.367467l224.802133 322.56 83.968-58.5728-112.64-161.5872h274.2272l-225.006933-316.6208-83.421867 59.255467z"  horiz-adv-x="1024" />

    
    <glyph glyph-name="docs" unicode="&#58934;" d="M307.2 622.933333h409.6v-102.4H307.2zM170.666667 793.6a34.133333 34.133333 0 0 1-34.133334-34.133333v-750.933334a34.133333 34.133333 0 0 1 34.133334-34.133333h682.666666a34.133333 34.133333 0 0 1 34.133334 34.133333V759.466667a34.133333 34.133333 0 0 1-34.133334 34.133333H170.666667zM170.666667 896h682.666666a136.533333 136.533333 0 0 0 136.533334-136.533333v-750.933334a136.533333 136.533333 0 0 0-136.533334-136.533333H170.666667a136.533333 136.533333 0 0 0-136.533334 136.533333V759.466667a136.533333 136.533333 0 0 0 136.533334 136.533333zM307.2 213.33333300000004h409.6v-102.4H307.2zM307.2 418.133333h273.066667v-102.4H307.2z"  horiz-adv-x="1024" />

    
    <glyph glyph-name="list" unicode="&#58935;" d="M433.230769 896h551.384616v-157.538462H433.230769zM39.384615 896h236.307693v-157.538462H39.384615zM433.230769 29.53846199999998h551.384616v-157.538462H433.230769zM39.384615 29.53846199999998h236.307693v-157.538462H39.384615zM39.384615 502.153846h945.23077v-157.538461H39.384615z"  horiz-adv-x="1024" />

    
    <glyph glyph-name="watch" unicode="&#58936;" d="M675.63636347 711.27272695c-161.75454521 0-317.45454521-104.31818174-467.91818173-327.27272695 150.38181826-222.95454521 306.16363652-327.27272695 467.91818173-327.27272695 161.75454521 0 317.45454521 104.31818174 467.91818174 327.27272695-150.38181826 222.95454521-306.16363652 327.27272695-467.91818173 327.27272695z m1e-8-777.27272695C449.73636348-66 245.19090869 83.97272695000004 62 384 245.19090869 684.02727305 449.73636348 834 675.63636347 834s430.44545479-149.97272695 613.63636348-450C1106.08181826 83.97272695000004 901.53636347-66 675.63636347-66zM640.7 585.6a122.72727305 122.72727305 0 0 1 217.14545479-108.57272695 204.54545479 204.54545479 0 1 0-217.14545479 108.57272695z"  horiz-adv-x="1396" />

    
    <glyph glyph-name="card" unicode="&#58937;" d="M109.714286 786.285714v-219.428571h219.428571v219.428571h-219.428571zM73.142857 896h292.571429a73.142857 73.142857 0 0 0 73.142857-73.142857v-292.571429a73.142857 73.142857 0 0 0-73.142857-73.142857H73.142857a73.142857 73.142857 0 0 0-73.142857 73.142857V822.857143a73.142857 73.142857 0 0 0 73.142857 73.142857zM694.857143 786.285714v-219.428571h219.428571v219.428571h-219.428571zM658.285714 896h292.571429a73.142857 73.142857 0 0 0 73.142857-73.142857v-292.571429a73.142857 73.142857 0 0 0-73.142857-73.142857H658.285714a73.142857 73.142857 0 0 0-73.142857 73.142857V822.857143a73.142857 73.142857 0 0 0 73.142857 73.142857zM109.714286 201.14285700000005v-219.428571h219.428571v219.428571h-219.428571zM73.142857 310.85714299999995h292.571429a73.142857 73.142857 0 0 0 73.142857-73.142857v-292.571429a73.142857 73.142857 0 0 0-73.142857-73.142857H73.142857a73.142857 73.142857 0 0 0-73.142857 73.142857V237.71428600000002a73.142857 73.142857 0 0 0 73.142857 73.142857zM694.857143 201.14285700000005v-219.428571h219.428571v219.428571h-219.428571zM658.285714 310.85714299999995h292.571429a73.142857 73.142857 0 0 0 73.142857-73.142857v-292.571429a73.142857 73.142857 0 0 0-73.142857-73.142857H658.285714a73.142857 73.142857 0 0 0-73.142857 73.142857V237.71428600000002a73.142857 73.142857 0 0 0 73.142857 73.142857z"  horiz-adv-x="1024" />

    
    <glyph glyph-name="sanjiaoxing" unicode="&#58938;" d="M962 384L62-66V834z"  horiz-adv-x="1024" />

    
    <glyph glyph-name="docs_fill" unicode="&#58940;" d="M170.666667 896h682.666666a136.533333 136.533333 0 0 0 136.533334-136.533333v-750.933334a136.533333 136.533333 0 0 0-136.533334-136.533333H170.666667a136.533333 136.533333 0 0 0-136.533334 136.533333V759.466667a136.533333 136.533333 0 0 0 136.533334 136.533333z m136.533333-273.066667v-102.4h409.6V622.933333H307.2z m0-409.6v-102.4h409.6V213.33333300000004H307.2z m0 204.8v-102.4h273.066667V418.133333H307.2z"  horiz-adv-x="1024" />

    
    <glyph glyph-name="watch_fill" unicode="&#58941;" d="M675.63636347-66C449.73636348-66 245.19090869 83.97272695000004 62 384 245.19090869 684.02727305 449.73636348 834 675.63636347 834s430.44545479-149.97272695 613.63636348-450C1106.08181826 83.97272695000004 901.53636347-66 675.63636347-66z m-34.93636347 651.6a204.54545479 204.54545479 0 1 1 217.14545479-108.57272695 122.72727305 122.72727305 0 0 0-217.14545479 108.57272695z"  horiz-adv-x="1396" />

    
    <glyph glyph-name="fenzu6" unicode="&#58942;" d="M593.81818174-66C398.02727305-66 220.72727305 83.97272695000004 62 384 220.72727305 684.02727305 398.02727305 834 593.81818174 834s373.09090869-149.97272695 531.81818174-450C966.90909131 83.97272695000004 789.60909131-66 593.81818174-66z m0 163.63636347a286.36363652 286.36363652 0 1 1 0 572.72727306 286.36363652 286.36363652 0 0 1 0-572.72727305zM593.81818174 384m-122.72727305 0a122.72727305 122.72727305 0 1 1 245.4545461 0 122.72727305 122.72727305 0 1 1-245.4545461 0Z"  horiz-adv-x="1210" />

    
    <glyph glyph-name="dashboard_fill" unicode="&#58943;" d="M0 896m146.285714 0l146.285715 0q146.285714 0 146.285714-146.285714l0-146.285715q0-146.285714-146.285714-146.285714l-146.285715 0q-146.285714 0-146.285714 146.285714l0 146.285715q0 146.285714 146.285714 146.285714ZM0 310.85714299999995m146.285714 0l146.285715 0q146.285714 0 146.285714-146.285714l0-146.285715q0-146.285714-146.285714-146.285714l-146.285715 0q-146.285714 0-146.285714 146.285714l0 146.285715q0 146.285714 146.285714 146.285714ZM585.142857 896m146.285714 0l146.285715 0q146.285714 0 146.285714-146.285714l0-146.285715q0-146.285714-146.285714-146.285714l-146.285715 0q-146.285714 0-146.285714 146.285714l0 146.285715q0 146.285714 146.285714 146.285714ZM585.142857 310.85714299999995m146.285714 0l146.285715 0q146.285714 0 146.285714-146.285714l0-146.285715q0-146.285714-146.285714-146.285714l-146.285715 0q-146.285714 0-146.285714 146.285714l0 146.285715q0 146.285714 146.285714 146.285714Z"  horiz-adv-x="1024" />

    
    <glyph glyph-name="dashboard" unicode="&#58944;" d="M146.285714 786.285714a36.571429 36.571429 0 0 1-36.571428-36.571428v-146.285715a36.571429 36.571429 0 0 1 36.571428-36.571428h146.285715a36.571429 36.571429 0 0 1 36.571428 36.571428V749.714286a36.571429 36.571429 0 0 1-36.571428 36.571428H146.285714zM146.285714 896h146.285715a146.285714 146.285714 0 0 0 146.285714-146.285714v-146.285715a146.285714 146.285714 0 0 0-146.285714-146.285714H146.285714a146.285714 146.285714 0 0 0-146.285714 146.285714V749.714286a146.285714 146.285714 0 0 0 146.285714 146.285714zM146.285714 201.14285700000005a36.571429 36.571429 0 0 1-36.571428-36.571428v-146.285715a36.571429 36.571429 0 0 1 36.571428-36.571428h146.285715a36.571429 36.571429 0 0 1 36.571428 36.571428v146.285715a36.571429 36.571429 0 0 1-36.571428 36.571428H146.285714zM146.285714 310.85714299999995h146.285715a146.285714 146.285714 0 0 0 146.285714-146.285714v-146.285715a146.285714 146.285714 0 0 0-146.285714-146.285714H146.285714a146.285714 146.285714 0 0 0-146.285714 146.285714v146.285715a146.285714 146.285714 0 0 0 146.285714 146.285714zM731.428571 786.285714a36.571429 36.571429 0 0 1-36.571428-36.571428v-146.285715a36.571429 36.571429 0 0 1 36.571428-36.571428h146.285715a36.571429 36.571429 0 0 1 36.571428 36.571428V749.714286a36.571429 36.571429 0 0 1-36.571428 36.571428h-146.285715zM731.428571 896h146.285715a146.285714 146.285714 0 0 0 146.285714-146.285714v-146.285715a146.285714 146.285714 0 0 0-146.285714-146.285714h-146.285715a146.285714 146.285714 0 0 0-146.285714 146.285714V749.714286a146.285714 146.285714 0 0 0 146.285714 146.285714zM731.428571 201.14285700000005a36.571429 36.571429 0 0 1-36.571428-36.571428v-146.285715a36.571429 36.571429 0 0 1 36.571428-36.571428h146.285715a36.571429 36.571429 0 0 1 36.571428 36.571428v146.285715a36.571429 36.571429 0 0 1-36.571428 36.571428h-146.285715zM731.428571 310.85714299999995h146.285715a146.285714 146.285714 0 0 0 146.285714-146.285714v-146.285715a146.285714 146.285714 0 0 0-146.285714-146.285714h-146.285715a146.285714 146.285714 0 0 0-146.285714 146.285714v146.285715a146.285714 146.285714 0 0 0 146.285714 146.285714z"  horiz-adv-x="1024" />

    
    <glyph glyph-name="Group" unicode="&#58945;" d="M841.142857 493.714286a146.285714 146.285714 0 1 1 0 292.571428 146.285714 146.285714 0 0 1 0-292.571428z m0-109.714286a256 256 0 1 0 0 512 256 256 0 0 0 0-512zM292.571429 392.411429A87.186286 87.186286 0 1 1 292.571429 566.857143a87.186286 87.186286 0 0 1 0-174.445714z m0-109.714286A196.900571 196.900571 0 1 0 292.571429 676.571429a196.900571 196.900571 0 0 0 0-393.874286zM293.229714-1.462857A236.251429 236.251429 0 0 1 292.571429-18.285714c0-37.595429 9.874286-68.096 29.257142-92.672-9.508571-0.146286-19.236571-0.146286-29.257142-0.146286-201.947429 0-292.571429 19.309714-292.571429 112.493714 0 93.257143 90.624 225.060571 292.571429 225.060572 32.182857 0 61.513143-3.364571 88.137142-9.362286-24.137143-32.694857-43.446857-67.510857-57.782857-101.741714a318.171429 318.171429 0 0 1-30.354285 1.462857c-109.641143 0-173.787429-52.955429-181.979429-104.301714 30.793143-9.216 88.064-13.897143 181.979429-13.897143h0.658285zM841.142857-18.285714c133.851429 0 217.526857 7.094857 266.532572 22.601143 27.209143 8.630857 26.038857 7.314286 26.038857 13.970285 0 82.358857-117.394286 182.857143-292.571429 182.857143s-292.571429-100.498286-292.571428-182.857143c0-6.729143-1.170286-5.339429 26.038857-13.970285 49.005714-15.506286 132.608-22.601143 266.532571-22.601143z m0-109.714286C578.56-128 438.857143-102.912 438.857143 18.285714s139.702857 292.571429 402.285714 292.571429 402.285714-171.373714 402.285714-292.571429-139.702857-146.285714-402.285714-146.285714z"  horiz-adv-x="1243" />

    
    <glyph glyph-name="gitlab" unicode="&#58947;" d="M1095.094857 317.732571l-61.366857 189.001143L911.945143 881.152a20.772571 20.772571 0 0 1-39.643429 0L750.518857 506.88H346.697143L224.841143 881.152C218.697143 900.388571 191.341714 900.388571 185.124571 881.225143L63.341714 506.88 1.974857 317.732571a42.203429 42.203429 0 0 1 15.140572-46.811428L548.571429-114.980571l531.456 385.974857a42.057143 42.057143 0 0 1 15.067428 46.811428"  horiz-adv-x="1097" />

    
    <glyph glyph-name="github" unicode="&#58948;" d="M511.122286 895.341714a511.122286 511.122286 0 0 1-161.645715-996.059428c25.6-4.754286 34.962286 11.044571 34.962286 24.576 0 12.141714-0.438857 52.443429-0.731428 95.085714-142.116571-30.866286-172.178286 60.342857-172.178286 60.342857-23.186286 59.099429-56.685714 74.825143-56.685714 74.825143-46.372571 31.744 3.437714 31.085714 3.437714 31.085714 51.346286-3.657143 78.336-52.662857 78.336-52.662857 45.641143-78.189714 119.588571-55.588571 148.772571-42.496 4.608 32.987429 17.846857 55.588571 32.475429 68.315429-113.517714 12.946286-232.886857 56.758857-232.886857 252.635428 0 55.734857 19.968 101.376 52.662857 137.142857-5.339429 12.873143-22.820571 64.877714 4.973714 135.314286 0 0 42.934857 13.677714 140.580572-52.443428a490.276571 490.276571 0 0 0 128 17.188571c43.373714-0.146286 87.113143-5.851429 128-17.188571 97.572571 66.121143 140.434286 52.443429 140.434285 52.443428 27.794286-70.436571 10.24-122.441143 4.973715-135.314286a197.485714 197.485714 0 0 0 52.662857-137.142857c0-196.315429-119.661714-239.542857-233.472-252.196571 18.358857-15.872 34.669714-46.957714 34.669714-94.646857 0-68.388571-0.585143-123.465143-0.585143-140.288 0-13.604571 9.216-29.549714 35.108572-24.502857A511.122286 511.122286 0 0 1 511.122286 895.414857z"  horiz-adv-x="1024" />

    
    <glyph glyph-name="google" unicode="&#58949;" d="M980.650667 496.503467H521.762133v-188.552534h262.144a223.8464 223.8464 0 0 0-97.28-147.114666c-43.690667-29.218133-99.464533-46.421333-165.000533-46.421334-126.839467 0-234.154667 85.674667-272.520533 200.840534a295.389867 295.389867 0 0 0-15.223467 92.637866c0 32.085333 5.5296 63.351467 15.223467 92.5696 38.5024 115.0976 145.8176 200.772267 272.657066 200.772267 71.543467 0 135.645867-24.576 186.231467-72.840533l139.6736 139.810133C763.221333 846.848 653.1072 895.1808 521.762133 895.1808a486.877867 486.877867 0 0 1-487.082666-487.424 486.877867 486.877867 0 0 1 487.082666-487.355733c131.618133 0 241.8688 43.690667 322.3552 118.101333 92.091733 84.855467 145.271467 209.851733 145.271467 358.331733 0 34.542933-3.003733 67.720533-8.738133 99.669334z"  horiz-adv-x="1024" />

    
    <glyph glyph-name="user" unicode="&#58950;" d="M512 651.605333m-244.394667 0a244.394667 244.394667 0 1 1 488.789334 0 244.394667 244.394667 0 1 1-488.789334 0ZM512-81.493333c250.624 0 384 23.978667 384 139.690666 0 115.626667-133.376 279.296-384 279.296-250.624 0-384-163.669333-384-279.296 0-115.712 133.376-139.690667 384-139.690666z"  horiz-adv-x="1024" />

    
    <glyph glyph-name="new" unicode="&#58951;" d="M421.647059 22.588235000000054V-67.76470600000005H120.470588a120.470588 120.470588 0 0 0-120.470588 120.470588V775.529412a120.470588 120.470588 0 0 0 120.470588 120.470588h722.82353a120.470588 120.470588 0 0 0 120.470588-120.470588v-240.941177h-90.352941V775.529412a30.117647 30.117647 0 0 1-30.117647 30.117647H120.470588a30.117647 30.117647 0 0 1-30.117647-30.117647v-722.82353a30.117647 30.117647 0 0 1 30.117647-30.117647h301.176471zM783.058824 353.88235299999997m45.17647 0l0 0q45.176471 0 45.176471-45.176471l0-391.529411q0-45.176471-45.176471-45.176471l0 0q-45.176471 0-45.17647 45.176471l0 391.529411q0 45.176471 45.17647 45.176471ZM1069.176471 112.94117600000004a45.176471 45.176471 0 0 0-45.176471-45.17647h-391.529412a45.176471 45.176471 0 1 0 0 90.352941H1024a45.176471 45.176471 0 0 0 45.176471-45.176471z"  horiz-adv-x="1084" />

    
    <glyph glyph-name="edit" unicode="&#58952;" d="M585.142857 822.857143v-109.714286H146.285714a36.571429 36.571429 0 0 1-36.571428-36.571428v-658.285715a36.571429 36.571429 0 0 1 36.571428-36.571428h731.428572a36.571429 36.571429 0 0 1 36.571428 36.571428V384H1024v-365.714286a146.285714 146.285714 0 0 0-146.285714-146.285714H146.285714a146.285714 146.285714 0 0 0-146.285714 146.285714V676.571429a146.285714 146.285714 0 0 0 146.285714 146.285714h438.857143zM985.234286 861.622857l77.531428-77.531428-585.142857-585.142858-77.531428 77.531429z"  horiz-adv-x="1097" />

    
    <glyph glyph-name="bell" unicode="&#58953;" d="M248.885895 234.98105299999997h523.102316V553.6067370000001a261.551158 261.551158 0 0 1-523.102316 0v-318.625684zM510.383158 896a342.393263 342.393263 0 0 0 342.393263-342.393263v-399.46779H168.043789V553.6067370000001A342.393263 342.393263 0 0 0 510.383158 896zM53.894737 239.77768400000002m40.421052 0l832.188632 0q40.421053 0 40.421053-40.421052l0-4.742737q0-40.421053-40.421053-40.421053l-832.188632 0q-40.421053 0-40.421052 40.421053l0 4.742737q0 40.421053 40.421052 40.421052ZM584.111158 40.04378899999995h80.842105a154.570105 154.570105 0 1 0-309.086316 0h80.842106a73.728 73.728 0 1 1 147.402105 0z"  horiz-adv-x="1024" />

    
    <glyph glyph-name="down" unicode="&#58954;" d="M193.80906668 797.62773334L45.12426668 656.72533334l655.5648-693.0432L1356.45866668 656.72533334 1207.77386668 797.62773334 700.68906668 261.46133334z"  horiz-adv-x="1441" />

    
    <glyph glyph-name="star" unicode="&#58956;" d="M544 134.20799999999997l227.328-119.488a16 16 0 0 1 23.168 16.896l-43.392 253.12 183.936 179.2a16 16 0 0 1-8.896 27.328L672 528.192 558.336 758.4a16 16 0 0 1-28.672 0L416 528.192l-254.144-36.928a16 16 0 0 1-8.896-27.328l183.936-179.2-43.392-253.12a16 16 0 0 1 23.168-16.896L544 134.20799999999997z m-182.656-204.48a112 112 0 0 0-162.496 118.08l34.88 203.392-147.776 144a112 112 0 0 0 62.08 191.04l204.16 29.696 91.392 184.96a112 112 0 0 0 200.832 0l91.328-184.96 204.16-29.696a112 112 0 0 0 62.08-191.04l-147.712-144 34.88-203.392a112 112 0 0 0-162.56-118.08l-182.592 96-182.656-96z"  horiz-adv-x="1088" />

    
    <glyph glyph-name="export" unicode="&#58957;" d="M908.288 8.53333299999997v102.4H1024a34.133333 34.133333 0 0 1 34.133333 34.133334V554.666667a34.133333 34.133333 0 0 1-34.133333 34.133333H136.533333a34.133333 34.133333 0 0 1-34.133333-34.133333v-409.6a34.133333 34.133333 0 0 1 34.133333-34.133334h107.451734V8.53333299999997H136.533333a136.533333 136.533333 0 0 0-136.533333 136.533334V554.666667a136.533333 136.533333 0 0 0 136.533333 136.533333h887.466667a136.533333 136.533333 0 0 0 136.533333-136.533333v-409.6a136.533333 136.533333 0 0 0-136.533333-136.533334h-115.712z m0 0v102.4H1024a34.133333 34.133333 0 0 1 34.133333 34.133334V554.666667a34.133333 34.133333 0 0 1-34.133333 34.133333H136.533333a34.133333 34.133333 0 0 1-34.133333-34.133333v-409.6a34.133333 34.133333 0 0 1 34.133333-34.133334h107.451734V8.53333299999997H136.533333a136.533333 136.533333 0 0 0-136.533333 136.533334V554.666667a136.533333 136.533333 0 0 0 136.533333 136.533333h887.466667a136.533333 136.533333 0 0 0 136.533333-136.533333v-409.6a136.533333 136.533333 0 0 0-136.533333-136.533334h-115.712zM853.333333 725.333333H955.733333v68.266667A102.4 102.4 0 0 1 853.333333 896h-546.133333A102.4 102.4 0 0 1 204.8 793.6v-68.266667h102.4v68.266667h546.133333v-68.266667zM819.2 486.4h136.533333v-136.533333h-136.533333zM307.2 179.20000000000005v-204.8h546.133333v204.8h-546.133333zM204.8 281.6h750.933333v-409.6H204.8V281.6z"  horiz-adv-x="1160" />

    
    <glyph glyph-name="star_fill" unicode="&#58958;" d="M551.384615 29.53846199999998l-229.139692-120.516924a78.769231 78.769231 0 0 0-114.215385 83.101539l43.716924 255.133538L66.323692 427.953231a78.769231 78.769231 0 0 0 43.716923 134.380307l256.157539 37.179077L480.728615 831.645538a78.769231 78.769231 0 0 0 141.312 0L736.492308 599.512615l256.157538-37.179077a78.769231 78.769231 0 0 0 43.716923-134.380307l-185.422769-180.696616 43.795692-255.212307a78.769231 78.769231 0 0 0-114.294154-82.944L551.384615 29.53846199999998z"  horiz-adv-x="1102" />

    
    <glyph glyph-name="search" unicode="&#58955;" d="M512 11.636363999999958a418.909091 418.909091 0 1 0 0 837.818181 418.909091 418.909091 0 0 0 0-837.818181z m0 93.090909a325.818182 325.818182 0 1 1 0 651.636363 325.818182 325.818182 0 0 1 0-651.636363zM698.181818 91.41527299999996L769.489455 151.27272700000003l146.245818-192.139636-71.307637-59.857455z"  horiz-adv-x="1024" />

    


  </font>
</defs>
</svg>
