<svg t="1550042505031" fill="#D9D9D9" viewBox="0 0 1024 1024" version="1.1" xmlns="http://www.w3.org/2000/svg" p-id="2905" xmlns:xlink="http://www.w3.org/1999/xlink" width="200" height="200"><defs><style type="text/css"></style></defs><path d="M800.2 960.7H223.8c-88.3 0-160.1-71.8-160.1-160.1V224.1C63.7 135.8 135.5 64 223.8 64h576.5c88.3 0 160.1 71.8 160.1 160.1v576.5c0 88.3-71.9 160.1-160.2 160.1zM223.8 128c-53 0-96.1 43.1-96.1 96.1v576.5c0 53 43.1 96.1 96.1 96.1h576.5c53 0 96.1-43.1 96.1-96.1V224.1c0-53-43.1-96.1-96.1-96.1H223.8z" p-id="2906"></path></svg>