<?xml version="1.0" encoding="UTF-8"?>
<svg viewBox="0 0 80 81" version="1.1" xmlns="http://www.w3.org/2000/svg" xmlns:xlink="http://www.w3.org/1999/xlink">
    <defs>
        <path d="M2.84217094e-13,11.6312188 C7.17538011,14.8472942 13.2741816,16.455332 18.2964045,16.455332 C23.3186274,16.455332 29.0210422,14.8472942 35.4036488,11.6312188 C43.1186534,4.95402987 49.9179753,1.21071624 55.8016147,0.4012779 C61.6852541,-0.408160444 67.7212212,1.2343297 73.9095159,5.32874834 C72.6594646,7.2024932 71.7305832,8.57715338 71.1228718,9.45272887 C67.7718405,14.2808115 64.6547923,18.2805355 61.771727,21.4519008 C56.2707268,27.5029887 52.3557312,30.6065245 43.8735178,32.1859164 C35.3913043,33.7653083 31.5725897,33.3534863 21.0283396,29.8417969 C17.9006974,28.8001573 12.6351625,25.7358006 9.01613365,22.3420507 C7.05043881,20.4987173 4.04506093,16.92844 2.84217094e-13,11.6312188 Z" ></path>
    </defs>
    <g  stroke="none" stroke-width="1" fill="none" fill-rule="evenodd">
        <g  transform="translate(38.500000, 42.000000) scale(-1, 1) translate(-38.500000, -42.000000) translate(-1.000000, 25.000000)">
            <path d="M35.3420113,14.6908012 L41.6056071,14.109682 C41.0624054,16.3270723 39.8211466,18.4130476 37.9183021,20.0097238 C35.5146531,22.0266247 32.5254317,22.8683343 29.673793,22.5877187 C30.3094446,22.2378987 30.9212918,21.8208614 31.4992799,21.3358719 C33.6139823,19.5614259 34.9115794,17.1826607 35.3420113,14.6908012 Z M35.244432,10.5017538 C34.8892015,8.91608697 34.1636582,7.39696071 33.0544807,6.07509441 C31.2192993,3.88801039 28.6699546,2.64140405 26,2.3786671 C30.4828308,-0.0883823395 36.1495821,0.787651756 39.4735029,4.74894632 C39.9253282,5.28741082 40.3134951,5.85860773 40.6389039,6.4537012 C39.7016668,7.10805086 38.497012,7.69440561 37.5049479,8.47249793 C36.9325155,8.92146619 36.1790102,9.59788483 35.244432,10.5017538 Z"  fill="#1450D7" opacity="0.949999988"></path>
            <g >
                <g >
                    <mask  fill="white">
                        <use xlink:href="#path-1"></use>
                    </mask>
                    <use  fill="#2F70FF" xlink:href="#path-1"></use>
                    <path d="M66.673666,15.7980891 C63.8453094,16.9830151 61.2324031,16.9830151 58.834947,15.7980891 C56.437491,14.6131631 54.5513623,13.3471334 53.176561,12 C50.9130203,18.5678811 45.8053385,22.6818918 37.8535156,24.3420322 C33.3947653,25.2729069 23.7769267,25.2729069 9,24.3420322 L27.5916734,41.6449535 L64.7344908,33.2569092 L66.673666,15.7980891 Z" fill="#81D8D3" mask="url(#mask-2)"></path>
                    <path d="M65.673666,21.4137314 C63.1885943,22.4787456 60.8928231,22.4787456 58.7863524,21.4137314 C56.6798817,20.3487171 55.0226772,19.2108066 53.814739,18 C51.8259301,23.9032269 47.3381807,27.6009093 40.3514908,29.0930474 C36.4339104,29.9297198 27.9834134,29.9297198 15,29.0930474 L31.3351545,44.6449535 L63.9698534,37.1057596 L65.673666,21.4137314 Z"  fill="#E0EAFF" mask="url(#mask-2)"></path>
                </g>
            </g>
            <path d="M72.330892,3.78656074 L75.5140501,3.78653896 C76.1540105,3.78653458 76.6728044,4.30532138 76.6728088,4.94528172 C76.6728088,4.94528841 76.6728088,4.9452951 76.6728088,4.94530179 L76.6728088,4.94530179 C76.6728016,5.63228323 76.2172279,6.23596372 75.5565945,6.4243968 C72.7947026,7.21213862 71.1826426,7.63295683 70.7204054,7.68681888 C70.1990455,7.74757018 70.3496237,7.21998807 71.1721401,6.10407255 L71.1721401,4.94532061 C71.1721401,4.3053583 71.6909297,3.78656512 72.330892,3.78656074 Z"  fill="#2F70FF" transform="translate(73.544916, 5.739027) rotate(-16.000000) translate(-73.544916, -5.739027) "></path>
        </g>
    </g>
</svg>