<?xml version="1.0" encoding="UTF-8"?>
<svg width="1537px" height="1013px" viewBox="0 0 1537 1013" version="1.1" xmlns="http://www.w3.org/2000/svg" xmlns:xlink="http://www.w3.org/1999/xlink">
    <!-- Generator: Sketch 52.5 (67469) - http://www.bohemiancoding.com/sketch -->
    <title>Untitled 14</title>
    <desc>Created with Sketch.</desc>
    <g id="Page-1" stroke="none" stroke-width="1" fill="none" fill-rule="evenodd">
        <path d="M90.4832658,805 C89.2390684,801.418786 88.0258272,797.761083 86.8436928,794.025276 C80.2059057,773.026391 74.9974773,751.635692 71.2409888,730 L1348.1262,730 C1325.20683,751.984144 1298.31031,773.465709 1267.01563,794.025276 C1261.42053,797.701069 1255.56506,801.360786 1249.46027,805 L90.4832658,805 Z M109.749191,850 L1158.83951,850 C997.07385,918.209041 753.111457,970.4375 517.26702,970.4375 C323.718628,970.4375 182.461955,988.375439 109.749191,850 Z M65.5532544,685.000002 C64.5069855,671.874394 63.9876881,658.697117 64.0002215,645.499765 C64.0002215,602.124573 69.6181931,560.06199 80.1660585,520 L1459.52248,520 C1454.53918,572.077782 1433.23577,629.216599 1389.17123,685 L65.5532278,685 Z M94.3748779,475 C101.368046,456.091476 109.490872,437.730814 118.661415,419.999944 L878,420 L878,375 L145.057838,375 C232.982523,241.845409 383.959908,154 555.447964,154 C774.040108,154 1069.63128,221.880827 1133.46503,419.29763 C1199.30902,363.267726 1241.06275,317.901348 1327.51562,318.03424 C1393.89255,318.03424 1452.01909,384.333248 1459.80352,475 L94.3748779,475 Z" id="Path-3" fill="#2F70FF" opacity="0.0456147693"></path>
        <g id="undraw_folder_39kl" transform="translate(311.000000, 32.000000)">
            <path d="M809.24842,441.07951 C809.09712,452.91351 808.5552,466.17181 807.34004,480.14071 L841.42745,437.63692 L841.66712,438.30179 C838.876967,428.709131 834.748778,419.557577 829.40435,411.11713 L829.6742,411.74266 L809.24842,441.07951 Z" id="Path" fill="#57B894"></path>
            <path d="M809.27125,439.00348 L829.05755,410.58599 C823.36905,402.01599 816.55641,395.38048 808.77545,391.33299 C808.37067,391.12241 807.96451,390.9261 807.55836,390.73144 C807.86079,393.93491 809.51082,412.74875 809.27125,439.00348 Z" id="Path" fill="#57B894"></path>
            <path d="M845.68985,521.49777 C846.52757,516.54211 847.177993,511.597613 847.64112,506.66428 L796.23647,547.03808 L796.16708,546.68158 C795.393967,549.593753 794.587203,552.45612 793.74679,555.26868 L845.5691,520.71268 L845.68985,521.49777 Z" id="Path" fill="#57B894"></path>
            <path d="M802.10003,519.85133 L848.10692,477.21252 L848.28722,477.95019 C847.695394,464.765978 845.544143,451.698257 841.87842,439.02008 L807.14124,482.33347 C805.942647,495.42073 804.262243,507.926683 802.10003,519.85133 Z" id="Path" fill="#57B894"></path>
            <path d="M806.26742,481.59788 L744.72697,420.44182 L744.99406,419.69482 C740.002706,427.660322 735.828882,436.109726 732.53617,444.91432 L802.56829,511.33267 C804.23556,500.95147 805.42596,490.92422 806.26742,481.59788 Z" id="Path" fill="#57B894"></path>
            <path d="M800.96163,520.62408 C801.432403,518.088613 801.87412,515.569233 802.28678,513.06594 L731.99631,446.40245 L732.25585,445.65005 C731.093343,448.75201 730.002343,451.953703 728.98285,455.25513 L729.2376,454.50043 L800.96163,520.62408 Z" id="Path" fill="#57B894"></path>
            <path d="M796.60361,544.98753 L847.57992,504.95014 L847.72865,505.71469 C848.533789,496.772055 848.734578,487.785281 848.32965,478.81561 L801.70078,522.03117 C800.213833,529.974483 798.514777,537.626603 796.60361,544.98753 Z" id="Path" fill="#57B894"></path>
            <path d="M724.09842,517.90954 L781.73818,584.73054 C785.649169,575.964834 789.030907,566.972453 791.86518,557.80183 L722.49572,492.89969 C722.344497,501.524024 722.771366,510.148798 723.77346,518.71605 L724.09842,517.90954 Z" id="Path" fill="#57B894"></path>
            <path d="M806.57577,390.72923 L807.0435,390.48685 C794.94345,384.89503 782.2759,386.30351 770.46503,393.36585 L808.32442,439.01057 C808.57642,410.60472 806.60476,391.01035 806.57577,390.72923 Z" id="Path" fill="#57B894"></path>
            <path d="M792.27853,560.04708 C789.669432,568.301815 786.612821,576.40837 783.12227,584.33075 L835.41774,553.31934 L835.51705,554.09194 C839.18171,546.995457 841.932438,539.463238 843.70352,531.67523 C844.3857,528.61207 844.992407,525.54495 845.52364,522.47387 L793.0833,557.44148 C792.81612,558.31163 792.55216,559.18671 792.27853,560.04708 Z" id="Path" fill="#57B894"></path>
            <path d="M808.30142,441.127 L769.57371,394.43467 L769.87034,393.72056 C761.00878,399.17492 752.64818,407.82001 745.39174,419.07856 L806.43105,479.73656 C807.62269,465.92543 808.15374,452.82319 808.30142,441.127 Z" id="Path" fill="#57B894"></path>
            <path d="M792.36109,556.19267 C795.727727,545.057587 798.492154,533.749251 800.64236,522.3168 L728.7419,456.03039 C727.380567,460.50935 726.161233,465.1568 725.0839,469.97274 C723.601609,476.874382 722.751936,483.896845 722.54544,490.95285 L792.31142,556.22576 L792.36109,556.19267 Z" id="Path" fill="#57B894"></path>
            <path d="M866.42349,627.90965 C858.75896,636.92754 849.88525,646.79336 840.03982,656.77703 L893.4031,645.78243 L893.16362,646.44743 C897.133005,637.279639 899.790526,627.598174 901.05778,617.68866 L900.86671,618.34266 L866.42349,627.90965 Z" id="Path" fill="#57B894"></path>
            <path d="M897.78818,589.29377 C897.61064,588.87339 897.42307,588.46314 897.2344,588.05413 C895.42422,590.71431 884.69533,606.25694 867.76511,626.32529 L901.12939,617.05836 C902.21431,606.82964 901.19952,597.37384 897.78818,589.29377 Z" id="Path" fill="#57B894"></path>
            <path d="M788.99365,700.89983 C786.540883,702.64963 784.093883,704.339607 781.65265,705.96976 L843.60598,712.40822 L843.19826,713.08985 C847.00434,709.807363 850.65899,706.41403 854.16221,702.90985 L788.81972,701.21867 L788.99365,700.89983 Z" id="Path" fill="#57B894"></path>
            <path d="M810.676,684.01958 L873.30562,680.52348 L872.97401,681.20662 C880.927283,670.674772 887.605246,659.23805 892.86837,647.13541 L838.48817,658.33907 C829.21767,667.65423 819.946947,676.2144 810.676,684.01958 Z" id="Path" fill="#57B894"></path>
            <path d="M790.41042,699.87344 L855.20833,701.55053 L854.83521,702.23427 C861.159056,695.860276 867.04559,689.066824 872.4547,681.90021 L808.97816,685.44376 C802.76658,690.61318 796.577333,695.423073 790.41042,699.87344 Z" id="Path" fill="#57B894"></path>
            <path d="M713.28012,736.35702 C713.71112,735.86674 714.14701,735.36827 714.59642,734.84822 C727.629093,731.984027 740.26915,727.559827 752.24326,721.67129 L751.30872,675.19447 C751.761627,673.979863 752.19794,672.756863 752.61766,671.52547 L753.61258,721.00172 C762.215683,716.744986 770.555734,711.976091 778.58781,706.72072 L767.60081,620.67415 C768.04645,620.408443 768.500743,620.1354 768.96369,619.85502 L779.93669,705.79148 L779.99605,705.79764 C789.691109,699.368783 799.032885,692.422433 807.98079,684.98877 L796.54193,600.35605 C796.983263,599.99191 797.42498,599.624287 797.86708,599.25318 L809.3063,683.88865 C811.286007,682.236143 813.233103,680.577477 815.14759,678.91265 L804.78952,593.16754 C805.228353,592.763273 805.666447,592.355657 806.1038,591.94469 L816.46988,677.75727 C824.37527,670.82516 831.68767,663.86154 838.28421,657.21521 L829.89268,570.86201 L830.57486,570.45701 C828.21219,571.2217 825.81969,572.09011 823.4076,573.04039 C827.727367,567.488138 831.560084,561.573566 834.86312,555.36246 L782.06706,586.67059 C778.726669,594.020152 774.904954,601.141288 770.62682,607.98759 C769.68869,608.98048 768.75645,609.98754 767.83572,611.0212 L767.96982,612.07157 C767.56034,612.68095 767.148413,613.285847 766.73404,613.88626 L766.55567,612.48891 C766.03051,613.09414 765.51097,613.71116 764.99167,614.32863 C771.238434,605.45259 776.635243,596.007876 781.11059,586.11963 L723.89282,519.78757 C724.61182,525.94983 725.57282,532.13943 726.70656,538.2681 C721.304135,530.544378 714.886118,523.583412 707.62556,517.57289 L708.07562,518.08434 L697.71802,552.29808 C701.23202,563.59935 704.81468,576.37592 707.97678,590.03636 L726.99035,539.78258 C727.13457,540.542393 727.281367,541.301037 727.43074,542.05851 L708.4655,592.18315 C711.370833,605.000077 713.638247,617.413053 715.26774,629.42208 L739.05036,586.81761 C739.234253,587.400237 739.41799,587.978763 739.60157,588.55319 L715.56179,631.61854 C716.603003,639.63248 717.352397,647.43505 717.80997,655.02625 L747.34797,610.98388 C747.549897,611.527453 747.74882,612.060223 747.94474,612.58219 L718.09469,657.08994 L717.91854,656.77232 C718.083367,659.78086 718.200803,662.75243 718.27085,665.68703 L751.99407,622.98486 C752.21827,623.53886 752.426427,624.049753 752.61854,624.51754 L718.31154,667.95854 C718.32645,668.86864 718.34578,669.78247 718.35154,670.68526 C718.421755,679.34223 718.020524,687.996601 717.14963,696.60994 L720.42563,692.88449 C719.84563,694.29021 719.28111,695.67637 718.73207,697.04297 L716.86925,699.16133 C716.72135,700.44446 716.55853,701.71494 716.38845,702.97915 C715.753303,704.61795 715.14261,706.216673 714.55637,707.77532 C715.03293,704.8457 715.443967,701.898243 715.78948,698.93295 L640.87048,653.53502 C662.45076,700.53944 700.49519,744.23732 702.92938,747.00987 C704.565693,743.47691 706.041837,739.863507 707.35781,736.16966 C707.80492,736.10114 708.25158,736.02715 708.69823,735.95384 C708.54379,736.39684 708.39285,736.84319 708.23473,737.28276 C708.00133,737.32109 707.767,737.36462 707.53387,737.40162 C707.727237,737.444 707.929993,737.488 708.14214,737.53362 C707.2054,740.121233 706.2053,742.649127 705.14184,745.1173 C706.64066,743.6044 708.88654,741.2663 711.6064,738.24074 C728.81568,741.58645 774.98474,748.18437 813.26009,732.26664 L752.6284,722.7057 C740.130301,728.872988 726.912362,733.458762 713.28012,736.35702 Z M750.96612,658.15417 L752.31786,656.61702 L752.36176,658.7999 L751.01002,660.33705 L750.96612,658.15417 Z" id="Shape" fill="#57B894" fill-rule="nonzero"></path>
            <path d="M896.47915,587.42575 L896.994,587.53739 C891.24116,575.51299 880.58636,568.51825 866.98528,566.42439 L867.03128,625.72679 C885.34309,604.00964 896.32213,587.66072 896.47915,587.42575 Z" id="Path" fill="#57B894"></path>
            <path d="M777.47408,708.7136 C770.199568,713.407177 762.674901,717.701199 754.93349,721.5766 L814.99049,731.04676 L814.57421,731.70509 C821.922913,728.57681 828.845657,724.53006 835.17707,719.66151 C837.656163,717.737337 840.07967,715.762003 842.44759,713.73551 L779.75576,707.22001 C778.99498,707.71983 778.23356,708.22544 777.47408,708.7136 Z" id="Path" fill="#57B894"></path>
            <path d="M839.59749,655.88597 C849.32419,646.00884 858.08994,636.25632 865.66382,627.34225 L865.61716,566.67913 L866.30108,566.3184 C855.99722,564.8673 844.04387,566.19304 831.27425,570.23603 L839.59749,655.88597 Z" id="Path" fill="#57B894"></path>
            <path d="M707.13152,517.1749 C699.0727,510.78282 690.54266,506.57804 681.89168,505.1339 C681.44162,505.05876 680.99468,504.9976 680.54822,504.938 C681.82606,507.891 689.21052,525.27358 697.09806,550.31669 L707.13152,517.1749 Z" id="Path" fill="#57B894"></path>
            <path d="M707.40708,591.75372 L629.97708,552.61442 L630.00018,551.82142 C627.715366,560.939655 626.357648,570.265405 625.94771,579.6566 L713.08005,621.17583 C711.45687,610.78763 709.4895,600.88348 707.40708,591.75372 Z" id="Path" fill="#57B894"></path>
            <path d="M713.34804,622.91119 L625.89413,581.23877 L625.90849,580.44298 C625.76159,583.752313 625.71359,587.134457 625.76449,590.58941 L625.77349,589.79293 L714.42388,630.50881 C714.087987,627.95199 713.729373,625.41945 713.34804,622.91119 Z" id="Path" fill="#57B894"></path>
            <path d="M717.26456,668.67773 L631.23096,628.39565 C633.752909,636.644409 636.824791,644.714896 640.42596,652.55287 L640.48569,651.68542 L715.95699,697.41795 C716.967013,687.872632 717.403654,678.275329 717.26456,668.67773 Z" id="Path" fill="#57B894"></path>
            <path d="M679.61313,505.23955 L679.98293,504.86455 C666.74706,503.28655 655.13517,508.54164 646.08567,518.90883 L696.19967,550.61617 C687.65915,523.52336 679.72762,505.49794 679.61313,505.23955 Z" id="Path" fill="#57B894"></path>
            <path d="M696.83207,552.63596 L645.56842,520.20074 L645.62972,519.42994 C638.88813,527.35627 633.609,538.16228 630.188,551.11239 L706.98742,589.93296 C703.8517,576.42986 700.30682,563.80508 696.83207,552.63596 Z" id="Path" fill="#57B894"></path>
            <path d="M717.23879,666.99408 C716.998682,655.363654 716.132347,643.754601 714.64355,632.21736 L625.77503,591.40116 C625.864863,596.08154 626.14177,600.878303 626.60575,605.79145 C627.329362,612.813293 628.691933,619.7545 630.67653,626.52881 L717.20179,667.04088 L717.23879,666.99408 Z" id="Path" fill="#57B894"></path>
            <path d="M644.82195,460.96108 L386.71436,428.42578 C375.01596,331.11571 392.68989,236.11478 422.86467,141.63957 L680.97226,174.17484 C642.02448,266.85941 630.59209,362.52165 644.82195,460.96108 Z" id="Path" fill="#F2F2F2"></path>
            <rect id="Rectangle" fill="#2F70FF" transform="translate(536.724615, 194.396254) rotate(7.184420) translate(-536.724615, -194.396254) " x="457.23431" y="185.855974" width="158.98061" height="17.08056"></rect>
            <rect id="Rectangle" fill="#2F70FF" opacity="0.3" transform="translate(528.823667, 230.811409) rotate(7.184420) translate(-528.823667, -230.811409) " x="421.084737" y="226.541269" width="215.47786" height="8.54028"></rect>
            <rect id="Rectangle" fill="#2F70FF" opacity="0.3" transform="translate(525.372951, 258.186463) rotate(7.184420) translate(-525.372951, -258.186463) " x="417.634021" y="253.916323" width="215.47786" height="8.54028"></rect>
            <rect id="Rectangle" fill="#2F70FF" opacity="0.3" transform="translate(521.922236, 285.561515) rotate(7.184420) translate(-521.922236, -285.561515) " x="414.183306" y="281.291375" width="215.47786" height="8.54028"></rect>
            <rect id="Rectangle" fill="#2F70FF" opacity="0.3" transform="translate(518.471531, 312.936549) rotate(7.184420) translate(-518.471531, -312.936549) " x="410.732601" y="308.666409" width="215.47786" height="8.54028"></rect>
            <rect id="Rectangle" fill="#2F70FF" opacity="0.3" transform="translate(515.020815, 340.311603) rotate(7.184420) translate(-515.020815, -340.311603) " x="407.281885" y="336.041463" width="215.47786" height="8.54028"></rect>
            <rect id="Rectangle" fill="#2F70FF" opacity="0.3" transform="translate(511.570109, 367.686657) rotate(7.184420) translate(-511.570109, -367.686657) " x="403.831179" y="363.416517" width="215.47786" height="8.54028"></rect>
            <rect id="Rectangle" fill="#2F70FF" opacity="0.3" transform="translate(508.119404, 395.061701) rotate(7.184420) translate(-508.119404, -395.061701) " x="400.380474" y="390.791561" width="215.47786" height="8.54028"></rect>
            <path d="M522.59442,365.09308 L281.11914,268.30588 C294.42447,171.20248 335.56197,83.76538 388.66047,9.99999997e-06 L630.13575,96.78721 C569.0029,176.60028 533.73648,266.25653 522.59442,365.09308 Z" id="Path" fill="#E6E6E6"></path>
            <rect id="Rectangle" fill="#2F70FF" transform="translate(485.465679, 79.850571) rotate(21.841710) translate(-485.465679, -79.850571) " x="405.975374" y="71.3102913" width="158.98061" height="17.08056"></rect>
            <rect id="Rectangle" fill="#2F70FF" opacity="0.3" transform="translate(468.607469, 113.081434) rotate(21.841710) translate(-468.607469, -113.081434) " x="360.868539" y="108.811294" width="215.47786" height="8.54028"></rect>
            <rect id="Rectangle" fill="#2F70FF" opacity="0.3" transform="translate(458.342165, 138.692450) rotate(21.841710) translate(-458.342165, -138.692450) " x="350.603235" y="134.42231" width="215.47786" height="8.54028"></rect>
            <rect id="Rectangle" fill="#2F70FF" opacity="0.3" transform="translate(448.076854, 164.303456) rotate(21.841710) translate(-448.076854, -164.303456) " x="340.337924" y="160.033316" width="215.47786" height="8.54028"></rect>
            <rect id="Rectangle" fill="#2F70FF" opacity="0.3" transform="translate(437.811543, 189.914472) rotate(21.841710) translate(-437.811543, -189.914472) " x="330.072613" y="185.644332" width="215.47786" height="8.54028"></rect>
            <rect id="Rectangle" fill="#2F70FF" opacity="0.3" transform="translate(427.546239, 215.525488) rotate(21.841710) translate(-427.546239, -215.525488) " x="319.807309" y="211.255348" width="215.47786" height="8.54028"></rect>
            <rect id="Rectangle" fill="#2F70FF" opacity="0.3" transform="translate(417.280928, 241.136504) rotate(21.841710) translate(-417.280928, -241.136504) " x="309.541998" y="236.866364" width="215.47786" height="8.54028"></rect>
            <rect id="Rectangle" fill="#2F70FF" opacity="0.3" transform="translate(407.015613, 266.747519) rotate(21.841710) translate(-407.015613, -266.747519) " x="299.276683" y="262.477379" width="215.47786" height="8.54028"></rect>
            <path d="M462.87683,388.40327 L202.72674,388.40327 C178.95024,293.32027 184.60427,196.85485 202.72674,99.34761 L462.87683,99.34761 C435.8263,196.17542 436.44752,292.51637 462.87683,388.40327 Z" id="Path" fill="#F2F2F2"></path>
            <rect id="Rectangle" fill="#2F70FF" x="242.80036" y="128.91011" width="158.98061" height="17.08056"></rect>
            <rect id="Rectangle" fill="#2F70FF" opacity="0.3" x="211.26702" y="170.29763" width="215.47786" height="8.54028"></rect>
            <rect id="Rectangle" fill="#2F70FF" opacity="0.3" x="211.26702" y="197.88931" width="215.47786" height="8.54028"></rect>
            <rect id="Rectangle" fill="#2F70FF" opacity="0.3" x="211.26702" y="225.48098" width="215.47786" height="8.54028"></rect>
            <rect id="Rectangle" fill="#2F70FF" opacity="0.3" x="211.26702" y="253.07266" width="215.47786" height="8.54028"></rect>
            <rect id="Rectangle" fill="#2F70FF" opacity="0.3" x="211.26702" y="280.66434" width="215.47786" height="8.54028"></rect>
            <rect id="Rectangle" fill="#2F70FF" opacity="0.3" x="211.26702" y="308.25601" width="215.47786" height="8.54028"></rect>
            <rect id="Rectangle" fill="#2F70FF" opacity="0.3" x="211.26702" y="335.84769" width="215.47786" height="8.54028"></rect>
            <path d="M287.52178,330.69795 L197.8969,261.02076 C196.071693,257.846493 192.689255,255.889661 189.02765,255.88966 L140.65528,255.88966 C135.004899,255.88966 130.42436,260.470199 130.42436,266.12058 L130.42436,693.06167 C130.42436,711.389317 145.281853,726.24681 163.6095,726.24681 L660.17164,726.24681 C668.972885,726.24681 677.413655,722.750528 683.637074,716.527107 C689.860493,710.303686 693.356773,701.862915 693.35677,693.06167 L693.35677,360.86057 C693.35677,344.202219 679.852511,330.697956 663.19416,330.69795 L287.52178,330.69795 Z" id="Path-2" fill="#CDCDCD"></path>
            <rect id="Rectangle" fill="#2F70FF" x="586.39961" y="429.7086" width="90.06919" height="31.52422"></rect>
            <path d="M60.22642,250.48496 C60.22642,250.48496 64.64761,273.91723 61.55278,275.6857 C59.0530896,277.256865 56.6871204,279.031342 54.47889,280.99112 L62.43702,292.04412 L81.4481,296.02318 L99.57495,279.22269 L99.57495,262.42216 C99.57495,262.42216 94.26953,254.02191 95.15377,248.71649 C96.03801,243.41107 60.22642,250.48496 60.22642,250.48496 Z" id="Path" fill="#FBBEBE"></path>
            <path d="M60.22642,250.48496 C60.22642,250.48496 64.64761,273.91723 61.55278,275.6857 C59.0530896,277.256865 56.6871204,279.031342 54.47889,280.99112 L62.43702,292.04412 L81.4481,296.02318 L99.57495,279.22269 L99.57495,262.42216 C99.57495,262.42216 94.26953,254.02191 95.15377,248.71649 C96.03801,243.41107 60.22642,250.48496 60.22642,250.48496 Z" id="Path" fill="#000000" opacity="0.1"></path>
            <path d="M29.72021,290.71772 L27.0675,292.04408 C27.0675,292.04408 21.31997,294.25467 18.66726,313.26576 C16.01455,332.27685 9.82489,377.81502 11.59337,379.14138 C13.36185,380.46774 12.4776,389.3101 12.4776,389.3101 L25.74115,319.89753 L29.72021,290.71772 Z" id="Path" fill="#2F2E41"></path>
            <path d="M61.159,182.81608 C60.75457,183.66008 60.61276,184.64548 60.23332,185.50525 C58.51019,189.4097 53.6049,188.53601 50.06681,190.01286 C47.07042,191.26359 44.83408,194.69807 44.59961,198.40916 C44.50007,199.98472 44.73107,201.5738 44.58946,203.14495 C44.32786,206.04717 42.83146,208.60295 42.29884,211.45402 C41.00502,218.38002 44.02392,229.31765 47.43267,225.57995 C48.5076,224.40129 49.8531,223.61995 51.01417,222.55895 C54.02962,219.80341 55.56538,215.42204 58.01478,211.98328 C58.3246237,211.478761 58.751116,211.056045 59.25837,210.7507 C61.04816,209.86134 62.6415,212.2418 64.05637,213.80216 C65.5131261,215.3929 67.583372,216.280711 69.7399661,216.239531 C71.8965601,216.198351 73.9314039,215.232154 75.32637,213.58696 C75.758185,212.958771 76.2953438,212.409958 76.91412,211.96476 C77.6044758,211.646973 78.3816751,211.570698 79.12064,211.74821 C82.6094725,212.36239 85.7523243,214.233682 87.95486,217.00821 C89.13629,218.45414 90.12427,220.15529 91.54039,221.27632 C92.95651,222.39735 95.02258,222.76668 96.29791,221.43432 C98.86469,223.24898 99.82214,227.1012 99.82891,230.60924 C99.83568,234.11728 99.11701,237.60266 99.29232,241.10471 C99.46763,244.60676 100.84253,248.38637 103.63332,249.67127 C104.072734,246.482318 105.727826,243.586655 108.25259,241.58964 C110.15336,240.17489 112.46351,239.47401 114.07096,237.62756 C117.28917,233.93086 116.26944,227.78192 116.39305,222.50805 C116.5455,216.00335 118.79976,209.78465 119.19805,203.29421 C119.39705,200.05063 119.06196,196.57301 117.3548,194.00633 C116.06264,192.296013 114.424689,190.877077 112.54763,189.84194 L97.37252,180.10626 C96.6986912,179.608306 95.9346405,179.245834 95.12273,179.03894 C92.88878,178.63811 90.95778,180.73323 88.84002,181.65649 C87.0737012,182.282863 85.1908065,182.511246 83.32596,182.32531 C77.43484,182.16569 75.7767,183.3098 71.81686,179.47155 C71.1919948,178.840086 70.3038611,178.543774 69.42502,178.67355 C67.05665,179.04898 62.45462,180.11223 61.159,182.81608 Z" id="Path" fill="#2F2E41"></path>
            <polygon id="Path" fill="#FBBEBE" points="69.511 716.92 78.795 737.257 60.668 743.447 51.384 738.584 53.595 716.92"></polygon>
            <path d="M61.11061,734.16234 C61.11061,734.16234 46.52071,725.31998 43.868,728.4148 C41.21529,731.50962 19.99361,754.05766 19.99361,754.05766 C19.99361,754.05766 -12.72314,771.74239 12.47761,774.3951 C37.67836,777.04781 78.79535,758.92096 78.79535,758.92096 C78.79535,758.92096 81.00594,735.04658 79.23747,734.60446 C77.469,734.16234 69.95299,738.58352 66.41604,737.25717 C64.4627265,736.581274 62.6604318,735.529937 61.11061,734.16234 Z" id="Path" fill="#2F2E41"></path>
            <polygon id="Path" fill="#FBBEBE" points="93.385 738.584 93.385 756.71 69.511 751.405 74.816 732.836"></polygon>
            <path d="M69.06874,744.77318 C69.06874,744.77318 93.38524,740.79412 95.59584,752.73131 C97.80644,764.6685 103.55396,782.35323 97.80643,786.77442 C92.0589,791.19561 62.43697,796.94314 61.99485,789.42713 C61.55273,781.91112 65.08968,767.32121 65.08968,767.32121 C65.08968,767.32121 67.30027,755.82614 65.97391,752.73131 C64.64755,749.63648 69.06874,744.77318 69.06874,744.77318 Z" id="Path" fill="#2F2E41"></path>
            <path d="M20.50042,446.22985 C20.50042,446.22985 0.54042,572.78918 16.8988,634.68573 C33.25718,696.58228 44.75224,733.27808 44.75224,733.27808 C44.75224,733.27808 73.0478,725.31995 73.0478,720.01453 C73.0478,714.70911 61.9948,636.01206 59.34214,628.49605 C56.68948,620.98004 52.26825,618.32733 56.24731,612.13767 C60.22637,605.94801 66.85815,566.15737 66.85815,566.15737 C66.85815,566.15737 81.44805,632.03299 82.33229,633.80147 C83.21653,635.56995 73.0478,736.81508 73.0478,736.81508 C73.0478,736.81508 102.23233,757.99424 103.99608,742.1205 C104.4382,738.14144 123.8914,597.10571 123.8914,595.33724 C123.8914,593.56877 131.84953,458.28058 119.0281,451.6488 C106.20667,445.01702 20.50042,446.22985 20.50042,446.22985 Z" id="Path" fill="#2F2E41"></path>
            <circle id="Oval" fill="#FBBEBE" cx="77.46899" cy="229.26328" r="30.06404"></circle>
            <path d="M70.83721,288.94925 L70.83721,285.85442 L61.99485,271.26452 C61.99485,271.26452 53.15248,272.14876 51.82613,276.12782 C50.49978,280.10688 35.46775,311.9394 35.46775,311.9394 L19.55149,454.7436 C19.55149,454.7436 63.3212,465.35444 69.95298,457.83843 C76.58476,450.32242 101.78549,286.73866 101.78549,286.73866 L105.32242,266.84334 C105.32242,266.84334 99.24914,258.00097 97.8646,259.32734 C96.48006,260.65371 73.4899,286.29655 73.4899,286.29655 L73.04778,290.27562 L70.83721,288.94925 Z" id="Path" fill="#F4F4F4"></path>
            <path d="M61.77379,268.39075 C61.77379,268.39075 53.5946,266.40122 50.94189,271.26452 C48.28918,276.12782 48.28918,277.89629 45.63647,279.66477 C42.98376,281.43325 27.50962,289.39137 26.62539,292.4862 C26.3408958,293.481938 20.4137708,292.557694 17.6132812,306.736328 C11.7096317,336.625991 6.73006,393.2892 6.73006,393.2892 C6.73006,393.2892 -2.55442,422.46901 1.86676,442.36433 C6.28794,462.25965 3.19312,466.23871 12.4776,468.00719 C21.76208,469.77567 23.08844,469.77566 23.08844,467.12295 C23.08844,464.47024 35.02563,374.72023 43.42588,368.53058 C51.82613,362.34093 49.61554,294.69683 49.61554,294.69683 C49.61554,294.69683 61.55273,280.10693 61.55273,277.89633 C61.55273,275.68573 63.54226,268.22493 61.77379,268.39075 Z" id="Path" fill="#2E6FFF"></path>
            <path d="M86.75347,284.52808 C87.98696,284.73366 104.88032,262.86428 106.20667,263.74852 C107.53302,264.63276 114.1648,276.12783 115.04904,276.12783 C115.93328,276.12783 153.51333,285.41231 156.60816,302.65493 C159.70299,319.89755 134.94436,374.7202 134.94436,374.7202 C134.94436,374.7202 124.33352,406.1106 126.54411,419.81627 C128.043943,430.253462 127.744875,440.870448 125.65988,451.20666 C124.77564,454.74366 121.68081,458.72266 122.56505,460.49115 C123.44929,462.25964 103.11185,458.28056 94.7116,463.14386 C86.31135,468.00716 48.7313,471.5441 50.94189,466.23868 C53.15248,460.93326 54.47889,440.15368 60.66849,418.04779 C66.85809,395.9419 82.77441,343.77193 80.1217,340.23498 C77.46899,336.69803 84.10076,284.08595 86.75347,284.52808 Z" id="Path" fill="#2E6FFF"></path>
            <path d="M151.30274,297.3495 L157.05027,302.65492 C157.05027,302.65492 163.68205,314.14999 162.79781,319.45541 C161.91357,324.76083 181.36681,404.78424 173.40865,407.43695 C165.45049,410.08966 146.43944,423.3532 144.22884,426.89015 C142.01824,430.4271 136.71284,436.61675 133.17589,438.38522 C129.63894,440.15369 126.102,443.24852 123.8914,441.48005 C121.6808,439.71158 116.81751,403.45788 120.35446,402.13153 C123.89141,400.80518 127.42835,396.82611 130.9653,396.82611 C134.50225,396.82611 136.71283,393.28916 136.71283,390.19433 C136.71283,387.0995 134.06012,368.53054 134.06012,368.53054 L128.31259,324.76083 L151.30274,297.3495 Z" id="Path" fill="#2E6FFF"></path>
            <path d="M66.46303,187.21544 C66.10543,187.85344 65.98003,188.59839 65.64454,189.24834 C64.12094,192.19993 59.78366,191.53946 56.65526,192.65589 C53.9570185,193.665504 52.0772979,196.133598 51.82115,199.00313 C51.73315,200.19419 51.93738,201.39546 51.81215,202.58319 C51.58085,204.77713 50.2577,206.70919 49.78678,208.86448 C48.64278,214.1002 51.3121,222.36861 54.32613,219.54307 C55.27658,218.65207 56.46629,218.06141 57.49291,217.25935 C60.15919,215.17628 61.51711,211.86415 63.68291,209.2646 C63.9707375,208.871552 64.3475478,208.552247 64.7825,208.33282 C66.36504,207.6605 67.77388,209.46003 69.02491,210.63959 C71.8931032,213.158855 76.2054185,213.088455 78.98985,210.47691 C79.3843705,209.990985 79.8592015,209.576219 80.39375,209.2506 C81.01479,209.009468 81.6922101,208.952625 82.34475,209.08689 C85.3214213,209.496715 88.0731923,210.897517 90.15601,213.06325 C91.0956278,214.247919 92.1583636,215.329484 93.32635,216.28976 C94.57848,217.13721 96.40535,217.4164 97.53297,216.40922 C99.80253,217.78103 100.64911,220.69313 100.65511,223.34506 C100.66111,225.99699 100.02564,228.63178 100.18065,231.27918 C100.33566,233.92658 101.55135,236.7838 104.01899,237.75518 C104.477218,235.241612 105.955791,233.029982 108.10337,231.64582 C109.78404,230.57633 111.82669,230.04649 113.248,228.65066 C116.09356,225.85611 115.19191,221.20778 115.3012,217.22096 C115.436,212.30369 117.4292,207.60263 117.7814,202.69613 C117.9574,200.24413 117.66107,197.6152 116.15159,195.6749 C114.963086,194.34794 113.51688,193.276826 111.90107,192.52681 L98.48317,185.16705 C97.8720563,184.78444 97.1988671,184.511398 96.49389,184.36021 C94.51862,184.05721 92.81122,185.64102 90.93869,186.33896 C89.3600886,186.814225 87.7056727,186.98579 86.06314,186.84456 C80.85414,186.7239 79.38805,187.58879 75.88673,184.68724 C75.2970701,184.199412 74.5301431,183.98066 73.77186,184.08401 C71.67777,184.36766 67.60862,185.17142 66.46303,187.21544 Z" id="Path" fill="#2F2E41"></path>
        </g>
    </g>
</svg>